<svg width="1576" height="1200" viewBox="0 0 1576 1200" fill="none" xmlns="http://www.w3.org/2000/svg">
<path d="M170.256 812.613L90.9896 876.026C90.9896 876.026 101.889 933.494 124.182 933.494C146.476 933.494 258 896 290.5 904.5C290.5 904.5 370.504 921.675 425 940.5C401.5 900 415.229 922.099 386 876.026C386 876.026 348.731 820.524 335.732 802.333C322.734 784.141 310.73 763.684 310.73 763.684C273.694 716.634 250.513 645.5 250.513 645.5C238.813 637.914 234.231 728.694 215 763.684C203.303 784.966 186.931 797.996 170.256 812.613Z" stroke="#5E5E5E" stroke-width="8" stroke-linecap="round" stroke-linejoin="round"/>
<path d="M245.636 587C221.636 571.5 220.313 651.498 187.136 737.5L5.63555 878.5C-0.543619 879.693 11.3261 1076.85 32.1356 1087C52.9451 1097.15 71.1356 1080.5 83.1356 1080C95.1356 1079.5 167.636 1150.5 167.636 1150.5L242.901 1095.5C242.901 1095.5 175.636 1057.5 167.636 1050.5C159.636 1043.5 156.462 991.66 167.636 974C178.809 956.34 232.174 952.739 288.136 957C288.136 957 411.636 971 479.636 967M245.636 587C245.636 587 282.136 658.5 337.636 713M245.636 587L398.636 4M337.636 713C337.636 713 381.813 714 398.636 737.5C415.458 761 411.136 822.5 411.136 822.5M337.636 713L1181.64 4M411.136 822.5C442.636 887.5 422.636 889 479.636 967M411.136 822.5L1571.14 587M479.636 967L1422.14 1195.5M487.136 364.5C487.136 376.5 479.636 252.5 479.636 252.5L522.636 209.5L539.136 160.5L544.636 143L617.136 164L610.136 183.5L593.136 228V287.5C561.308 321.085 554.463 338.415 522.636 372L504.886 368.25M487.136 364.5C483.791 354.715 386.916 417.553 378.636 424C370.355 430.447 365.568 441.725 369.136 442.5C372.703 443.275 378.636 442.5 378.636 442.5C378.636 442.5 471.55 415.15 479.636 412.5C487.721 409.85 495.93 404.151 531.636 403C567.342 401.849 586.276 449.994 539.136 465.5C539.136 465.5 447.636 473 422.636 478C397.636 483 381.136 521 381.136 521M487.136 364.5L504.886 368.25M504.886 368.25L531.636 287.5M531.636 287.5C523.824 284.308 521.729 280.901 522.636 271.5C528.078 258.711 531.797 256.44 539.136 259C548.083 257.982 551.45 261.494 551.636 279.5C548.482 288.653 543.516 289.642 531.636 287.5ZM1043.14 553L1075.14 508.5L1055.14 487.5L1043.14 457.5C1043.14 457.5 1033.14 405.5 1075.14 370.5C1117.14 335.5 1156.64 341 1174.64 341C1192.64 341 1224.64 347 1263.64 381.5L1277.64 403L1287.64 428.5C1287.64 428.5 1285.92 459.526 1277.64 477C1271.11 490.763 1254.64 508.5 1254.64 508.5L1215.64 534L1181.64 541.5H1153.14L1108.64 534L1059.64 553H1043.14ZM1295.64 835.5C1354.64 825 1426.53 901.047 1422.14 973C1417.74 1044.95 1306.11 1086.31 1289.14 1079C1218.1 1067.1 1190.98 1041.32 1170.14 954C1170.14 954 1184.64 882 1210.14 860.5C1235.64 839 1295.64 835.5 1295.64 835.5ZM1283.64 860.5H1295.64L1306.14 870.5L1311.64 878L1300.64 889V892.5L1306.14 898L1300.64 905L1295.64 910L1289.14 905L1283.64 910V914.5L1289.14 932V936L1283.64 940L1276.14 936L1271.64 932L1251.64 936L1247.64 940V945.5L1251.64 949.5L1267.64 954H1276.14L1283.64 967L1330.14 973L1341.64 983.5L1345.64 997L1333.64 1013L1320.64 1045L1300.64 1050.5L1295.64 1026.5L1286.14 1011L1283.64 1004.5L1280.14 983.5L1276.14 973L1261.14 967L1237.64 954L1210.14 914.5L1220.14 892.5L1244.14 870.5L1257.64 866.5L1271.64 870.5L1276.14 874L1280.14 866.5L1283.64 860.5ZM1384.64 914.5L1376.14 919.5L1363.14 932V945.5L1370.64 949.5L1374.64 957L1393.14 967L1398.14 954V940L1393.14 928L1384.64 914.5ZM1105.14 420C1116.39 422.421 1120.58 425.803 1121.64 438C1116.39 451.89 1112.59 454.038 1105.14 453.5C1092.72 451.803 1088.89 448.161 1088.14 436.5C1089 425.81 1093.33 422.641 1105.14 420ZM1163.64 420C1163.64 420 1179.56 421.024 1181.64 436.5C1178.02 448.414 1174.07 452.159 1163.64 453.5C1151.35 450.758 1146.54 447.624 1145.14 436.5C1147.39 422.329 1163.64 420 1163.64 420ZM1221.14 420C1225.14 420 1236.57 422.066 1239.14 438C1236.81 446.64 1234.06 450.296 1225.14 453.5C1213.42 452.13 1208.49 449.493 1205.64 438C1206.03 427.141 1217.14 420 1221.14 420Z" stroke="#5E5E5E" stroke-width="8" stroke-linecap="round" stroke-linejoin="round"/>
</svg>
