<svg width="300" height="285" viewBox="0 0 551 285" fill="none" xmlns="http://www.w3.org/2000/svg">
<path d="M36.6242 34.843C34.7759 17.7112 50.6465 2.34354 68.0381 4.42474L530.953 59.8205C538.659 60.7427 542.818 68.6247 539.412 75.8493L488.59 183.62C485.756 189.63 479.966 193.946 473.434 194.917L75.0667 254.15C66.9456 255.358 59.8479 250.1 59.0009 242.249L36.6242 34.843Z" fill="#1E1E1E"/>
<path d="M240.101 112.167L239.935 83.0764L259.196 82.9664L259.225 88.0374L246.114 88.1122L246.154 95.0439L257.986 94.9764L258.015 100.047L246.183 100.115L246.251 112.132L240.101 112.167ZM263.385 112.034L263.261 90.2161L269.312 90.1815L269.436 111.999L263.385 112.034ZM266.284 87.3863C265.385 87.3914 264.611 87.0975 263.964 86.5046C263.326 85.9022 263.005 85.1796 263 84.3368C262.995 83.5035 263.308 82.7867 263.939 82.1865C264.58 81.5768 265.35 81.2694 266.249 81.2642C267.149 81.2591 267.918 81.5577 268.556 82.1602C269.203 82.7531 269.529 83.4662 269.534 84.2995C269.539 85.1423 269.221 85.8686 268.58 86.4783C267.949 87.0785 267.184 87.3811 266.284 87.3863ZM280.263 99.3237L280.335 111.937L274.284 111.972L274.159 90.1539L279.926 90.121L279.948 93.9703L280.204 93.9689C280.679 92.6972 281.483 91.6888 282.615 90.9437C283.747 90.1891 285.123 89.8072 286.742 89.798C288.258 89.7893 289.58 90.1132 290.711 90.7697C291.842 91.4261 292.723 92.3681 293.355 93.5955C293.987 94.8135 294.308 96.2701 294.318 97.9651L294.397 111.857L288.346 111.891L288.273 99.0792C288.275 97.7439 287.928 96.7042 287.232 95.9601C286.537 95.2064 285.583 94.8331 284.371 94.84C283.556 94.8447 282.838 95.0239 282.215 95.3779C281.601 95.7318 281.121 96.2459 280.774 96.9202C280.437 97.585 280.267 98.3862 280.263 99.3237ZM305.39 112.206C303.998 112.214 302.756 111.98 301.664 111.503C300.572 111.017 299.706 110.297 299.067 109.344C298.436 108.382 298.117 107.181 298.108 105.742C298.102 104.53 298.318 103.511 298.759 102.684C299.199 101.858 299.801 101.191 300.565 100.685C301.33 100.179 302.199 99.7952 303.173 99.5339C304.156 99.2726 305.187 99.0868 306.266 98.9765C307.534 98.8367 308.556 98.7077 309.332 98.5897C310.108 98.4621 310.67 98.279 311.019 98.0402C311.368 97.8015 311.541 97.4501 311.539 96.9861L311.538 96.9009C311.533 96.0013 311.245 95.3069 310.674 94.8177C310.113 94.3285 309.316 94.0868 308.284 94.0927C307.195 94.0989 306.33 94.3454 305.688 94.832C305.047 95.3091 304.624 95.9081 304.42 96.629L298.821 96.2064C299.098 94.8791 299.65 93.7301 300.478 92.7594C301.305 91.7793 302.376 91.0251 303.689 90.4967C305.012 89.9589 306.544 89.685 308.287 89.675C309.499 89.6681 310.66 89.8035 311.769 90.0813C312.888 90.359 313.88 90.7937 314.746 91.3853C315.62 91.977 316.311 92.7401 316.818 93.6747C317.325 94.5998 317.583 95.7111 317.59 97.0084L317.674 111.724L311.936 111.757L311.918 108.731L311.748 108.732C311.401 109.416 310.936 110.02 310.352 110.544C309.768 111.059 309.065 111.465 308.242 111.764C307.42 112.052 306.469 112.2 305.39 112.206ZM307.099 108.02C307.989 108.015 308.774 107.835 309.454 107.481C310.134 107.117 310.666 106.631 311.051 106.023C311.435 105.415 311.626 104.727 311.621 103.96L311.608 101.645C311.419 101.769 311.16 101.884 310.829 101.99C310.507 102.087 310.143 102.179 309.737 102.266C309.33 102.344 308.923 102.418 308.516 102.486C308.109 102.546 307.74 102.6 307.409 102.649C306.699 102.757 306.08 102.926 305.551 103.157C305.022 103.387 304.612 103.697 304.321 104.087C304.029 104.468 303.885 104.942 303.888 105.51C303.893 106.334 304.195 106.962 304.794 107.394C305.403 107.817 306.171 108.025 307.099 108.02ZM328.348 99.0493L328.42 111.663L322.369 111.697L322.244 89.8795L328.011 89.8465L328.033 93.6959L328.289 93.6945C328.764 92.4228 329.568 91.4144 330.7 90.6693C331.833 89.9147 333.208 89.5328 334.828 89.5236C336.343 89.5149 337.666 89.8388 338.796 90.4952C339.927 91.1517 340.808 92.0936 341.44 93.3211C342.072 94.5391 342.393 95.9956 342.403 97.6907L342.482 111.582L336.431 111.617L336.358 98.8047C336.36 97.4695 336.013 96.4298 335.317 95.6856C334.622 94.932 333.668 94.5587 332.456 94.5656C331.641 94.5702 330.923 94.7495 330.3 95.1035C329.686 95.4573 329.206 95.9715 328.86 96.6458C328.522 97.3106 328.352 98.1118 328.348 99.0493ZM357.111 111.925C354.876 111.938 352.951 111.475 351.336 110.538C349.73 109.59 348.492 108.272 347.62 106.582C346.758 104.891 346.321 102.943 346.309 100.737C346.296 98.5018 346.716 96.5392 347.568 94.8487C348.429 93.1486 349.657 91.8206 351.252 90.8645C352.847 89.8989 354.748 89.4099 356.954 89.3973C358.858 89.3864 360.526 89.7225 361.96 90.4057C363.394 91.0888 364.531 92.0529 365.372 93.2982C366.212 94.5434 366.68 96.0085 366.775 97.6936L361.064 97.7262C360.897 96.6381 360.466 95.7646 359.771 95.1057C359.085 94.4373 358.189 94.1062 357.081 94.1125C356.143 94.1179 355.326 94.3782 354.628 94.8936C353.939 95.3994 353.404 96.1364 353.021 97.1045C352.638 98.0726 352.451 99.2432 352.459 100.616C352.467 102.008 352.663 103.191 353.047 104.164C353.441 105.137 353.99 105.878 354.693 106.385C355.397 106.892 356.218 107.143 357.155 107.138C357.846 107.134 358.466 106.988 359.013 106.701C359.57 106.414 360.027 105.999 360.384 105.458C360.75 104.906 360.988 104.247 361.097 103.479L366.807 103.446C366.722 105.114 366.276 106.584 365.469 107.858C364.671 109.122 363.564 110.113 362.148 110.831C360.731 111.549 359.053 111.914 357.111 111.925ZM370.727 111.421L370.603 89.6035L376.654 89.5689L376.778 111.387L370.727 111.421ZM373.626 86.7737C372.727 86.7788 371.953 86.4849 371.306 85.892C370.668 85.2896 370.347 84.567 370.342 83.7242C370.337 82.8909 370.65 82.1741 371.281 81.5739C371.922 80.9642 372.692 80.6567 373.591 80.6516C374.491 80.6465 375.26 80.9451 375.898 81.5476C376.545 82.1405 376.871 82.8536 376.876 83.6869C376.881 84.5297 376.563 85.2559 375.922 85.8657C375.291 86.4659 374.526 86.7685 373.626 86.7737ZM387.849 111.736C386.457 111.743 385.215 111.509 384.124 111.032C383.032 110.546 382.166 109.827 381.526 108.874C380.896 107.912 380.576 106.711 380.568 105.271C380.561 104.059 380.778 103.04 381.218 102.214C381.659 101.387 382.261 100.721 383.025 100.215C383.789 99.7083 384.658 99.3246 385.632 99.0633C386.615 98.802 387.647 98.6162 388.726 98.5059C389.994 98.3661 391.016 98.2371 391.792 98.1191C392.567 97.9915 393.13 97.8084 393.479 97.5696C393.828 97.3309 394.001 96.9795 393.998 96.5155L393.998 96.4303C393.993 95.5307 393.705 94.8363 393.134 94.3471C392.572 93.8579 391.775 93.6162 390.743 93.6221C389.654 93.6283 388.789 93.8748 388.148 94.3614C387.507 94.8385 387.084 95.4375 386.88 96.1584L381.281 95.7358C381.557 94.4085 382.109 93.2595 382.937 92.2888C383.765 91.3087 384.835 90.5545 386.149 90.0261C387.471 89.4883 389.004 89.2144 390.746 89.2044C391.958 89.1975 393.119 89.3329 394.229 89.6107C395.348 89.8884 396.34 90.3231 397.205 90.9147C398.08 91.5064 398.771 92.2695 399.278 93.2041C399.785 94.1292 400.042 95.2405 400.05 96.5378L400.134 111.253L394.395 111.286L394.378 108.261L394.207 108.262C393.861 108.945 393.396 109.549 392.812 110.074C392.227 110.588 391.524 110.995 390.702 111.293C389.88 111.582 388.929 111.729 387.849 111.736ZM389.558 107.55C390.449 107.544 391.234 107.365 391.913 107.011C392.593 106.647 393.125 106.161 393.51 105.553C393.895 104.944 394.085 104.257 394.081 103.49L394.068 101.174C393.879 101.298 393.619 101.414 393.288 101.52C392.967 101.616 392.603 101.708 392.196 101.796C391.789 101.874 391.383 101.947 390.976 102.016C390.569 102.075 390.2 102.129 389.869 102.178C389.159 102.287 388.54 102.456 388.011 102.686C387.482 102.916 387.072 103.227 386.78 103.616C386.489 103.997 386.345 104.471 386.348 105.039C386.353 105.863 386.655 106.491 387.254 106.924C387.862 107.346 388.63 107.555 389.558 107.55ZM410.713 82.1017L410.879 111.192L404.828 111.227L404.662 82.1363L410.713 82.1017ZM239.823 160.169L233.232 160.207L243.108 131.059L251.034 131.014L261.228 160.047L254.638 160.085L247.223 137.683L246.996 137.685L239.823 160.169ZM239.345 148.737L254.913 148.648L254.941 153.449L239.373 153.538L239.345 148.737ZM282.173 144.331L276.635 144.703C276.537 144.23 276.331 143.805 276.017 143.428C275.702 143.042 275.288 142.736 274.776 142.512C274.272 142.278 273.67 142.163 272.97 142.167C272.032 142.173 271.243 142.376 270.601 142.777C269.959 143.169 269.64 143.692 269.644 144.345C269.647 144.866 269.858 145.305 270.277 145.663C270.695 146.02 271.412 146.305 272.426 146.517L276.38 147.29C278.503 147.713 280.089 148.405 281.136 149.365C282.183 150.325 282.711 151.591 282.72 153.163C282.728 154.593 282.314 155.85 281.477 156.934C280.65 158.019 279.509 158.868 278.054 159.482C276.609 160.087 274.939 160.395 273.045 160.406C270.157 160.422 267.853 159.834 266.132 158.641C264.42 157.439 263.412 155.797 263.106 153.715L269.056 153.369C269.241 154.248 269.681 154.918 270.375 155.378C271.068 155.829 271.955 156.051 273.035 156.045C274.095 156.039 274.946 155.83 275.588 155.42C276.239 154.999 276.567 154.462 276.573 153.809C276.56 153.26 276.326 152.811 275.869 152.463C275.413 152.106 274.71 151.835 273.762 151.651L269.98 150.92C267.847 150.506 266.256 149.777 265.209 148.731C264.171 147.686 263.647 146.349 263.637 144.72C263.629 143.319 264.001 142.109 264.753 141.092C265.514 140.074 266.585 139.287 267.964 138.73C269.353 138.173 270.98 137.889 272.846 137.878C275.601 137.862 277.773 138.432 279.361 139.588C280.959 140.744 281.896 142.325 282.173 144.331ZM304.633 144.202L299.095 144.575C298.998 144.102 298.792 143.677 298.477 143.3C298.163 142.914 297.749 142.608 297.236 142.384C296.733 142.15 296.131 142.035 295.43 142.039C294.493 142.044 293.703 142.248 293.062 142.649C292.42 143.041 292.101 143.564 292.105 144.217C292.108 144.738 292.318 145.177 292.737 145.535C293.156 145.892 293.872 146.177 294.887 146.389L298.84 147.162C300.964 147.585 302.549 148.277 303.596 149.237C304.644 150.197 305.172 151.463 305.181 153.035C305.189 154.465 304.775 155.722 303.938 156.806C303.111 157.89 301.97 158.74 300.515 159.354C299.069 159.959 297.4 160.267 295.506 160.278C292.618 160.294 290.313 159.706 288.592 158.513C286.881 157.311 285.872 155.669 285.567 153.587L291.517 153.241C291.702 154.12 292.141 154.79 292.835 155.25C293.529 155.701 294.416 155.923 295.495 155.917C296.556 155.911 297.407 155.702 298.049 155.291C298.7 154.871 299.028 154.334 299.034 153.681C299.021 153.131 298.786 152.683 298.33 152.335C297.873 151.978 297.171 151.707 296.223 151.523L292.44 150.792C290.307 150.378 288.717 149.648 287.669 148.603C286.631 147.558 286.107 146.221 286.098 144.592C286.09 143.191 286.462 141.981 287.214 140.964C287.975 139.946 289.045 139.159 290.425 138.602C291.814 138.044 293.441 137.761 295.306 137.75C298.062 137.734 300.234 138.304 301.822 139.46C303.419 140.616 304.356 142.196 304.633 144.202ZM309.03 159.774L308.905 137.956L314.956 137.922L315.081 159.74L309.03 159.774ZM311.929 135.127C311.029 135.132 310.256 134.838 309.608 134.245C308.97 133.642 308.649 132.92 308.644 132.077C308.639 131.244 308.953 130.527 309.584 129.927C310.224 129.317 310.994 129.01 311.894 129.005C312.793 128.999 313.562 129.298 314.2 129.9C314.847 130.493 315.173 131.206 315.178 132.04C315.183 132.883 314.865 133.609 314.225 134.219C313.594 134.819 312.828 135.121 311.929 135.127ZM337.992 144.012L332.454 144.385C332.357 143.912 332.151 143.487 331.836 143.11C331.521 142.723 331.108 142.418 330.595 142.193C330.092 141.96 329.49 141.845 328.789 141.849C327.852 141.854 327.062 142.057 326.42 142.459C325.779 142.851 325.46 143.373 325.463 144.027C325.466 144.548 325.677 144.987 326.096 145.344C326.515 145.702 327.231 145.986 328.246 146.198L332.199 146.971C334.323 147.395 335.908 148.087 336.955 149.046C338.002 150.006 338.531 151.272 338.539 152.844C338.548 154.274 338.133 155.531 337.297 156.616C336.47 157.7 335.329 158.549 333.874 159.164C332.428 159.768 330.759 160.076 328.865 160.087C325.977 160.104 323.672 159.515 321.951 158.323C320.24 157.12 319.231 155.478 318.926 153.397L324.876 153.05C325.061 153.93 325.5 154.6 326.194 155.06C326.888 155.51 327.775 155.732 328.854 155.726C329.915 155.72 330.766 155.512 331.407 155.101C332.058 154.681 332.387 154.144 332.392 153.49C332.38 152.941 332.145 152.493 331.689 152.145C331.232 151.788 330.53 151.517 329.582 151.333L325.799 150.602C323.666 150.188 322.076 149.458 321.028 148.413C319.99 147.368 319.466 146.031 319.457 144.402C319.449 143 319.821 141.791 320.573 140.773C321.334 139.756 322.404 138.968 323.784 138.411C325.172 137.854 326.8 137.57 328.665 137.559C331.421 137.544 333.593 138.114 335.181 139.269C336.778 140.425 337.715 142.006 337.992 144.012ZM353.869 137.7L353.895 142.245L340.756 142.32L340.73 137.775L353.869 137.7ZM343.683 132.531L349.734 132.496L349.85 152.837C349.853 153.395 349.941 153.83 350.113 154.142C350.285 154.444 350.523 154.656 350.827 154.777C351.14 154.898 351.5 154.958 351.908 154.956C352.192 154.954 352.476 154.929 352.759 154.88C353.043 154.821 353.261 154.777 353.412 154.748L354.389 159.245C354.087 159.342 353.661 159.453 353.113 159.579C352.564 159.715 351.897 159.799 351.112 159.832C349.654 159.897 348.374 159.711 347.273 159.272C346.181 158.833 345.33 158.147 344.719 157.213C344.107 156.278 343.802 155.097 343.803 153.667L343.683 132.531ZM364.159 159.872C362.767 159.879 361.525 159.645 360.433 159.168C359.341 158.682 358.475 157.963 357.836 157.01C357.205 156.047 356.886 154.847 356.877 153.407C356.871 152.195 357.087 151.176 357.528 150.35C357.968 149.523 358.57 148.857 359.334 148.351C360.099 147.844 360.968 147.461 361.942 147.199C362.925 146.938 363.956 146.752 365.035 146.642C366.303 146.502 367.325 146.373 368.101 146.255C368.877 146.127 369.439 145.944 369.788 145.706C370.137 145.467 370.311 145.116 370.308 144.652L370.307 144.566C370.302 143.667 370.014 142.972 369.443 142.483C368.882 141.994 368.085 141.752 367.053 141.758C365.964 141.764 365.099 142.011 364.457 142.497C363.816 142.975 363.393 143.574 363.189 144.294L357.59 143.872C357.867 142.544 358.419 141.395 359.247 140.425C360.074 139.445 361.145 138.69 362.458 138.162C363.781 137.624 365.313 137.35 367.056 137.34C368.268 137.333 369.429 137.469 370.538 137.747C371.657 138.024 372.649 138.459 373.515 139.051C374.389 139.642 375.08 140.405 375.587 141.34C376.095 142.265 376.352 143.376 376.359 144.674L376.443 159.389L370.705 159.422L370.687 156.397L370.517 156.398C370.17 157.081 369.705 157.685 369.121 158.21C368.537 158.724 367.834 159.131 367.011 159.429C366.189 159.718 365.238 159.865 364.159 159.872ZM365.868 155.686C366.758 155.68 367.543 155.501 368.223 155.147C368.903 154.783 369.435 154.297 369.82 153.689C370.204 153.08 370.395 152.393 370.39 151.626L370.377 149.31C370.188 149.434 369.929 149.55 369.598 149.656C369.276 149.752 368.912 149.844 368.506 149.932C368.099 150.01 367.692 150.083 367.285 150.152C366.878 150.211 366.509 150.265 366.178 150.314C365.469 150.423 364.849 150.592 364.32 150.822C363.791 151.052 363.381 151.363 363.09 151.752C362.798 152.133 362.654 152.607 362.658 153.175C362.662 153.999 362.964 154.627 363.563 155.059C364.172 155.482 364.94 155.691 365.868 155.686ZM387.117 146.715L387.189 159.328L381.138 159.363L381.013 137.545L386.78 137.512L386.802 141.361L387.058 141.36C387.534 140.088 388.337 139.08 389.47 138.335C390.602 137.58 391.977 137.198 393.597 137.189C395.112 137.18 396.435 137.504 397.565 138.161C398.696 138.817 399.577 139.759 400.209 140.986C400.841 142.204 401.162 143.661 401.172 145.356L401.251 159.248L395.2 159.282L395.127 146.47C395.129 145.135 394.782 144.095 394.086 143.351C393.391 142.597 392.437 142.224 391.225 142.231C390.41 142.236 389.692 142.415 389.069 142.769C388.455 143.123 387.975 143.637 387.629 144.311C387.292 144.976 387.121 145.777 387.117 146.715ZM417.501 137.337L417.526 141.882L404.387 141.957L404.362 137.412L417.501 137.337ZM407.315 132.167L413.366 132.133L413.482 152.473C413.485 153.032 413.573 153.467 413.745 153.779C413.917 154.081 414.155 154.293 414.459 154.414C414.772 154.535 415.132 154.595 415.539 154.592C415.823 154.591 416.107 154.565 416.391 154.517C416.675 154.458 416.892 154.414 417.044 154.385L418.021 158.882C417.719 158.979 417.293 159.09 416.745 159.216C416.196 159.352 415.529 159.436 414.743 159.469C413.285 159.534 412.006 159.347 410.905 158.909C409.813 158.47 408.962 157.783 408.35 156.849C407.739 155.915 407.434 154.733 407.435 153.303L407.315 132.167Z" fill="white"/>
<path d="M163.4 115.974L120.648 110.747C115.701 110.158 112.119 107.139 111.922 103.449C111.676 98.823 116.643 94.6192 123.023 94.0544L148.975 91.7574C153.75 91.3347 158.503 91.9691 162.52 93.5527C164.97 94.505 168.164 93.9371 170.122 92.3094L183.23 81.4536C185.905 79.2492 185.339 76.0199 182.155 74.5623C172.275 69.9616 160.136 67.9849 147.843 69.0444L147.118 55.4207C146.985 52.9231 144.058 51.129 140.613 51.4339L128.088 52.5425C124.643 52.8474 121.934 55.1404 122.067 57.6381L122.793 71.2618L121.814 71.3484C96.8804 73.5553 77.6666 90.8545 80.9571 109.07C83.298 122.009 97.643 131.433 115.219 133.585L155.793 138.548C160.742 139.165 164.322 142.156 164.519 145.846C164.765 150.472 159.798 154.676 153.418 155.241L127.467 157.538C122.691 157.961 117.938 157.326 113.921 155.743C111.472 154.79 108.277 155.358 106.319 156.986L93.2114 167.842C90.5366 170.046 91.1019 173.275 94.2863 174.733C104.166 179.334 116.306 181.31 128.598 180.251L129.323 193.875C129.457 196.372 132.384 198.166 135.828 197.861L148.354 196.753C151.798 196.448 154.508 194.155 154.374 191.657L153.646 177.977C171.872 176.107 188.559 166.731 193.92 153.681C201.404 135.452 186.318 118.765 163.4 115.974V115.974Z" fill="white"/>
</svg>

