<svg width="561" height="500" viewBox="0 0 561 500" fill="none" xmlns="http://www.w3.org/2000/svg">
<path d="M548.221 137.549C549.236 121.121 536.05 108.626 520.509 111.288L18.3493 197.287C9.81623 198.748 5.04224 208.974 9.42522 216.403L70.4635 319.851C73.4252 324.87 78.6545 327.859 84.436 327.836L522.031 326.104C530.073 326.072 537.007 319.183 537.53 310.705L548.221 137.549Z" fill="#1E1E1E"/>
<path d="M392.414 218H399.225V260H392.414C391.519 260.001 390.633 259.821 389.807 259.469C388.98 259.118 388.229 258.602 387.596 257.952C386.963 257.302 386.462 256.53 386.12 255.68C385.778 254.83 385.602 253.92 385.604 253V225C385.602 224.08 385.778 223.17 386.12 222.32C386.462 221.47 386.963 220.698 387.596 220.048C388.229 219.398 388.98 218.882 389.807 218.531C390.633 218.179 391.519 217.999 392.414 218ZM501.383 207.5V267C501.38 270.712 499.944 274.271 497.39 276.895C494.836 279.52 491.374 280.996 487.762 281H419.656C416.045 280.996 412.582 279.52 410.029 276.895C407.475 274.271 406.039 270.712 406.035 267V207.5C406.035 205.202 406.474 202.926 407.33 200.802C408.185 198.679 409.439 196.749 411.021 195.124C412.602 193.499 414.479 192.21 416.545 191.331C418.611 190.451 420.826 189.999 423.062 190H446.899V176C446.899 174.143 447.616 172.363 448.894 171.05C450.171 169.737 451.903 169 453.709 169C455.516 169 457.248 169.737 458.525 171.05C459.802 172.363 460.52 174.143 460.52 176V190H484.357C486.593 189.999 488.808 190.451 490.874 191.331C492.94 192.21 494.817 193.499 496.398 195.124C497.979 196.749 499.233 198.679 500.089 200.802C500.944 202.926 501.384 205.202 501.383 207.5ZM441.791 225C441.791 223.269 441.292 221.578 440.356 220.139C439.421 218.7 438.091 217.578 436.535 216.916C434.98 216.254 433.268 216.081 431.617 216.418C429.965 216.756 428.448 217.589 427.258 218.813C426.067 220.037 425.256 221.596 424.928 223.293C424.599 224.99 424.768 226.75 425.412 228.348C426.057 229.947 427.148 231.314 428.548 232.275C429.948 233.237 431.594 233.75 433.278 233.75C434.396 233.75 435.503 233.524 436.536 233.084C437.568 232.644 438.507 232 439.298 231.187C440.088 230.375 440.715 229.41 441.143 228.349C441.571 227.287 441.791 226.149 441.791 225ZM440.088 253H426.467V260H440.088V253ZM460.52 253H446.899V260H460.52V253ZM482.654 225C482.654 223.269 482.155 221.578 481.22 220.139C480.284 218.7 478.955 217.578 477.399 216.916C475.843 216.254 474.132 216.081 472.48 216.418C470.829 216.756 469.312 217.589 468.121 218.813C466.931 220.037 466.12 221.596 465.791 223.293C465.463 224.99 465.632 226.75 466.276 228.348C466.92 229.947 468.011 231.314 469.411 232.275C470.811 233.237 472.457 233.75 474.141 233.75C475.259 233.75 476.366 233.524 477.399 233.084C478.432 232.644 479.371 232 480.161 231.187C480.952 230.375 481.579 229.41 482.006 228.349C482.434 227.287 482.654 226.149 482.654 225ZM480.952 253H467.331V260H480.952V253ZM521.815 225V253C521.816 253.92 521.641 254.83 521.299 255.68C520.957 256.53 520.455 257.302 519.823 257.952C519.19 258.602 518.439 259.118 517.612 259.469C516.785 259.821 515.899 260.001 515.005 260H508.194V218H515.005C515.899 217.999 516.785 218.179 517.612 218.531C518.439 218.882 519.19 219.398 519.823 220.048C520.455 220.698 520.957 221.47 521.299 222.32C521.641 223.17 521.816 224.08 521.815 225Z" fill="white"/>
<path d="M130.983 234.776C130.788 233.409 130.157 232.367 129.091 231.65C128.025 230.934 126.607 230.614 124.836 230.69C123.632 230.742 122.623 230.956 121.809 231.332C120.995 231.697 120.379 232.185 119.961 232.794C119.555 233.403 119.369 234.082 119.401 234.831C119.405 235.457 119.559 235.996 119.863 236.449C120.178 236.902 120.598 237.288 121.124 237.606C121.649 237.914 122.252 238.178 122.932 238.399C123.613 238.608 124.337 238.782 125.105 238.919L128.27 239.534C129.806 239.809 131.222 240.203 132.518 240.716C133.814 241.229 134.945 241.88 135.912 242.668C136.879 243.457 137.642 244.402 138.201 245.504C138.772 246.606 139.094 247.883 139.168 249.336C139.248 251.471 138.783 253.345 137.772 254.958C136.771 256.559 135.279 257.835 133.296 258.784C131.323 259.722 128.917 260.252 126.079 260.375C123.263 260.496 120.793 260.17 118.667 259.397C116.552 258.624 114.873 257.416 113.631 255.775C112.4 254.122 111.702 252.042 111.537 249.535L118.673 249.228C118.802 250.394 119.179 251.356 119.803 252.114C120.438 252.86 121.264 253.41 122.28 253.765C123.307 254.107 124.456 254.251 125.728 254.196C126.977 254.143 128.053 253.914 128.957 253.512C129.872 253.108 130.572 252.572 131.055 251.903C131.538 251.234 131.761 250.479 131.725 249.639C131.691 248.856 131.43 248.207 130.942 247.694C130.465 247.18 129.775 246.754 128.874 246.418C127.983 246.081 126.896 245.786 125.611 245.534L121.772 244.744C118.801 244.155 116.431 243.137 114.663 241.689C112.894 240.241 111.96 238.228 111.861 235.651C111.759 233.539 112.241 231.67 113.309 230.043C114.387 228.416 115.907 227.116 117.867 226.145C119.827 225.173 122.078 224.633 124.621 224.523C127.21 224.412 129.488 224.758 131.456 225.56C133.436 226.362 134.999 227.529 136.145 229.061C137.292 230.592 137.927 232.396 138.05 234.472L130.983 234.776ZM156.261 259.093C153.615 259.207 151.304 258.743 149.325 257.702C147.358 256.649 145.808 255.135 144.677 253.159C143.545 251.172 142.921 248.839 142.806 246.159C142.689 243.457 143.11 241.073 144.068 239.008C145.025 236.93 146.438 235.289 148.309 234.082C150.19 232.864 152.453 232.198 155.098 232.084C157.744 231.97 160.05 232.439 162.018 233.492C163.996 234.533 165.551 236.047 166.683 238.034C167.815 240.01 168.438 242.349 168.555 245.051C168.67 247.731 168.249 250.109 167.292 252.186C166.335 254.252 164.915 255.894 163.034 257.112C161.164 258.319 158.906 258.979 156.261 259.093ZM156.053 253.472C157.256 253.42 158.246 253.036 159.023 252.32C159.799 251.593 160.366 250.624 160.724 249.415C161.092 248.204 161.244 246.839 161.179 245.317C161.113 243.796 160.845 242.448 160.373 241.274C159.913 240.1 159.265 239.184 158.43 238.526C157.594 237.868 156.574 237.565 155.371 237.617C154.156 237.669 153.149 238.059 152.35 238.788C151.562 239.515 150.984 240.484 150.615 241.694C150.258 242.904 150.112 244.27 150.177 245.791C150.243 247.312 150.506 248.66 150.966 249.835C151.437 251.009 152.096 251.924 152.944 252.582C153.802 253.227 154.838 253.524 156.053 253.472ZM173.83 257.825L172.705 231.667L179.738 231.365L179.934 235.928L180.207 235.917C180.614 234.273 181.361 233.012 182.45 232.135C183.537 231.247 184.814 230.771 186.278 230.708C186.642 230.692 187.034 230.698 187.456 230.725C187.878 230.753 188.25 230.799 188.571 230.865L188.848 237.302C188.503 237.215 188.028 237.144 187.423 237.091C186.818 237.037 186.266 237.021 185.766 237.042C184.699 237.088 183.755 237.362 182.935 237.864C182.126 238.354 181.495 239.018 181.042 239.856C180.6 240.694 180.402 241.647 180.448 242.714L181.085 257.513L173.83 257.825ZM193.453 256.98L192.327 230.823L199.36 230.52L199.557 235.084L199.829 235.072C200.236 233.428 200.984 232.168 202.072 231.291C203.16 230.402 204.436 229.926 205.901 229.863C206.264 229.848 206.657 229.853 207.079 229.881C207.501 229.908 207.872 229.955 208.194 230.02L208.471 236.458C208.126 236.37 207.651 236.3 207.045 236.246C206.44 236.192 205.888 236.176 205.388 236.198C204.321 236.244 203.378 236.518 202.558 237.019C201.748 237.509 201.117 238.173 200.664 239.012C200.223 239.85 200.025 240.802 200.071 241.869L200.707 256.668L193.453 256.98ZM223.8 256.186C221.11 256.302 218.77 255.857 216.782 254.85C214.805 253.832 213.25 252.341 212.119 250.376C210.988 248.4 210.363 246.033 210.244 243.274C210.128 240.583 210.549 238.2 211.506 236.122C212.463 234.045 213.865 232.398 215.712 231.181C217.571 229.964 219.783 229.3 222.349 229.19C224.074 229.115 225.693 229.324 227.204 229.817C228.726 230.297 230.067 231.064 231.227 232.117C232.398 233.17 233.332 234.518 234.028 236.16C234.724 237.79 235.12 239.718 235.216 241.944L235.301 243.936L213.214 244.887L213.02 240.391L228.279 239.734C228.234 238.69 227.967 237.774 227.478 236.988C226.99 236.201 226.332 235.598 225.507 235.179C224.692 234.747 223.757 234.554 222.701 234.6C221.6 234.647 220.634 234.945 219.805 235.492C218.986 236.028 218.357 236.732 217.916 237.604C217.476 238.464 217.272 239.412 217.305 240.445L217.489 244.72C217.545 246.014 217.831 247.122 218.349 248.044C218.877 248.965 219.596 249.662 220.503 250.135C221.411 250.608 222.472 250.818 223.687 250.766C224.493 250.731 225.226 250.586 225.886 250.33C226.546 250.074 227.105 249.709 227.562 249.234C228.019 248.759 228.358 248.187 228.58 247.518L235.309 247.672C235.037 249.299 234.4 250.737 233.396 251.986C232.403 253.223 231.092 254.212 229.463 254.953C227.845 255.682 225.958 256.093 223.8 256.186ZM247.122 239.52L247.773 254.643L240.519 254.955L239.393 228.797L246.307 228.5L246.506 233.115L246.812 233.102C247.326 231.555 248.245 230.31 249.569 229.366C250.893 228.41 252.525 227.891 254.467 227.807C256.283 227.729 257.884 228.058 259.269 228.795C260.654 229.531 261.753 230.622 262.566 232.065C263.379 233.498 263.828 235.23 263.916 237.262L264.633 253.917L257.378 254.229L256.717 238.869C256.659 237.267 256.197 236.036 255.33 235.175C254.462 234.302 253.301 233.897 251.848 233.96C250.872 234.002 250.018 234.249 249.287 234.701C248.567 235.153 248.014 235.791 247.629 236.615C247.254 237.427 247.085 238.396 247.122 239.52ZM287.597 252.929L279.695 253.269L290.234 217.874L299.737 217.465L313.261 251.824L305.359 252.164L295.465 225.633L295.192 225.645L287.597 252.929ZM286.513 239.241L305.178 238.438L305.426 244.194L286.761 244.997L286.513 239.241ZM323.332 216.45L324.833 251.326L317.459 251.644L315.958 216.767L323.332 216.45Z" fill="white"/>
</svg>
