  <svg class="drawable" width="561" height="500" viewBox="0 0 561 500" fill="none" xmlns="http://www.w3.org/2000/svg" >
<path d="M18.4431 198.298C10.6213 199.638 6.2449 209.011 10.2622 215.821L71.3008 319.269C74.098 324.009 79.0369 326.833 84.4973 326.811L522.092 325.079C529.598 325.049 536.07 318.62 536.558 310.707L547.249 137.55C548.224 121.755 535.546 109.74 520.602 112.3L18.4431 198.298Z" stroke="black" stroke-width="2"/>
<path d="M434.105 164C435.638 164 437.113 164.626 438.205 165.748C439.298 166.871 439.916 168.4 439.916 170V185H464.754C466.855 184.999 468.936 185.424 470.879 186.251C472.821 187.078 474.589 188.29 476.078 189.821C477.568 191.352 478.75 193.172 479.558 195.176C480.365 197.18 480.781 199.329 480.78 201.5V261C480.777 264.455 479.439 267.763 477.069 270.198C474.701 272.632 471.496 273.996 468.158 274H400.054C396.716 273.997 393.51 272.633 391.142 270.198C388.772 267.763 387.435 264.455 387.432 260.999V201.5L387.437 201.093C387.485 199.061 387.897 197.055 388.654 195.176C389.462 193.172 390.644 191.352 392.134 189.821C393.623 188.29 395.39 187.078 397.333 186.251C399.154 185.476 401.098 185.054 403.064 185.005L403.458 185H428.295V170C428.295 168.4 428.914 166.871 430.007 165.748C431.099 164.626 432.574 164 434.105 164ZM405.863 255H421.484V246H405.863V255ZM426.295 255H441.916V246H426.295V255ZM446.727 255H462.349V246H446.727V255ZM495.402 213C496.162 212.999 496.914 213.152 497.617 213.451C498.32 213.75 498.962 214.189 499.503 214.745C500.044 215.301 500.474 215.963 500.768 216.693C501.061 217.424 501.213 218.207 501.212 218.999V247.001C501.213 247.793 501.061 248.576 500.768 249.307C500.474 250.037 500.044 250.699 499.503 251.255C498.962 251.811 498.32 252.25 497.617 252.549C496.914 252.848 496.162 253.001 495.402 253H489.591V213H495.402ZM417.323 209.996C415.582 209.255 413.663 209.06 411.812 209.438C409.962 209.817 408.266 210.75 406.938 212.115C405.609 213.48 404.708 215.217 404.343 217.103C403.978 218.989 404.165 220.944 404.882 222.723C405.599 224.501 406.813 226.025 408.378 227.1C409.845 228.107 411.557 228.676 413.32 228.743L413.674 228.75C414.927 228.75 416.168 228.496 417.324 228.004C418.48 227.512 419.529 226.791 420.411 225.885C421.293 224.978 421.991 223.903 422.467 222.723C422.943 221.542 423.188 220.277 423.188 219L423.181 218.64C423.116 216.843 422.567 215.096 421.591 213.594C420.549 211.991 419.065 210.737 417.323 209.996ZM458.188 209.996C456.446 209.255 454.528 209.06 452.677 209.438C450.826 209.817 449.129 210.75 447.801 212.115C446.473 213.48 445.571 215.217 445.206 217.103C444.841 218.989 445.029 220.944 445.745 222.723C446.462 224.501 447.678 226.025 449.242 227.1C450.709 228.107 452.421 228.676 454.185 228.743L454.537 228.75C455.79 228.75 457.031 228.496 458.188 228.004C459.344 227.512 460.392 226.791 461.274 225.885C462.156 224.978 462.854 223.903 463.33 222.723C463.806 221.542 464.051 220.277 464.051 219L464.044 218.64C463.979 216.843 463.431 215.096 462.454 213.594C461.412 211.991 459.929 210.737 458.188 209.996ZM367 218.999C366.999 218.207 367.151 217.424 367.444 216.693C367.738 215.963 368.168 215.301 368.709 214.745C369.25 214.189 369.891 213.75 370.594 213.451C371.297 213.152 372.05 212.999 372.81 213H378.621V253H372.81C372.05 253.001 371.297 252.848 370.594 252.549C369.891 252.25 369.25 251.811 368.709 251.255C368.168 250.699 367.738 250.037 367.444 249.307C367.151 248.576 366.999 247.793 367 247.001V218.999Z" stroke="black" stroke-width="2"/>
<mask id="path-3-outside-1_64_136" maskUnits="userSpaceOnUse" x="104.22" y="214.24" width="219.561" height="50.3352" fill="black">
<rect fill="white" x="104.22" y="214.24" width="219.561" height="50.3352"/>
<path d="M126.987 235.776C126.792 234.409 126.161 233.367 125.095 232.65C124.029 231.934 122.611 231.614 120.84 231.69C119.636 231.742 118.627 231.956 117.813 232.332C116.999 232.697 116.383 233.185 115.965 233.794C115.559 234.403 115.372 235.082 115.405 235.831C115.409 236.457 115.563 236.996 115.867 237.449C116.182 237.902 116.602 238.288 117.128 238.606C117.653 238.914 118.256 239.178 118.936 239.399C119.616 239.608 120.34 239.782 121.108 239.919L124.274 240.534C125.81 240.809 127.226 241.203 128.522 241.716C129.818 242.229 130.949 242.88 131.916 243.668C132.883 244.457 133.646 245.402 134.205 246.504C134.775 247.606 135.098 248.883 135.172 250.336C135.252 252.471 134.787 254.345 133.776 255.958C132.775 257.559 131.283 258.835 129.3 259.784C127.327 260.722 124.921 261.252 122.083 261.375C119.267 261.496 116.797 261.17 114.67 260.397C112.556 259.624 110.877 258.416 109.635 256.775C108.404 255.122 107.706 253.042 107.541 250.535L114.676 250.228C114.806 251.394 115.183 252.356 115.807 253.114C116.442 253.86 117.268 254.41 118.284 254.765C119.311 255.107 120.46 255.251 121.732 255.196C122.981 255.143 124.057 254.914 124.961 254.512C125.876 254.108 126.575 253.572 127.059 252.903C127.542 252.234 127.765 251.479 127.729 250.639C127.695 249.856 127.434 249.207 126.946 248.694C126.469 248.18 125.779 247.754 124.878 247.418C123.987 247.081 122.9 246.786 121.615 246.534L117.776 245.744C114.805 245.155 112.435 244.137 110.667 242.689C108.898 241.241 107.964 239.228 107.865 236.651C107.763 234.539 108.245 232.67 109.312 231.043C110.391 229.416 111.911 228.116 113.871 227.145C115.831 226.173 118.082 225.633 120.625 225.523C123.214 225.412 125.492 225.758 127.46 226.56C129.44 227.362 131.003 228.529 132.149 230.061C133.296 231.592 133.931 233.396 134.054 235.472L126.987 235.776ZM152.265 260.093C149.619 260.207 147.307 259.743 145.329 258.702C143.362 257.649 141.812 256.135 140.681 254.159C139.549 252.172 138.925 249.839 138.81 247.159C138.693 244.457 139.114 242.073 140.072 240.008C141.029 237.93 142.442 236.289 144.313 235.082C146.194 233.864 148.457 233.198 151.102 233.084C153.747 232.97 156.054 233.439 158.021 234.492C160 235.533 161.555 237.047 162.687 239.034C163.818 241.01 164.442 243.349 164.559 246.051C164.674 248.731 164.253 251.109 163.296 253.186C162.338 255.252 160.919 256.894 159.038 258.112C157.168 259.319 154.91 259.979 152.265 260.093ZM152.057 254.472C153.26 254.42 154.25 254.036 155.027 253.32C155.803 252.593 156.37 251.624 156.728 250.415C157.096 249.204 157.248 247.839 157.183 246.317C157.117 244.796 156.849 243.448 156.377 242.274C155.917 241.1 155.269 240.184 154.433 239.526C153.598 238.868 152.578 238.565 151.374 238.617C150.16 238.669 149.153 239.059 148.354 239.788C147.566 240.515 146.988 241.484 146.619 242.694C146.262 243.904 146.116 245.27 146.181 246.791C146.247 248.312 146.51 249.66 146.97 250.835C147.441 252.009 148.1 252.924 148.947 253.582C149.806 254.227 150.842 254.524 152.057 254.472ZM169.834 258.825L168.709 232.667L175.742 232.365L175.938 236.928L176.211 236.917C176.618 235.273 177.365 234.012 178.454 233.135C179.541 232.247 180.818 231.771 182.282 231.708C182.645 231.692 183.038 231.698 183.46 231.725C183.882 231.753 184.254 231.799 184.575 231.865L184.852 238.302C184.507 238.215 184.032 238.144 183.427 238.091C182.822 238.037 182.269 238.021 181.77 238.042C180.703 238.088 179.759 238.362 178.939 238.864C178.13 239.354 177.499 240.018 177.046 240.856C176.604 241.694 176.406 242.647 176.452 243.714L177.089 258.513L169.834 258.825ZM189.457 257.98L188.331 231.823L195.364 231.52L195.561 236.084L195.833 236.072C196.24 234.428 196.988 233.168 198.076 232.291C199.164 231.402 200.44 230.926 201.905 230.863C202.268 230.848 202.661 230.853 203.083 230.881C203.505 230.908 203.876 230.955 204.198 231.02L204.475 237.458C204.13 237.37 203.655 237.3 203.049 237.246C202.444 237.192 201.892 237.176 201.392 237.198C200.325 237.244 199.382 237.518 198.561 238.019C197.752 238.509 197.121 239.173 196.668 240.012C196.226 240.85 196.029 241.802 196.074 242.869L196.711 257.668L189.457 257.98ZM219.804 257.186C217.114 257.302 214.774 256.857 212.786 255.85C210.808 254.832 209.254 253.341 208.123 251.376C206.992 249.4 206.367 247.033 206.248 244.274C206.132 241.583 206.553 239.2 207.51 237.122C208.467 235.045 209.869 233.398 211.716 232.181C213.575 230.964 215.787 230.3 218.352 230.19C220.078 230.115 221.697 230.324 223.208 230.817C224.73 231.297 226.071 232.064 227.231 233.117C228.402 234.17 229.336 235.518 230.032 237.16C230.728 238.79 231.124 240.718 231.22 242.944L231.305 244.936L209.218 245.887L209.024 241.391L224.283 240.734C224.238 239.69 223.971 238.774 223.482 237.988C222.993 237.201 222.336 236.598 221.511 236.179C220.696 235.747 219.761 235.554 218.705 235.6C217.603 235.647 216.638 235.945 215.809 236.492C214.99 237.028 214.361 237.732 213.92 238.604C213.48 239.464 213.276 240.412 213.309 241.445L213.493 245.72C213.549 247.014 213.835 248.122 214.353 249.044C214.881 249.965 215.599 250.662 216.507 251.135C217.415 251.608 218.476 251.818 219.69 251.766C220.497 251.731 221.23 251.586 221.89 251.33C222.55 251.074 223.108 250.709 223.566 250.234C224.023 249.759 224.362 249.187 224.584 248.518L231.313 248.672C231.041 250.299 230.404 251.737 229.4 252.986C228.406 254.223 227.095 255.212 225.467 255.953C223.849 256.682 221.961 257.093 219.804 257.186ZM243.126 240.52L243.777 255.643L236.523 255.955L235.397 229.797L242.311 229.5L242.509 234.115L242.816 234.102C243.33 232.555 244.248 231.31 245.573 230.366C246.896 229.41 248.529 228.891 250.47 228.807C252.287 228.729 253.888 229.058 255.273 229.795C256.658 230.531 257.757 231.622 258.57 233.065C259.382 234.498 259.832 236.23 259.92 238.262L260.637 254.917L253.382 255.229L252.721 239.869C252.663 238.267 252.201 237.036 251.333 236.175C250.466 235.302 249.305 234.897 247.852 234.96C246.876 235.002 246.022 235.249 245.29 235.701C244.571 236.153 244.018 236.791 243.633 237.615C243.258 238.427 243.089 239.396 243.126 240.52ZM283.601 253.929L275.699 254.269L286.238 218.874L295.741 218.465L309.265 252.824L301.363 253.164L291.469 226.633L291.196 226.645L283.601 253.929ZM282.517 240.241L301.182 239.438L301.43 245.194L282.765 245.997L282.517 240.241ZM319.336 217.45L320.837 252.326L313.463 252.644L311.962 217.767L319.336 217.45Z"/>
</mask>
<path d="M126.987 235.776L125.007 236.059L125.263 237.852L127.073 237.775L126.987 235.776ZM117.813 232.332L118.631 234.158L118.642 234.153L118.652 234.148L117.813 232.332ZM115.965 233.794L114.315 232.664L114.308 232.674L114.301 232.684L115.965 233.794ZM115.405 235.831L117.405 235.818L117.404 235.782L117.403 235.745L115.405 235.831ZM115.867 237.449L114.205 238.563L114.215 238.578L114.225 238.592L115.867 237.449ZM117.128 238.606L116.091 240.317L116.104 240.325L116.118 240.333L117.128 238.606ZM118.936 239.399L118.319 241.301L118.333 241.306L118.347 241.31L118.936 239.399ZM121.108 239.919L121.49 237.956L121.475 237.953L121.461 237.951L121.108 239.919ZM124.274 240.534L123.893 242.497L123.907 242.5L123.922 242.503L124.274 240.534ZM128.522 241.716L127.786 243.576L127.786 243.576L128.522 241.716ZM131.916 243.668L133.18 242.119L133.18 242.119L131.916 243.668ZM134.205 246.504L132.421 247.41L132.425 247.417L132.429 247.424L134.205 246.504ZM135.172 250.336L137.17 250.26L137.17 250.247L137.169 250.234L135.172 250.336ZM133.776 255.958L132.081 254.896L132.079 254.898L133.776 255.958ZM129.3 259.784L130.158 261.591L130.163 261.588L129.3 259.784ZM114.67 260.397L113.983 262.275L113.987 262.277L114.67 260.397ZM109.635 256.775L108.031 257.97L108.036 257.976L108.04 257.982L109.635 256.775ZM107.541 250.535L107.455 248.537L105.411 248.625L105.545 250.666L107.541 250.535ZM114.676 250.228L116.664 250.007L116.457 248.15L114.59 248.23L114.676 250.228ZM115.807 253.114L114.263 254.385L114.274 254.398L114.284 254.41L115.807 253.114ZM118.284 254.765L117.625 256.653L117.638 256.658L117.651 256.662L118.284 254.765ZM124.961 254.512L124.154 252.681L124.147 252.685L124.961 254.512ZM127.059 252.903L128.68 254.073L128.68 254.073L127.059 252.903ZM126.946 248.694L125.48 250.054L125.488 250.063L125.496 250.072L126.946 248.694ZM124.878 247.418L124.169 249.288L124.178 249.291L124.878 247.418ZM121.615 246.534L121.212 248.493L121.221 248.495L121.23 248.497L121.615 246.534ZM117.776 245.744L118.18 243.785L118.172 243.784L118.165 243.782L117.776 245.744ZM110.667 242.689L109.4 244.237L109.4 244.237L110.667 242.689ZM107.865 236.651L109.863 236.573L109.863 236.564L109.862 236.554L107.865 236.651ZM109.312 231.043L107.645 229.938L107.64 229.946L109.312 231.043ZM127.46 226.56L126.705 228.412L126.709 228.414L127.46 226.56ZM132.149 230.061L130.548 231.259L130.548 231.259L132.149 230.061ZM134.054 235.472L134.14 237.47L136.171 237.383L136.051 235.354L134.054 235.472ZM126.987 235.776L128.967 235.494C128.698 233.613 127.785 232.048 126.21 230.99L125.095 232.65L123.98 234.31C124.537 234.685 124.885 235.204 125.007 236.059L126.987 235.776ZM125.095 232.65L126.21 230.99C124.678 229.961 122.792 229.604 120.754 229.692L120.84 231.69L120.926 233.689C122.429 233.624 123.38 233.908 123.98 234.31L125.095 232.65ZM120.84 231.69L120.754 229.692C119.374 229.752 118.091 230.001 116.974 230.517L117.813 232.332L118.652 234.148C119.164 233.912 119.898 233.733 120.926 233.689L120.84 231.69ZM117.813 232.332L116.996 230.507C115.915 230.991 114.98 231.693 114.315 232.664L115.965 233.794L117.615 234.924C117.785 234.676 118.082 234.404 118.631 234.158L117.813 232.332ZM115.965 233.794L114.301 232.684C113.654 233.656 113.357 234.755 113.407 235.917L115.405 235.831L117.403 235.745C117.388 235.409 117.465 235.15 117.629 234.903L115.965 233.794ZM115.405 235.831L113.405 235.845C113.411 236.803 113.653 237.738 114.205 238.563L115.867 237.449L117.528 236.336C117.473 236.254 117.407 236.11 117.405 235.818L115.405 235.831ZM115.867 237.449L114.225 238.592C114.717 239.299 115.354 239.87 116.091 240.317L117.128 238.606L118.165 236.896C117.851 236.706 117.646 236.505 117.508 236.307L115.867 237.449ZM117.128 238.606L116.118 240.333C116.786 240.724 117.525 241.043 118.319 241.301L118.936 239.399L119.554 237.496C118.987 237.312 118.519 237.103 118.138 236.88L117.128 238.606ZM118.936 239.399L118.347 241.31C119.112 241.546 119.915 241.738 120.756 241.888L121.108 239.919L121.461 237.951C120.765 237.826 120.121 237.671 119.525 237.487L118.936 239.399ZM121.108 239.919L120.727 241.883L123.893 242.497L124.274 240.534L124.655 238.57L121.49 237.956L121.108 239.919ZM124.274 240.534L123.922 242.503C125.342 242.757 126.628 243.117 127.786 243.576L128.522 241.716L129.258 239.856C127.825 239.289 126.279 238.861 124.627 238.565L124.274 240.534ZM128.522 241.716L127.786 243.576C128.913 244.022 129.862 244.573 130.652 245.218L131.916 243.668L133.18 242.119C132.037 241.186 130.723 240.436 129.258 239.856L128.522 241.716ZM131.916 243.668L130.652 245.218C131.404 245.832 131.99 246.559 132.421 247.41L134.205 246.504L135.988 245.599C135.302 244.246 134.361 243.082 133.18 242.119L131.916 243.668ZM134.205 246.504L132.429 247.424C132.847 248.232 133.112 249.221 133.174 250.437L135.172 250.336L137.169 250.234C137.083 248.545 136.704 246.98 135.981 245.584L134.205 246.504ZM135.172 250.336L133.173 250.411C133.24 252.196 132.853 253.663 132.081 254.896L133.776 255.958L135.47 257.02C136.72 255.026 137.264 252.745 137.17 250.26L135.172 250.336ZM133.776 255.958L132.079 254.898C131.312 256.127 130.135 257.167 128.436 257.981L129.3 259.784L130.163 261.588C132.432 260.502 134.239 258.991 135.472 257.017L133.776 255.958ZM129.3 259.784L128.441 257.978C126.771 258.772 124.644 259.263 121.997 259.376L122.083 261.375L122.169 263.373C125.198 263.242 127.883 262.673 130.158 261.591L129.3 259.784ZM122.083 261.375L121.997 259.376C119.381 259.489 117.181 259.182 115.354 258.517L114.67 260.397L113.987 262.277C116.412 263.158 119.154 263.502 122.169 263.373L122.083 261.375ZM114.67 260.397L115.357 258.519C113.568 257.864 112.218 256.874 111.23 255.568L109.635 256.775L108.04 257.982C109.536 259.958 111.543 261.383 113.983 262.275L114.67 260.397ZM109.635 256.775L111.239 255.58C110.284 254.298 109.682 252.611 109.537 250.404L107.541 250.535L105.545 250.666C105.73 253.473 106.523 255.945 108.031 257.97L109.635 256.775ZM107.541 250.535L107.627 252.533L114.762 252.226L114.676 250.228L114.59 248.23L107.455 248.537L107.541 250.535ZM114.676 250.228L112.689 250.449C112.853 251.925 113.348 253.274 114.263 254.385L115.807 253.114L117.351 251.843C117.018 251.439 116.759 250.863 116.664 250.007L114.676 250.228ZM115.807 253.114L114.284 254.41C115.172 255.453 116.307 256.194 117.625 256.653L118.284 254.765L118.942 252.876C118.228 252.627 117.713 252.267 117.33 251.818L115.807 253.114ZM118.284 254.765L117.651 256.662C118.946 257.094 120.344 257.258 121.818 257.195L121.732 255.196L121.646 253.198C120.576 253.244 119.676 253.121 118.917 252.868L118.284 254.765ZM121.732 255.196L121.818 257.195C123.254 257.133 124.59 256.867 125.775 256.338L124.961 254.512L124.147 252.685C123.524 252.962 122.707 253.153 121.646 253.198L121.732 255.196ZM124.961 254.512L125.768 256.342C126.939 255.825 127.949 255.087 128.68 254.073L127.059 252.903L125.437 251.732C125.202 252.057 124.813 252.391 124.154 252.681L124.961 254.512ZM127.059 252.903L128.68 254.073C129.432 253.032 129.782 251.833 129.727 250.553L127.729 250.639L125.731 250.725C125.748 251.125 125.651 251.435 125.437 251.732L127.059 252.903ZM127.729 250.639L129.727 250.553C129.675 249.342 129.253 248.217 128.395 247.315L126.946 248.694L125.496 250.072C125.616 250.197 125.715 250.369 125.731 250.725L127.729 250.639ZM126.946 248.694L128.412 247.333C127.659 246.522 126.668 245.951 125.577 245.544L124.878 247.418L124.178 249.291C124.891 249.557 125.279 249.837 125.48 250.054L126.946 248.694ZM124.878 247.418L125.586 245.547C124.56 245.159 123.357 244.838 122 244.572L121.615 246.534L121.23 248.497C122.443 248.735 123.415 249.002 124.169 249.288L124.878 247.418ZM121.615 246.534L122.018 244.575L118.18 243.785L117.776 245.744L117.373 247.703L121.212 248.493L121.615 246.534ZM117.776 245.744L118.165 243.782C115.415 243.237 113.379 242.325 111.934 241.142L110.667 242.689L109.4 244.237C111.492 245.949 114.195 247.073 117.388 247.706L117.776 245.744ZM110.667 242.689L111.934 241.142C110.668 240.105 109.944 238.661 109.863 236.573L107.865 236.651L105.866 236.728C105.985 239.796 107.129 242.377 109.4 244.237L110.667 242.689ZM107.865 236.651L109.862 236.554C109.779 234.827 110.17 233.383 110.985 232.14L109.312 231.043L107.64 229.946C106.321 231.958 105.746 234.252 105.867 236.747L107.865 236.651ZM109.312 231.043L110.98 232.148C111.841 230.849 113.076 229.771 114.759 228.937L113.871 227.145L112.982 225.353C110.746 226.462 108.941 227.983 107.645 229.938L109.312 231.043ZM113.871 227.145L114.759 228.937C116.431 228.108 118.402 227.621 120.711 227.522L120.625 225.523L120.539 223.525C117.763 223.645 115.23 224.239 112.982 225.353L113.871 227.145ZM120.625 225.523L120.711 227.522C123.074 227.42 125.055 227.739 126.705 228.412L127.46 226.56L128.215 224.708C125.929 223.776 123.354 223.404 120.539 223.525L120.625 225.523ZM127.46 226.56L126.709 228.414C128.391 229.095 129.645 230.052 130.548 231.259L132.149 230.061L133.75 228.862C132.361 227.006 130.488 225.629 128.211 224.706L127.46 226.56ZM132.149 230.061L130.548 231.259C131.44 232.45 131.955 233.87 132.058 235.591L134.054 235.472L136.051 235.354C135.906 232.922 135.152 230.735 133.75 228.862L132.149 230.061ZM134.054 235.472L133.968 233.474L126.901 233.778L126.987 235.776L127.073 237.775L134.14 237.47L134.054 235.472ZM145.329 258.702L144.385 260.466L144.398 260.472L145.329 258.702ZM140.681 254.159L138.943 255.149L138.945 255.153L140.681 254.159ZM140.072 240.008L141.886 240.849L141.888 240.844L140.072 240.008ZM144.313 235.082L145.397 236.763L145.4 236.761L144.313 235.082ZM158.021 234.492L157.078 236.256L157.09 236.262L158.021 234.492ZM162.687 239.034L160.949 240.024L160.951 240.028L162.687 239.034ZM163.296 253.186L165.111 254.027L165.112 254.023L163.296 253.186ZM159.038 258.112L160.122 259.793L160.125 259.791L159.038 258.112ZM155.027 253.32L156.382 254.791L156.388 254.785L156.394 254.78L155.027 253.32ZM156.728 250.415L154.814 249.832L154.812 249.84L154.81 249.848L156.728 250.415ZM156.377 242.274L154.515 243.004L154.518 243.012L154.521 243.02L156.377 242.274ZM148.354 239.788L147.007 238.309L146.997 238.319L148.354 239.788ZM146.619 242.694L144.706 242.111L144.704 242.12L144.701 242.128L146.619 242.694ZM146.97 250.835L145.107 251.564L145.11 251.572L145.114 251.58L146.97 250.835ZM148.947 253.582L147.721 255.162L147.733 255.171L147.745 255.18L148.947 253.582ZM152.265 260.093L152.179 258.095C149.821 258.196 147.872 257.78 146.26 256.932L145.329 258.702L144.398 260.472C146.742 261.706 149.418 262.217 152.351 262.091L152.265 260.093ZM145.329 258.702L146.273 256.939C144.643 256.067 143.365 254.822 142.416 253.165L140.681 254.159L138.945 255.153C140.259 257.448 142.08 259.232 144.386 260.466L145.329 258.702ZM140.681 254.159L142.418 253.169C141.469 251.502 140.912 249.49 140.808 247.073L138.81 247.159L136.812 247.245C136.938 250.188 137.628 252.842 138.943 255.149L140.681 254.159ZM138.81 247.159L140.808 247.073C140.703 244.631 141.086 242.575 141.886 240.849L140.072 240.008L138.257 239.166C137.142 241.572 136.684 244.284 136.812 247.245L138.81 247.159ZM140.072 240.008L141.888 240.844C142.691 239.102 143.855 237.757 145.397 236.763L144.313 235.082L143.228 233.401C141.03 234.82 139.366 236.758 138.255 239.171L140.072 240.008ZM144.313 235.082L145.4 236.761C146.931 235.769 148.834 235.183 151.188 235.082L151.102 233.084L151.016 231.086C148.08 231.212 145.456 231.959 143.225 233.403L144.313 235.082ZM151.102 233.084L151.188 235.082C153.543 234.981 155.481 235.401 157.078 236.255L158.021 234.492L158.965 232.729C156.627 231.478 153.952 230.959 151.016 231.086L151.102 233.084ZM158.021 234.492L157.09 236.262C158.723 237.121 160.001 238.36 160.949 240.024L162.687 239.034L164.425 238.044C163.109 235.734 161.277 233.945 158.953 232.722L158.021 234.492ZM162.687 239.034L160.951 240.028C161.897 241.679 162.455 243.695 162.56 246.137L164.559 246.051L166.557 245.965C166.429 243.004 165.74 240.341 164.423 238.04L162.687 239.034ZM164.559 246.051L162.56 246.137C162.664 248.554 162.282 250.607 161.48 252.349L163.296 253.186L165.112 254.023C166.224 251.611 166.683 248.907 166.557 245.965L164.559 246.051ZM163.296 253.186L161.481 252.345C160.68 254.074 159.51 255.424 157.951 256.434L159.038 258.112L160.125 259.791C162.328 258.364 163.997 256.429 165.111 254.027L163.296 253.186ZM159.038 258.112L157.954 256.432C156.434 257.412 154.536 257.993 152.179 258.095L152.265 260.093L152.351 262.091C155.283 261.965 157.901 261.226 160.122 259.793L159.038 258.112ZM152.057 254.472L152.143 256.47C153.748 256.401 155.21 255.871 156.382 254.791L155.027 253.32L153.672 251.849C153.291 252.2 152.772 252.439 151.971 252.473L152.057 254.472ZM155.027 253.32L156.394 254.78C157.475 253.767 158.206 252.469 158.646 250.981L156.728 250.415L154.81 249.848C154.534 250.78 154.132 251.418 153.66 251.86L155.027 253.32ZM156.728 250.415L158.641 250.998C159.087 249.532 159.254 247.934 159.181 246.231L157.183 246.317L155.184 246.403C155.242 247.743 155.105 248.877 154.814 249.832L156.728 250.415ZM157.183 246.317L159.181 246.231C159.107 244.529 158.804 242.951 158.233 241.529L156.377 242.274L154.521 243.02C154.893 243.946 155.127 245.064 155.184 246.403L157.183 246.317ZM156.377 242.274L158.24 241.545C157.674 240.101 156.834 238.87 155.67 237.954L154.433 239.526L153.197 241.098C153.705 241.498 154.161 242.099 154.515 243.004L156.377 242.274ZM154.433 239.526L155.67 237.954C154.409 236.961 152.902 236.549 151.288 236.619L151.374 238.617L151.46 240.615C152.253 240.581 152.786 240.775 153.197 241.098L154.433 239.526ZM151.374 238.617L151.288 236.619C149.667 236.688 148.195 237.226 147.007 238.309L148.354 239.788L149.701 241.266C150.11 240.893 150.652 240.65 151.46 240.615L151.374 238.617ZM148.354 239.788L146.997 238.319C145.905 239.327 145.16 240.623 144.706 242.111L146.619 242.694L148.532 243.277C148.816 242.345 149.228 241.703 149.711 241.257L148.354 239.788ZM146.619 242.694L144.701 242.128C144.27 243.588 144.11 245.179 144.183 246.877L146.181 246.791L148.179 246.705C148.122 245.36 148.254 244.22 148.537 243.261L146.619 242.694ZM146.181 246.791L144.183 246.877C144.256 248.574 144.552 250.146 145.107 251.564L146.97 250.835L148.832 250.105C148.467 249.174 148.237 248.05 148.179 246.705L146.181 246.791ZM146.97 250.835L145.114 251.58C145.693 253.023 146.547 254.251 147.721 255.162L148.947 253.582L150.173 252.001C149.653 251.598 149.189 250.994 148.826 250.089L146.97 250.835ZM148.947 253.582L147.745 255.18C149.022 256.141 150.53 256.539 152.143 256.47L152.057 254.472L151.971 252.473C151.154 252.509 150.589 252.314 150.15 251.983L148.947 253.582ZM169.834 258.825L167.836 258.911L167.922 260.909L169.92 260.823L169.834 258.825ZM168.709 232.667L168.623 230.669L166.624 230.755L166.71 232.753L168.709 232.667ZM175.742 232.365L177.74 232.279L177.654 230.28L175.656 230.366L175.742 232.365ZM175.938 236.928L173.94 237.014L174.026 239.013L176.024 238.927L175.938 236.928ZM176.211 236.917L176.297 238.915L177.792 238.851L178.152 237.397L176.211 236.917ZM178.454 233.135L179.709 234.692L179.719 234.684L178.454 233.135ZM183.46 231.725L183.589 229.729L183.589 229.729L183.46 231.725ZM184.575 231.865L186.573 231.779L186.506 230.219L184.976 229.906L184.575 231.865ZM184.852 238.302L184.36 240.241L186.966 240.902L186.85 238.216L184.852 238.302ZM178.939 238.864L179.975 240.575L179.983 240.57L178.939 238.864ZM177.046 240.856L175.286 239.905L175.281 239.914L175.276 239.924L177.046 240.856ZM177.089 258.513L177.175 260.511L179.173 260.425L179.087 258.427L177.089 258.513ZM169.834 258.825L171.832 258.739L170.707 232.581L168.709 232.667L166.71 232.753L167.836 258.911L169.834 258.825ZM168.709 232.667L168.795 234.665L175.828 234.363L175.742 232.365L175.656 230.366L168.623 230.669L168.709 232.667ZM175.742 232.365L173.744 232.451L173.94 237.014L175.938 236.928L177.936 236.842L177.74 232.279L175.742 232.365ZM175.938 236.928L176.024 238.927L176.297 238.915L176.211 236.917L176.125 234.919L175.852 234.93L175.938 236.928ZM176.211 236.917L178.152 237.397C178.477 236.085 179.028 235.241 179.709 234.692L178.454 233.135L177.199 231.578C175.703 232.783 174.758 234.46 174.269 236.436L176.211 236.917ZM178.454 233.135L179.719 234.684C180.457 234.081 181.315 233.751 182.368 233.706L182.282 231.708L182.196 229.71C180.32 229.79 178.626 230.412 177.188 231.586L178.454 233.135ZM182.282 231.708L182.368 233.706C182.649 233.694 182.969 233.698 183.331 233.721L183.46 231.725L183.589 229.729C183.107 229.698 182.642 229.69 182.196 229.71L182.282 231.708ZM183.46 231.725L183.331 233.721C183.686 233.744 183.964 233.781 184.174 233.824L184.575 231.865L184.976 229.906C184.544 229.817 184.078 229.761 183.589 229.729L183.46 231.725ZM184.575 231.865L182.577 231.951L182.854 238.388L184.852 238.302L186.85 238.216L186.573 231.779L184.575 231.865ZM184.852 238.302L185.344 236.364C184.848 236.238 184.252 236.156 183.603 236.098L183.427 238.091L183.251 240.083C183.812 240.132 184.166 240.191 184.36 240.241L184.852 238.302ZM183.427 238.091L183.603 236.098C182.929 236.039 182.287 236.018 181.684 236.044L181.77 238.042L181.856 240.041C182.252 240.024 182.715 240.035 183.251 240.083L183.427 238.091ZM181.77 238.042L181.684 236.044C180.316 236.103 179.036 236.46 177.895 237.158L178.939 238.864L179.983 240.57C180.482 240.264 181.089 240.074 181.856 240.041L181.77 238.042ZM178.939 238.864L177.903 237.153C176.787 237.828 175.907 238.756 175.286 239.905L177.046 240.856L178.805 241.807C179.09 241.279 179.472 240.879 179.975 240.575L178.939 238.864ZM177.046 240.856L175.276 239.924C174.649 241.113 174.395 242.425 174.454 243.8L176.452 243.714L178.45 243.628C178.417 242.868 178.559 242.275 178.815 241.789L177.046 240.856ZM176.452 243.714L174.454 243.8L175.091 258.599L177.089 258.513L179.087 258.427L178.45 243.628L176.452 243.714ZM177.089 258.513L177.003 256.514L169.748 256.827L169.834 258.825L169.92 260.823L177.175 260.511L177.089 258.513ZM189.457 257.98L187.459 258.066L187.545 260.064L189.543 259.978L189.457 257.98ZM188.331 231.823L188.245 229.825L186.247 229.911L186.333 231.909L188.331 231.823ZM195.364 231.52L197.362 231.434L197.276 229.436L195.278 229.522L195.364 231.52ZM195.561 236.084L193.563 236.17L193.649 238.168L195.647 238.082L195.561 236.084ZM195.833 236.072L195.919 238.07L197.415 238.006L197.775 236.553L195.833 236.072ZM198.076 232.291L199.331 233.848L199.341 233.84L198.076 232.291ZM203.083 230.881L203.212 228.885L203.212 228.885L203.083 230.881ZM204.198 231.02L206.196 230.934L206.129 229.374L204.599 229.061L204.198 231.02ZM204.475 237.458L203.983 239.396L206.588 240.057L206.473 237.372L204.475 237.458ZM198.561 238.019L199.597 239.73L199.605 239.725L198.561 238.019ZM196.668 240.012L194.908 239.061L194.904 239.07L194.899 239.079L196.668 240.012ZM196.711 257.668L196.797 259.666L198.795 259.58L198.71 257.582L196.711 257.668ZM189.457 257.98L191.455 257.894L190.329 231.737L188.331 231.823L186.333 231.909L187.459 258.066L189.457 257.98ZM188.331 231.823L188.417 233.821L195.45 233.518L195.364 231.52L195.278 229.522L188.245 229.825L188.331 231.823ZM195.364 231.52L193.366 231.606L193.563 236.17L195.561 236.084L197.559 235.998L197.362 231.434L195.364 231.52ZM195.561 236.084L195.647 238.082L195.919 238.07L195.833 236.072L195.747 234.074L195.475 234.086L195.561 236.084ZM195.833 236.072L197.775 236.553C198.099 235.241 198.65 234.396 199.331 233.848L198.076 232.291L196.821 230.733C195.325 231.939 194.381 233.616 193.892 235.592L195.833 236.072ZM198.076 232.291L199.341 233.84C200.079 233.237 200.937 232.907 201.991 232.861L201.905 230.863L201.819 228.865C199.943 228.946 198.248 229.568 196.811 230.742L198.076 232.291ZM201.905 230.863L201.991 232.861C202.272 232.849 202.592 232.853 202.953 232.877L203.083 230.881L203.212 228.885C202.729 228.854 202.264 228.846 201.819 228.865L201.905 230.863ZM203.083 230.881L202.953 232.877C203.309 232.9 203.586 232.937 203.796 232.98L204.198 231.02L204.599 229.061C204.166 228.973 203.701 228.917 203.212 228.885L203.083 230.881ZM204.198 231.02L202.199 231.106L202.476 237.544L204.475 237.458L206.473 237.372L206.196 230.934L204.198 231.02ZM204.475 237.458L204.966 235.519C204.471 235.393 203.874 235.311 203.226 235.254L203.049 237.246L202.873 239.238C203.435 239.288 203.789 239.347 203.983 239.396L204.475 237.458ZM203.049 237.246L203.226 235.254C202.551 235.194 201.91 235.174 201.306 235.2L201.392 237.198L201.478 239.196C201.874 239.179 202.337 239.191 202.873 239.238L203.049 237.246ZM201.392 237.198L201.306 235.2C199.939 235.259 198.658 235.616 197.518 236.313L198.561 238.019L199.605 239.725C200.105 239.42 200.712 239.229 201.478 239.196L201.392 237.198ZM198.561 238.019L197.526 236.308C196.409 236.984 195.529 237.912 194.908 239.061L196.668 240.012L198.428 240.962C198.713 240.435 199.095 240.034 199.597 239.73L198.561 238.019ZM196.668 240.012L194.899 239.079C194.272 240.269 194.017 241.58 194.076 242.955L196.074 242.869L198.073 242.783C198.04 242.024 198.181 241.43 198.437 240.944L196.668 240.012ZM196.074 242.869L194.076 242.955L194.713 257.754L196.711 257.668L198.71 257.582L198.073 242.783L196.074 242.869ZM196.711 257.668L196.625 255.67L189.371 255.982L189.457 257.98L189.543 259.978L196.797 259.666L196.711 257.668ZM212.786 255.85L211.87 257.628L211.883 257.635L212.786 255.85ZM208.123 251.376L206.388 252.37L206.39 252.374L208.123 251.376ZM207.51 237.122L205.693 236.285L205.693 236.285L207.51 237.122ZM211.716 232.181L210.62 230.508L210.616 230.511L211.716 232.181ZM223.208 230.817L222.588 232.718L222.597 232.721L222.606 232.724L223.208 230.817ZM227.231 233.117L225.886 234.598L225.894 234.605L227.231 233.117ZM230.032 237.16L228.191 237.94L228.193 237.945L230.032 237.16ZM231.305 244.936L231.391 246.934L233.389 246.848L233.303 244.85L231.305 244.936ZM209.218 245.887L207.22 245.973L207.306 247.971L209.304 247.885L209.218 245.887ZM209.024 241.391L208.938 239.393L206.94 239.479L207.026 241.477L209.024 241.391ZM224.283 240.734L224.369 242.732L226.367 242.646L226.281 240.648L224.283 240.734ZM223.482 237.988L221.784 239.043L221.784 239.043L223.482 237.988ZM221.511 236.179L220.575 237.946L220.59 237.954L220.605 237.962L221.511 236.179ZM215.809 236.492L216.904 238.166L216.91 238.161L215.809 236.492ZM213.92 238.604L215.701 239.515L215.706 239.505L213.92 238.604ZM213.309 241.445L211.31 241.509L211.31 241.52L211.311 241.531L213.309 241.445ZM214.353 249.044L212.609 250.023L212.613 250.031L212.618 250.039L214.353 249.044ZM221.89 251.33L221.167 249.465L221.167 249.465L221.89 251.33ZM223.566 250.234L222.125 248.846L222.125 248.846L223.566 250.234ZM224.584 248.518L224.63 246.519L223.15 246.485L222.685 247.89L224.584 248.518ZM231.313 248.672L233.285 249.001L233.665 246.725L231.358 246.673L231.313 248.672ZM229.4 252.986L227.841 251.732L227.84 251.733L229.4 252.986ZM225.467 255.953L226.289 257.776L226.295 257.773L225.467 255.953ZM219.804 257.186L219.718 255.188C217.299 255.292 215.314 254.888 213.689 254.066L212.786 255.85L211.883 257.635C214.235 258.825 216.928 259.312 219.89 259.184L219.804 257.186ZM212.786 255.85L213.701 254.072C212.073 253.234 210.8 252.016 209.857 250.378L208.123 251.376L206.39 252.374C207.709 254.665 209.544 256.431 211.87 257.628L212.786 255.85ZM208.123 251.376L209.859 250.382C208.917 248.737 208.354 246.695 208.246 244.188L206.248 244.274L204.25 244.36C204.379 247.371 205.067 250.064 206.388 252.37L208.123 251.376ZM206.248 244.274L208.246 244.188C208.142 241.759 208.524 239.7 209.326 237.959L207.51 237.122L205.693 236.285C204.582 238.699 204.123 241.408 204.25 244.36L206.248 244.274ZM207.51 237.122L209.326 237.959C210.133 236.209 211.292 234.856 212.816 233.851L211.716 232.181L210.616 230.511C208.446 231.941 206.801 233.881 205.693 236.285L207.51 237.122ZM211.716 232.181L212.812 233.854C214.325 232.863 216.175 232.285 218.438 232.188L218.352 230.19L218.266 228.191C215.398 228.315 212.824 229.064 210.62 230.508L211.716 232.181ZM218.352 230.19L218.438 232.188C219.946 232.123 221.324 232.306 222.588 232.718L223.208 230.817L223.827 228.915C222.07 228.342 220.21 228.108 218.266 228.191L218.352 230.19ZM223.208 230.817L222.606 232.724C223.858 233.119 224.944 233.742 225.886 234.598L227.231 233.117L228.575 231.637C227.198 230.385 225.602 229.475 223.81 228.909L223.208 230.817ZM227.231 233.117L225.894 234.605C226.82 235.437 227.594 236.532 228.191 237.94L230.032 237.16L231.874 236.379C231.078 234.503 229.984 232.903 228.568 231.63L227.231 233.117ZM230.032 237.16L228.193 237.945C228.773 239.305 229.133 240.986 229.221 243.03L231.22 242.944L233.218 242.858C233.114 240.451 232.683 238.276 231.872 236.375L230.032 237.16ZM231.22 242.944L229.221 243.03L229.307 245.022L231.305 244.936L233.303 244.85L233.218 242.858L231.22 242.944ZM231.305 244.936L231.219 242.938L209.132 243.888L209.218 245.887L209.304 247.885L231.391 246.934L231.305 244.936ZM209.218 245.887L211.216 245.801L211.022 241.305L209.024 241.391L207.026 241.477L207.22 245.973L209.218 245.887ZM209.024 241.391L209.11 243.389L224.369 242.732L224.283 240.734L224.197 238.736L208.938 239.393L209.024 241.391ZM224.283 240.734L226.281 240.648C226.223 239.305 225.874 238.047 225.181 236.932L223.482 237.988L221.784 239.043C222.068 239.502 222.253 240.074 222.285 240.82L224.283 240.734ZM223.482 237.988L225.181 236.932C224.499 235.835 223.568 234.98 222.416 234.395L221.511 236.179L220.605 237.962C221.105 238.216 221.488 238.567 221.784 239.043L223.482 237.988ZM221.511 236.179L222.446 234.411C221.274 233.79 219.977 233.543 218.619 233.602L218.705 235.6L218.791 237.598C219.544 237.566 220.118 237.704 220.575 237.946L221.511 236.179ZM218.705 235.6L218.619 233.602C217.196 233.663 215.871 234.055 214.707 234.823L215.809 236.492L216.91 238.161C217.405 237.835 218.011 237.632 218.791 237.598L218.705 235.6ZM215.809 236.492L214.713 234.819C213.601 235.546 212.734 236.516 212.135 237.702L213.92 238.604L215.706 239.505C215.987 238.947 216.379 238.509 216.904 238.166L215.809 236.492ZM213.92 238.604L212.14 237.692C211.534 238.875 211.267 240.161 211.31 241.509L213.309 241.445L215.308 241.381C215.285 240.662 215.425 240.054 215.701 239.515L213.92 238.604ZM213.309 241.445L211.311 241.531L211.495 245.806L213.493 245.72L215.491 245.634L215.307 241.359L213.309 241.445ZM213.493 245.72L211.495 245.806C211.561 247.344 211.907 248.772 212.609 250.023L214.353 249.044L216.097 248.065C215.764 247.471 215.536 246.684 215.491 245.634L213.493 245.72ZM214.353 249.044L212.618 250.039C213.329 251.279 214.323 252.252 215.583 252.909L216.507 251.135L217.431 249.361C216.876 249.072 216.433 248.651 216.087 248.048L214.353 249.044ZM216.507 251.135L215.583 252.909C216.856 253.572 218.277 253.828 219.776 253.764L219.69 251.766L219.604 249.767C218.674 249.807 217.973 249.644 217.431 249.361L216.507 251.135ZM219.69 251.766L219.776 253.764C220.771 253.721 221.723 253.539 222.613 253.194L221.89 251.33L221.167 249.465C220.737 249.632 220.222 249.741 219.604 249.767L219.69 251.766ZM221.89 251.33L222.613 253.194C223.523 252.841 224.332 252.321 225.006 251.622L223.566 250.234L222.125 248.846C221.884 249.096 221.576 249.306 221.167 249.465L221.89 251.33ZM223.566 250.234L225.006 251.622C225.685 250.916 226.174 250.08 226.483 249.146L224.584 248.518L222.685 247.89C222.551 248.295 222.361 248.602 222.125 248.846L223.566 250.234ZM224.584 248.518L224.538 250.518L231.267 250.672L231.313 248.672L231.358 246.673L224.63 246.519L224.584 248.518ZM231.313 248.672L229.34 248.343C229.123 249.642 228.623 250.759 227.841 251.732L229.4 252.986L230.958 254.239C232.184 252.714 232.959 250.956 233.285 249.001L231.313 248.672ZM229.4 252.986L227.84 251.733C227.067 252.697 226.019 253.504 224.638 254.133L225.467 255.953L226.295 257.773C228.172 256.919 229.746 255.748 230.959 254.238L229.4 252.986ZM225.467 255.953L224.645 254.13C223.303 254.734 221.675 255.104 219.718 255.188L219.804 257.186L219.89 259.184C222.248 259.083 224.395 258.63 226.289 257.776L225.467 255.953ZM243.126 240.52L241.127 240.586L241.128 240.596L241.128 240.606L243.126 240.52ZM243.777 255.643L243.863 257.641L245.861 257.555L245.775 255.557L243.777 255.643ZM236.523 255.955L234.524 256.041L234.61 258.039L236.609 257.953L236.523 255.955ZM235.397 229.797L235.311 227.799L233.313 227.885L233.399 229.883L235.397 229.797ZM242.311 229.5L244.309 229.414L244.223 227.416L242.225 227.502L242.311 229.5ZM242.509 234.115L240.511 234.201L240.597 236.199L242.595 236.113L242.509 234.115ZM242.816 234.102L242.902 236.1L244.279 236.04L244.714 234.732L242.816 234.102ZM245.573 230.366L246.734 231.994L246.743 231.988L245.573 230.366ZM258.57 233.065L256.827 234.046L256.83 234.052L258.57 233.065ZM260.637 254.917L260.723 256.915L262.721 256.829L262.635 254.831L260.637 254.917ZM253.382 255.229L251.384 255.315L251.47 257.313L253.468 257.227L253.382 255.229ZM252.721 239.869L250.722 239.94L250.722 239.947L250.723 239.954L252.721 239.869ZM251.333 236.175L249.915 237.585L249.924 237.594L251.333 236.175ZM245.29 235.701L244.238 234L244.227 234.007L245.29 235.701ZM243.633 237.615L241.821 236.768L241.816 236.778L243.633 237.615ZM243.126 240.52L241.128 240.606L241.779 255.729L243.777 255.643L245.775 255.557L245.125 240.434L243.126 240.52ZM243.777 255.643L243.691 253.644L236.437 253.957L236.523 255.955L236.609 257.953L243.863 257.641L243.777 255.643ZM236.523 255.955L238.521 255.869L237.395 229.711L235.397 229.797L233.399 229.883L234.524 256.041L236.523 255.955ZM235.397 229.797L235.483 231.795L242.397 231.498L242.311 229.5L242.225 227.502L235.311 227.799L235.397 229.797ZM242.311 229.5L240.313 229.586L240.511 234.201L242.509 234.115L244.508 234.029L244.309 229.414L242.311 229.5ZM242.509 234.115L242.595 236.113L242.902 236.1L242.816 234.102L242.73 232.103L242.423 232.117L242.509 234.115ZM242.816 234.102L244.714 234.732C245.094 233.587 245.755 232.692 246.734 231.994L245.573 230.366L244.412 228.737C242.741 229.928 241.565 231.523 240.918 233.471L242.816 234.102ZM245.573 230.366L246.743 231.988C247.694 231.301 248.93 230.875 250.556 230.805L250.47 228.807L250.384 226.809C248.128 226.906 246.099 227.519 244.402 228.744L245.573 230.366ZM250.47 228.807L250.556 230.805C252.074 230.74 253.311 231.017 254.334 231.561L255.273 229.795L256.212 228.029C254.465 227.1 252.5 226.718 250.384 226.809L250.47 228.807ZM255.273 229.795L254.334 231.561C255.363 232.108 256.191 232.916 256.827 234.046L258.57 233.065L260.313 232.084C259.324 230.327 257.954 228.955 256.212 228.029L255.273 229.795ZM258.57 233.065L256.83 234.052C257.454 235.151 257.845 236.559 257.922 238.348L259.92 238.262L261.918 238.176C261.82 235.901 261.311 233.844 260.31 232.079L258.57 233.065ZM259.92 238.262L257.922 238.348L258.638 255.003L260.637 254.917L262.635 254.831L261.918 238.176L259.92 238.262ZM260.637 254.917L260.551 252.919L253.296 253.231L253.382 255.229L253.468 257.227L260.723 256.915L260.637 254.917ZM253.382 255.229L255.38 255.143L254.719 239.783L252.721 239.869L250.723 239.954L251.384 255.315L253.382 255.229ZM252.721 239.869L254.72 239.797C254.65 237.85 254.071 236.075 252.743 234.756L251.333 236.175L249.924 237.594C250.33 237.997 250.677 238.684 250.722 239.94L252.721 239.869ZM251.333 236.175L252.752 234.764C251.415 233.42 249.669 232.88 247.766 232.962L247.852 234.96L247.938 236.958C248.941 236.915 249.516 237.184 249.915 237.585L251.333 236.175ZM247.852 234.96L247.766 232.962C246.495 233.016 245.299 233.344 244.238 234L245.29 235.701L246.343 237.402C246.745 237.153 247.256 236.987 247.938 236.958L247.852 234.96ZM245.29 235.701L244.227 234.007C243.158 234.678 242.357 235.621 241.821 236.768L243.633 237.615L245.444 238.462C245.679 237.961 245.983 237.628 246.354 237.395L245.29 235.701ZM243.633 237.615L241.816 236.778C241.282 237.936 241.083 239.229 241.127 240.586L243.126 240.52L245.125 240.454C245.096 239.563 245.234 238.919 245.449 238.453L243.633 237.615ZM283.601 253.929L283.687 255.927L285.138 255.864L285.528 254.465L283.601 253.929ZM275.699 254.269L273.782 253.698L272.982 256.388L275.785 256.267L275.699 254.269ZM286.238 218.874L286.152 216.876L284.728 216.937L284.322 218.303L286.238 218.874ZM295.741 218.465L297.602 217.732L297.08 216.405L295.655 216.467L295.741 218.465ZM309.265 252.824L309.351 254.822L312.153 254.702L311.126 252.092L309.265 252.824ZM301.363 253.164L299.489 253.863L299.997 255.225L301.449 255.163L301.363 253.164ZM291.469 226.633L293.343 225.935L292.835 224.573L291.383 224.635L291.469 226.633ZM291.196 226.645L291.11 224.647L289.659 224.709L289.27 226.109L291.196 226.645ZM282.517 240.241L282.431 238.243L280.433 238.329L280.519 240.327L282.517 240.241ZM301.182 239.438L303.18 239.352L303.094 237.354L301.096 237.44L301.182 239.438ZM301.43 245.194L301.516 247.192L303.514 247.106L303.428 245.108L301.43 245.194ZM282.765 245.997L280.767 246.083L280.853 248.081L282.851 247.995L282.765 245.997ZM283.601 253.929L283.515 251.931L275.613 252.271L275.699 254.269L275.785 256.267L283.687 255.927L283.601 253.929ZM275.699 254.269L277.616 254.84L288.155 219.445L286.238 218.874L284.322 218.303L273.782 253.698L275.699 254.269ZM286.238 218.874L286.324 220.872L295.827 220.463L295.741 218.465L295.655 216.467L286.152 216.876L286.238 218.874ZM295.741 218.465L293.88 219.197L307.404 253.557L309.265 252.824L311.126 252.092L297.602 217.732L295.741 218.465ZM309.265 252.824L309.179 250.826L301.277 251.166L301.363 253.164L301.449 255.163L309.351 254.822L309.265 252.824ZM301.363 253.164L303.237 252.466L293.343 225.935L291.469 226.633L289.595 227.332L299.489 253.863L301.363 253.164ZM291.469 226.633L291.383 224.635L291.11 224.647L291.196 226.645L291.282 228.643L291.555 228.632L291.469 226.633ZM291.196 226.645L289.27 226.109L281.674 253.392L283.601 253.929L285.528 254.465L293.123 227.182L291.196 226.645ZM282.517 240.241L282.603 242.239L301.268 241.436L301.182 239.438L301.096 237.44L282.431 238.243L282.517 240.241ZM301.182 239.438L299.184 239.524L299.431 245.28L301.43 245.194L303.428 245.108L303.18 239.352L301.182 239.438ZM301.43 245.194L301.344 243.196L282.679 243.999L282.765 245.997L282.851 247.995L301.516 247.192L301.43 245.194ZM282.765 245.997L284.763 245.911L284.515 240.155L282.517 240.241L280.519 240.327L280.767 246.083L282.765 245.997ZM319.336 217.45L321.334 217.364L321.248 215.365L319.25 215.451L319.336 217.45ZM320.837 252.326L320.923 254.324L322.921 254.238L322.835 252.24L320.837 252.326ZM313.463 252.644L311.465 252.73L311.55 254.728L313.549 254.642L313.463 252.644ZM311.962 217.767L311.876 215.769L309.878 215.855L309.964 217.853L311.962 217.767ZM319.336 217.45L317.337 217.536L318.838 252.412L320.837 252.326L322.835 252.24L321.334 217.364L319.336 217.45ZM320.837 252.326L320.751 250.328L313.377 250.646L313.463 252.644L313.549 254.642L320.923 254.324L320.837 252.326ZM313.463 252.644L315.461 252.558L313.96 217.681L311.962 217.767L309.964 217.853L311.465 252.73L313.463 252.644ZM311.962 217.767L312.048 219.765L319.422 219.448L319.336 217.45L319.25 215.451L311.876 215.769L311.962 217.767Z" fill="black" mask="url(#path-3-outside-1_64_136)"/>
</svg>
