                <svg class="drawable" width="607" height="450" viewBox="0 0 607 450" fill="none" xmlns="http://www.w3.org/2000/svg">
<path d="M18.445 198.298C10.6232 199.638 6.24685 209.011 10.2642 215.821L71.3027 319.269C74.0999 324.009 79.0389 326.833 84.4992 326.811L522.094 325.079C529.6 325.049 536.072 318.62 536.56 310.707L547.251 137.55C548.226 121.755 535.547 109.74 520.604 112.3L18.445 198.298Z" stroke="black" stroke-width="2" />
<mask id="path-2-outside-1_64_144" maskUnits="userSpaceOnUse" x="86.3258" y="226.271" width="252.655" height="46.1261" fill="black">
<rect fill="white" x="86.3258" y="226.271" width="252.655" height="46.1261"/>
<path d="M97.8474 234.306L106.719 260.686L107.042 260.681L115.061 234.023L123.242 233.889L111.782 268.991L102.271 269.147L89.6496 234.44L97.8474 234.306ZM127.879 268.727L127.45 242.549L134.71 242.43L135.139 268.608L127.879 268.727ZM131.041 239.114C129.962 239.132 129.03 238.789 128.246 238.086C127.473 237.371 127.078 236.508 127.061 235.497C127.045 234.497 127.411 233.633 128.161 232.905C128.922 232.165 129.842 231.786 130.921 231.769C132 231.751 132.927 232.099 133.7 232.814C134.484 233.517 134.885 234.369 134.901 235.369C134.918 236.38 134.546 237.255 133.785 237.995C133.035 238.724 132.121 239.097 131.041 239.114ZM140.955 268.513L140.526 242.334L147.565 242.219L147.64 246.786L147.912 246.782C148.363 245.149 149.144 243.909 150.255 243.061C151.366 242.202 152.655 241.76 154.12 241.736C154.484 241.73 154.876 241.747 155.297 241.785C155.718 241.824 156.089 241.88 156.408 241.954L156.514 248.397C156.171 248.3 155.698 248.217 155.095 248.147C154.491 248.078 153.94 248.047 153.44 248.055C152.372 248.073 151.421 248.321 150.588 248.801C149.766 249.269 149.117 249.916 148.642 250.742C148.178 251.568 147.955 252.515 147.973 253.583L148.216 268.393L140.955 268.513ZM175.401 241.762L175.49 247.216L159.725 247.475L159.636 242.021L175.401 241.762ZM163.112 235.69L170.372 235.571L170.772 259.977C170.783 260.647 170.894 261.168 171.105 261.54C171.315 261.9 171.604 262.151 171.97 262.293C172.347 262.435 172.78 262.501 173.269 262.493C173.609 262.488 173.95 262.454 174.29 262.391C174.629 262.318 174.89 262.262 175.071 262.225L176.302 267.609C175.94 267.729 175.431 267.868 174.774 268.026C174.118 268.196 173.318 268.306 172.376 268.355C170.627 268.452 169.09 268.244 167.763 267.732C166.447 267.219 165.417 266.407 164.671 265.294C163.926 264.181 163.544 262.766 163.528 261.051L163.112 235.69ZM197.164 256.442L196.918 241.41L204.178 241.29L204.607 267.469L197.637 267.583L197.559 262.828L197.286 262.832C196.72 264.376 195.758 265.625 194.398 266.579C193.05 267.533 191.393 268.026 189.427 268.059C187.678 268.087 186.131 267.715 184.789 266.941C183.447 266.168 182.388 265.054 181.615 263.601C180.852 262.147 180.448 260.398 180.403 258.353L180.13 241.685L187.39 241.566L187.642 256.939C187.679 258.484 188.114 259.698 188.947 260.583C189.779 261.467 190.883 261.898 192.258 261.875C193.133 261.861 193.948 261.648 194.703 261.238C195.457 260.817 196.061 260.204 196.514 259.402C196.978 258.598 197.195 257.612 197.164 256.442ZM217.888 267.745C216.217 267.773 214.724 267.507 213.408 266.949C212.092 266.38 211.044 265.528 210.263 264.393C209.495 263.246 209.096 261.809 209.068 260.082C209.044 258.628 209.291 257.402 209.809 256.405C210.326 255.407 211.04 254.6 211.951 253.983C212.861 253.366 213.899 252.894 215.065 252.568C216.241 252.242 217.476 252.006 218.769 251.859C220.289 251.675 221.514 251.508 222.443 251.356C223.373 251.193 224.045 250.966 224.461 250.675C224.877 250.384 225.08 249.96 225.071 249.404L225.069 249.301C225.051 248.222 224.697 247.392 224.005 246.813C223.325 246.233 222.366 245.953 221.128 245.973C219.821 245.995 218.786 246.302 218.023 246.894C217.26 247.475 216.76 248.199 216.524 249.066L209.8 248.631C210.115 247.035 210.763 245.649 211.744 244.474C212.725 243.287 213.999 242.368 215.569 241.717C217.149 241.055 218.984 240.707 221.075 240.672C222.529 240.649 223.924 240.796 225.259 241.115C226.605 241.434 227.801 241.943 228.847 242.642C229.904 243.341 230.743 244.247 231.363 245.362C231.984 246.466 232.307 247.796 232.332 249.353L232.622 267.009L225.736 267.122L225.677 263.492L225.472 263.495C225.065 264.32 224.515 265.051 223.821 265.688C223.126 266.313 222.288 266.809 221.305 267.178C220.322 267.535 219.183 267.724 217.888 267.745ZM219.885 262.701C220.953 262.683 221.892 262.457 222.704 262.024C223.515 261.578 224.147 260.988 224.601 260.254C225.055 259.519 225.274 258.691 225.259 257.771L225.214 254.993C224.989 255.144 224.679 255.286 224.283 255.417C223.898 255.537 223.463 255.652 222.976 255.763C222.489 255.862 222.002 255.955 221.514 256.042C221.027 256.118 220.585 256.188 220.188 256.252C219.338 256.391 218.597 256.602 217.965 256.885C217.333 257.168 216.845 257.545 216.501 258.017C216.156 258.477 215.989 259.048 216 259.73C216.016 260.718 216.387 261.468 217.111 261.979C217.847 262.478 218.771 262.719 219.885 262.701ZM244.943 231.894L245.515 266.798L238.255 266.917L237.682 232.013L244.943 231.894ZM262.575 266.518L262.003 231.614L275.774 231.388C278.421 231.345 280.685 231.813 282.565 232.794C284.445 233.763 285.888 235.132 286.894 236.9C287.912 238.656 288.439 240.693 288.477 243.011C288.515 245.329 288.049 247.382 287.078 249.171C286.107 250.96 284.681 252.364 282.8 253.384C280.93 254.403 278.655 254.935 275.973 254.979L267.196 255.123L267.099 249.209L274.683 249.084C276.103 249.061 277.27 248.798 278.182 248.294C279.105 247.779 279.787 247.08 280.227 246.198C280.679 245.304 280.895 244.283 280.876 243.135C280.857 241.977 280.608 240.969 280.128 240.113C279.659 239.246 278.955 238.581 278.015 238.119C277.075 237.646 275.89 237.421 274.458 237.444L269.481 237.526L269.955 266.397L262.575 266.518ZM305.03 266.333C302.337 266.378 300.01 265.87 298.049 264.811C296.1 263.741 294.586 262.209 293.507 260.215C292.429 258.209 291.867 255.826 291.822 253.065C291.777 250.372 292.261 248.001 293.273 245.95C294.285 243.899 295.731 242.29 297.61 241.122C299.5 239.955 301.729 239.35 304.297 239.308C306.024 239.279 307.636 239.531 309.134 240.064C310.642 240.585 311.962 241.387 313.094 242.471C314.237 243.554 315.135 244.926 315.787 246.586C316.439 248.235 316.783 250.173 316.82 252.4L316.852 254.394L294.747 254.756L294.674 250.257L309.944 250.006C309.927 248.961 309.685 248.039 309.217 247.24C308.749 246.44 308.108 245.82 307.294 245.379C306.491 244.926 305.561 244.708 304.505 244.726C303.403 244.744 302.43 245.015 301.586 245.541C300.753 246.054 300.105 246.741 299.642 247.601C299.179 248.45 298.95 249.391 298.955 250.425L299.026 254.703C299.047 255.998 299.304 257.114 299.796 258.049C300.301 258.984 301 259.7 301.894 260.197C302.789 260.693 303.844 260.932 305.06 260.912C305.867 260.899 306.603 260.773 307.27 260.535C307.937 260.296 308.505 259.946 308.975 259.484C309.444 259.021 309.799 258.459 310.038 257.796L316.76 258.129C316.446 259.748 315.77 261.168 314.733 262.39C313.708 263.6 312.371 264.554 310.723 265.251C309.086 265.937 307.188 266.298 305.03 266.333ZM335.27 239.141L335.359 244.595L319.594 244.853L319.505 239.399L335.27 239.141ZM322.981 233.069L330.241 232.95L330.642 257.356C330.653 258.026 330.763 258.547 330.974 258.918C331.184 259.279 331.473 259.53 331.839 259.671C332.216 259.813 332.649 259.88 333.138 259.872C333.479 259.866 333.819 259.832 334.159 259.77C334.499 259.696 334.759 259.641 334.94 259.604L336.171 264.987C335.809 265.107 335.3 265.246 334.643 265.405C333.987 265.575 333.188 265.684 332.245 265.734C330.496 265.831 328.959 265.623 327.632 265.11C326.316 264.598 325.286 263.785 324.54 262.672C323.795 261.559 323.414 260.145 323.397 258.429L322.981 233.069Z"/>
</mask>
<path d="M97.8474 234.306L99.7431 233.668L99.2769 232.282L97.8146 232.306L97.8474 234.306ZM106.719 260.686L104.823 261.324L105.289 262.71L106.751 262.686L106.719 260.686ZM107.042 260.681L107.075 262.681L108.537 262.657L108.958 261.257L107.042 260.681ZM115.061 234.023L115.028 232.024L113.567 232.048L113.146 233.447L115.061 234.023ZM123.242 233.889L125.143 234.51L126.013 231.843L123.209 231.889L123.242 233.889ZM111.782 268.991L111.814 270.991L113.24 270.967L113.683 269.612L111.782 268.991ZM102.271 269.147L100.392 269.83L100.879 271.17L102.304 271.147L102.271 269.147ZM89.6496 234.44L89.6168 232.44L86.811 232.486L87.77 235.124L89.6496 234.44ZM97.8474 234.306L95.9517 234.943L104.823 261.324L106.719 260.686L108.614 260.049L99.7431 233.668L97.8474 234.306ZM106.719 260.686L106.751 262.686L107.075 262.681L107.042 260.681L107.01 258.681L106.686 258.687L106.719 260.686ZM107.042 260.681L108.958 261.257L116.976 234.599L115.061 234.023L113.146 233.447L105.127 260.105L107.042 260.681ZM115.061 234.023L115.094 236.023L123.274 235.889L123.242 233.889L123.209 231.889L115.028 232.024L115.061 234.023ZM123.242 233.889L121.34 233.268L109.88 268.37L111.782 268.991L113.683 269.612L125.143 234.51L123.242 233.889ZM111.782 268.991L111.749 266.991L102.239 267.147L102.271 269.147L102.304 271.147L111.814 270.991L111.782 268.991ZM102.271 269.147L104.151 268.463L91.5292 233.756L89.6496 234.44L87.77 235.124L100.392 269.83L102.271 269.147ZM89.6496 234.44L89.6824 236.44L97.8802 236.305L97.8474 234.306L97.8146 232.306L89.6168 232.44L89.6496 234.44ZM127.879 268.727L125.879 268.76L125.912 270.759L127.912 270.727L127.879 268.727ZM127.45 242.549L127.417 240.549L125.417 240.582L125.45 242.581L127.45 242.549ZM134.71 242.43L136.71 242.397L136.677 240.397L134.677 240.43L134.71 242.43ZM135.139 268.608L135.172 270.608L137.172 270.575L137.139 268.575L135.139 268.608ZM128.246 238.086L126.888 239.555L126.899 239.565L126.911 239.575L128.246 238.086ZM128.161 232.905L129.555 234.339L129.555 234.339L128.161 232.905ZM133.7 232.814L132.342 234.283L132.354 234.293L132.365 234.303L133.7 232.814ZM133.785 237.995L135.179 239.43L135.179 239.429L133.785 237.995ZM127.879 268.727L129.879 268.694L129.449 242.516L127.45 242.549L125.45 242.581L125.879 268.76L127.879 268.727ZM127.45 242.549L127.482 244.548L134.743 244.429L134.71 242.43L134.677 240.43L127.417 240.549L127.45 242.549ZM134.71 242.43L132.71 242.462L133.139 268.641L135.139 268.608L137.139 268.575L136.71 242.397L134.71 242.43ZM135.139 268.608L135.106 266.608L127.846 266.727L127.879 268.727L127.912 270.727L135.172 270.608L135.139 268.608ZM131.041 239.114L131.009 237.115C130.419 237.124 129.98 236.954 129.581 236.597L128.246 238.086L126.911 239.575C128.081 240.624 129.505 241.14 131.074 241.114L131.041 239.114ZM128.246 238.086L129.603 236.617C129.213 236.256 129.068 235.905 129.061 235.464L127.061 235.497L125.061 235.53C125.087 237.112 125.732 238.486 126.888 239.555L128.246 238.086ZM127.061 235.497L129.061 235.464C129.054 235.044 129.181 234.703 129.555 234.339L128.161 232.905L126.767 231.471C125.642 232.564 125.036 233.951 125.061 235.53L127.061 235.497ZM128.161 232.905L129.555 234.339C129.944 233.961 130.374 233.778 130.954 233.768L130.921 231.769L130.888 229.769C129.309 229.795 127.899 230.369 126.766 231.471L128.161 232.905ZM130.921 231.769L130.954 233.768C131.533 233.759 131.958 233.927 132.342 234.283L133.7 232.814L135.057 231.345C133.896 230.272 132.468 229.743 130.888 229.769L130.921 231.769ZM133.7 232.814L132.365 234.303C132.759 234.657 132.895 234.991 132.901 235.401L134.901 235.369L136.901 235.336C136.875 233.747 136.209 232.378 135.035 231.325L133.7 232.814ZM134.901 235.369L132.901 235.401C132.908 235.832 132.778 236.185 132.39 236.562L133.785 237.995L135.179 239.429C136.313 238.326 136.927 236.928 136.901 235.336L134.901 235.369ZM133.785 237.995L132.391 236.561C132.02 236.922 131.598 237.105 131.009 237.115L131.041 239.114L131.074 241.114C132.644 241.088 134.051 240.526 135.179 239.43L133.785 237.995ZM140.955 268.513L138.955 268.545L138.988 270.545L140.988 270.512L140.955 268.513ZM140.526 242.334L140.493 240.334L138.493 240.367L138.526 242.367L140.526 242.334ZM147.565 242.219L149.564 242.186L149.532 240.186L147.532 240.219L147.565 242.219ZM147.64 246.786L145.64 246.819L145.673 248.819L147.672 248.786L147.64 246.786ZM147.912 246.782L147.945 248.782L149.442 248.757L149.84 247.314L147.912 246.782ZM150.255 243.061L151.468 244.651L151.479 244.643L150.255 243.061ZM155.297 241.785L155.48 239.793L155.48 239.793L155.297 241.785ZM156.408 241.954L158.408 241.922L158.382 240.36L156.861 240.006L156.408 241.954ZM156.514 248.397L155.971 250.322L158.558 251.052L158.514 248.364L156.514 248.397ZM150.588 248.801L151.578 250.539L151.586 250.534L150.588 248.801ZM148.642 250.742L146.908 249.745L146.903 249.754L146.898 249.763L148.642 250.742ZM148.216 268.393L148.248 270.393L150.248 270.36L150.215 268.361L148.216 268.393ZM140.955 268.513L142.955 268.48L142.526 242.301L140.526 242.334L138.526 242.367L138.955 268.545L140.955 268.513ZM140.526 242.334L140.559 244.334L147.598 244.219L147.565 242.219L147.532 240.219L140.493 240.334L140.526 242.334ZM147.565 242.219L145.565 242.252L145.64 246.819L147.64 246.786L149.639 246.754L149.564 242.186L147.565 242.219ZM147.64 246.786L147.672 248.786L147.945 248.782L147.912 246.782L147.88 244.782L147.607 244.787L147.64 246.786ZM147.912 246.782L149.84 247.314C150.2 246.011 150.773 245.182 151.468 244.651L150.255 243.061L149.042 241.471C147.515 242.636 146.526 244.288 145.984 246.25L147.912 246.782ZM150.255 243.061L151.479 244.643C152.233 244.06 153.099 243.753 154.153 243.736L154.12 241.736L154.087 239.737C152.21 239.767 150.5 240.344 149.032 241.479L150.255 243.061ZM154.12 241.736L154.153 243.736C154.434 243.731 154.754 243.744 155.115 243.777L155.297 241.785L155.48 239.793C154.998 239.749 154.533 239.729 154.087 239.737L154.12 241.736ZM155.297 241.785L155.115 243.777C155.47 243.809 155.746 243.854 155.955 243.902L156.408 241.954L156.861 240.006C156.432 239.906 155.967 239.838 155.48 239.793L155.297 241.785ZM156.408 241.954L154.408 241.987L154.514 248.43L156.514 248.397L158.514 248.364L158.408 241.922L156.408 241.954ZM156.514 248.397L157.057 246.472C156.565 246.333 155.971 246.235 155.324 246.16L155.095 248.147L154.865 250.134C155.426 250.199 155.778 250.267 155.971 250.322L156.514 248.397ZM155.095 248.147L155.324 246.16C154.651 246.083 154.011 246.045 153.407 246.055L153.44 248.055L153.472 250.055C153.869 250.048 154.331 250.072 154.865 250.134L155.095 248.147ZM153.44 248.055L153.407 246.055C152.038 246.078 150.749 246.4 149.59 247.067L150.588 248.801L151.586 250.534C152.093 250.242 152.705 250.067 153.472 250.055L153.44 248.055ZM150.588 248.801L149.598 247.063C148.464 247.709 147.56 248.612 146.908 249.745L148.642 250.742L150.376 251.739C150.675 251.219 151.068 250.829 151.578 250.539L150.588 248.801ZM148.642 250.742L146.898 249.763C146.24 250.935 145.95 252.24 145.973 253.616L147.973 253.583L149.972 253.55C149.96 252.79 150.117 252.201 150.386 251.721L148.642 250.742ZM147.973 253.583L145.973 253.616L146.216 268.426L148.216 268.393L150.215 268.361L149.972 253.55L147.973 253.583ZM148.216 268.393L148.183 266.394L140.922 266.513L140.955 268.513L140.988 270.512L148.248 270.393L148.216 268.393ZM175.401 241.762L177.4 241.73L177.367 239.73L175.368 239.763L175.401 241.762ZM175.49 247.216L175.523 249.216L177.522 249.183L177.49 247.183L175.49 247.216ZM159.725 247.475L157.725 247.507L157.758 249.507L159.758 249.474L159.725 247.475ZM159.636 242.021L159.603 240.021L157.603 240.054L157.636 242.054L159.636 242.021ZM163.112 235.69L163.079 233.691L161.079 233.723L161.112 235.723L163.112 235.69ZM170.372 235.571L172.372 235.538L172.339 233.539L170.339 233.571L170.372 235.571ZM171.105 261.54L169.365 262.526L169.371 262.538L169.378 262.549L171.105 261.54ZM171.97 262.293L171.247 264.158L171.257 264.162L171.267 264.166L171.97 262.293ZM174.29 262.391L174.651 264.358L174.683 264.353L174.714 264.346L174.29 262.391ZM175.071 262.225L177.021 261.779L176.585 259.874L174.67 260.266L175.071 262.225ZM176.302 267.609L176.929 269.508L178.657 268.937L178.251 267.163L176.302 267.609ZM174.774 268.026L174.305 266.082L174.289 266.086L174.273 266.09L174.774 268.026ZM172.376 268.355L172.271 266.358L172.265 266.358L172.376 268.355ZM167.763 267.732L167.037 269.595L167.042 269.598L167.763 267.732ZM164.671 265.294L166.333 264.18L166.333 264.18L164.671 265.294ZM163.528 261.051L165.528 261.031L165.527 261.018L163.528 261.051ZM175.401 241.762L173.401 241.795L173.49 247.249L175.49 247.216L177.49 247.183L177.4 241.73L175.401 241.762ZM175.49 247.216L175.457 245.216L159.692 245.475L159.725 247.475L159.758 249.474L175.523 249.216L175.49 247.216ZM159.725 247.475L161.725 247.442L161.635 241.988L159.636 242.021L157.636 242.054L157.725 247.507L159.725 247.475ZM159.636 242.021L159.668 244.021L175.433 243.762L175.401 241.762L175.368 239.763L159.603 240.021L159.636 242.021ZM163.112 235.69L163.145 237.69L170.405 237.571L170.372 235.571L170.339 233.571L163.079 233.691L163.112 235.69ZM170.372 235.571L168.372 235.604L168.773 260.01L170.772 259.977L172.772 259.944L172.372 235.538L170.372 235.571ZM170.772 259.977L168.773 260.01C168.786 260.842 168.921 261.743 169.365 262.526L171.105 261.54L172.845 260.554C172.862 260.583 172.843 260.562 172.82 260.454C172.797 260.347 172.776 260.182 172.772 259.944L170.772 259.977ZM171.105 261.54L169.378 262.549C169.801 263.274 170.432 263.842 171.247 264.158L171.97 262.293L172.692 260.428C172.719 260.438 172.757 260.459 172.792 260.49C172.827 260.52 172.837 260.54 172.832 260.531L171.105 261.54ZM171.97 262.293L171.267 264.166C171.924 264.412 172.614 264.504 173.301 264.493L173.269 262.493L173.236 260.494C172.946 260.498 172.77 260.457 172.672 260.42L171.97 262.293ZM173.269 262.493L173.301 264.493C173.754 264.486 174.204 264.44 174.651 264.358L174.29 262.391L173.929 260.424C173.696 260.467 173.465 260.49 173.236 260.494L173.269 262.493ZM174.29 262.391L174.714 264.346C175.051 264.272 175.303 264.219 175.472 264.184L175.071 262.225L174.67 260.266C174.477 260.305 174.207 260.363 173.865 260.437L174.29 262.391ZM175.071 262.225L173.121 262.671L174.352 268.055L176.302 267.609L178.251 267.163L177.021 261.779L175.071 262.225ZM176.302 267.609L175.674 265.71C175.389 265.804 174.942 265.928 174.305 266.082L174.774 268.026L175.244 269.97C175.92 269.807 176.491 269.653 176.929 269.508L176.302 267.609ZM174.774 268.026L174.273 266.09C173.786 266.216 173.127 266.313 172.271 266.358L172.376 268.355L172.481 270.353C173.509 270.298 174.45 270.176 175.275 269.962L174.774 268.026ZM172.376 268.355L172.265 266.358C170.736 266.443 169.492 266.256 168.483 265.866L167.763 267.732L167.042 269.598C168.687 270.233 170.519 270.461 172.487 270.352L172.376 268.355ZM167.763 267.732L168.489 265.868C167.533 265.496 166.838 264.935 166.333 264.18L164.671 265.294L163.01 266.407C163.996 267.879 165.362 268.943 167.037 269.595L167.763 267.732ZM164.671 265.294L166.333 264.18C165.858 263.471 165.542 262.466 165.528 261.031L163.528 261.051L161.528 261.07C161.547 263.067 161.994 264.89 163.01 266.407L164.671 265.294ZM163.528 261.051L165.527 261.018L165.112 235.657L163.112 235.69L161.112 235.723L161.528 261.083L163.528 261.051ZM197.164 256.442L195.164 256.474L195.164 256.484L195.165 256.494L197.164 256.442ZM196.918 241.41L196.885 239.41L194.885 239.443L194.918 241.442L196.918 241.41ZM204.178 241.29L206.178 241.258L206.145 239.258L204.145 239.291L204.178 241.29ZM204.607 267.469L204.64 269.468L206.64 269.436L206.607 267.436L204.607 267.469ZM197.637 267.583L195.637 267.616L195.67 269.616L197.669 269.583L197.637 267.583ZM197.559 262.828L199.558 262.795L199.525 260.795L197.526 260.828L197.559 262.828ZM197.286 262.832L197.253 260.833L195.88 260.855L195.408 262.144L197.286 262.832ZM194.398 266.579L193.249 264.942L193.243 264.947L194.398 266.579ZM184.789 266.941L185.788 265.208L185.788 265.208L184.789 266.941ZM181.615 263.601L179.843 264.53L179.849 264.541L181.615 263.601ZM180.403 258.353L178.404 258.386L178.404 258.397L180.403 258.353ZM180.13 241.685L180.097 239.685L178.097 239.718L178.13 241.718L180.13 241.685ZM187.39 241.566L189.39 241.533L189.357 239.533L187.358 239.566L187.39 241.566ZM187.642 256.939L185.643 256.971L185.643 256.979L185.643 256.986L187.642 256.939ZM188.947 260.583L190.403 259.211L190.403 259.211L188.947 260.583ZM194.703 261.238L195.658 262.996L195.668 262.99L195.678 262.984L194.703 261.238ZM196.514 259.402L194.782 258.401L194.777 258.41L194.771 258.419L196.514 259.402ZM197.164 256.442L199.164 256.409L198.917 241.377L196.918 241.41L194.918 241.442L195.164 256.474L197.164 256.442ZM196.918 241.41L196.95 243.409L204.211 243.29L204.178 241.29L204.145 239.291L196.885 239.41L196.918 241.41ZM204.178 241.29L202.178 241.323L202.607 267.502L204.607 267.469L206.607 267.436L206.178 241.258L204.178 241.29ZM204.607 267.469L204.574 265.469L197.604 265.583L197.637 267.583L197.669 269.583L204.64 269.468L204.607 267.469ZM197.637 267.583L199.636 267.55L199.558 262.795L197.559 262.828L195.559 262.861L195.637 267.616L197.637 267.583ZM197.559 262.828L197.526 260.828L197.253 260.833L197.286 262.832L197.319 264.832L197.591 264.828L197.559 262.828ZM197.286 262.832L195.408 262.144C194.984 263.3 194.278 264.22 193.249 264.942L194.398 266.579L195.547 268.216C197.237 267.03 198.456 265.452 199.164 263.521L197.286 262.832ZM194.398 266.579L193.243 264.947C192.282 265.627 191.036 266.032 189.394 266.059L189.427 268.059L189.46 270.058C191.75 270.021 193.818 269.44 195.553 268.212L194.398 266.579ZM189.427 268.059L189.394 266.059C187.958 266.082 186.778 265.779 185.788 265.208L184.789 266.941L183.79 268.674C185.485 269.651 187.397 270.092 189.46 270.058L189.427 268.059ZM184.789 266.941L185.788 265.208C184.791 264.634 183.989 263.805 183.38 262.661L181.615 263.601L179.849 264.541C180.788 266.304 182.103 267.702 183.79 268.674L184.789 266.941ZM181.615 263.601L183.386 262.672C182.797 261.551 182.443 260.12 182.403 258.309L180.403 258.353L178.404 258.397C178.454 260.676 178.906 262.744 179.843 264.53L181.615 263.601ZM180.403 258.353L182.403 258.32L182.13 241.652L180.13 241.685L178.13 241.718L178.404 258.386L180.403 258.353ZM180.13 241.685L180.163 243.685L187.423 243.565L187.39 241.566L187.358 239.566L180.097 239.685L180.13 241.685ZM187.39 241.566L185.391 241.599L185.643 256.971L187.642 256.939L189.642 256.906L189.39 241.533L187.39 241.566ZM187.642 256.939L185.643 256.986C185.688 258.886 186.235 260.621 187.491 261.954L188.947 260.583L190.403 259.211C189.992 258.776 189.67 258.082 189.642 256.891L187.642 256.939ZM188.947 260.583L187.491 261.954C188.762 263.304 190.436 263.905 192.291 263.875L192.258 261.875L192.225 259.875C191.331 259.89 190.797 259.63 190.403 259.211L188.947 260.583ZM192.258 261.875L192.291 263.875C193.482 263.855 194.614 263.563 195.658 262.996L194.703 261.238L193.748 259.481C193.282 259.734 192.784 259.866 192.225 259.875L192.258 261.875ZM194.703 261.238L195.678 262.984C196.775 262.371 197.635 261.485 198.256 260.384L196.514 259.402L194.771 258.419C194.487 258.924 194.139 259.262 193.727 259.492L194.703 261.238ZM196.514 259.402L198.245 260.402C198.937 259.206 199.201 257.833 199.163 256.389L197.164 256.442L195.165 256.494C195.188 257.391 195.019 257.991 194.782 258.401L196.514 259.402ZM213.408 266.949L212.614 268.785L212.621 268.788L212.627 268.791L213.408 266.949ZM210.263 264.393L208.602 265.507L208.609 265.516L208.615 265.525L210.263 264.393ZM209.809 256.405L208.034 255.483L208.034 255.483L209.809 256.405ZM211.951 253.983L210.829 252.328L210.829 252.328L211.951 253.983ZM215.065 252.568L214.53 250.641L214.526 250.642L215.065 252.568ZM218.769 251.859L218.994 253.847L219.002 253.846L219.01 253.845L218.769 251.859ZM222.443 251.356L222.765 253.33L222.777 253.328L222.789 253.326L222.443 251.356ZM224.461 250.675L223.314 249.036L223.314 249.036L224.461 250.675ZM224.005 246.813L222.708 248.335L222.714 248.34L222.721 248.345L224.005 246.813ZM218.023 246.894L219.234 248.485L219.242 248.48L219.249 248.474L218.023 246.894ZM216.524 249.066L216.395 251.062L218.026 251.168L218.454 249.591L216.524 249.066ZM209.8 248.631L207.838 248.244L207.397 250.48L209.671 250.627L209.8 248.631ZM211.744 244.474L213.279 245.755L213.286 245.748L211.744 244.474ZM215.569 241.717L216.335 243.565L216.342 243.562L215.569 241.717ZM225.259 241.115L224.794 243.06L224.798 243.061L225.259 241.115ZM228.847 242.642L227.736 244.305L227.744 244.31L228.847 242.642ZM231.363 245.362L229.616 246.335L229.62 246.342L231.363 245.362ZM232.622 267.009L232.655 269.009L234.654 268.976L234.622 266.977L232.622 267.009ZM225.736 267.122L223.737 267.155L223.769 269.155L225.769 269.122L225.736 267.122ZM225.677 263.492L227.677 263.459L227.644 261.46L225.644 261.492L225.677 263.492ZM225.472 263.495L225.44 261.496L224.219 261.516L223.679 262.611L225.472 263.495ZM223.821 265.688L225.159 267.174L225.165 267.168L225.172 267.162L223.821 265.688ZM221.305 267.178L221.988 269.058L221.997 269.054L222.007 269.051L221.305 267.178ZM222.704 262.024L223.647 263.787L223.656 263.782L223.666 263.777L222.704 262.024ZM224.601 260.254L222.899 259.203L222.899 259.203L224.601 260.254ZM225.214 254.993L227.213 254.96L227.153 251.275L224.096 253.334L225.214 254.993ZM224.283 255.417L224.879 257.326L224.896 257.321L224.914 257.315L224.283 255.417ZM222.976 255.763L223.374 257.723L223.396 257.718L223.418 257.713L222.976 255.763ZM221.514 256.042L221.823 258.018L221.846 258.015L221.868 258.011L221.514 256.042ZM220.188 256.252L219.873 254.277L219.865 254.278L220.188 256.252ZM217.965 256.885L218.783 258.71L218.783 258.71L217.965 256.885ZM216.501 258.017L218.101 259.216L218.109 259.206L218.116 259.197L216.501 258.017ZM217.111 261.979L215.958 263.613L215.973 263.624L215.988 263.634L217.111 261.979ZM217.888 267.745L217.855 265.746C216.417 265.769 215.208 265.54 214.189 265.108L213.408 266.949L212.627 268.791C214.24 269.475 216.018 269.776 217.92 269.745L217.888 267.745ZM213.408 266.949L214.202 265.114C213.216 264.687 212.47 264.072 211.912 263.26L210.263 264.393L208.615 265.525C209.617 266.984 210.968 268.073 212.614 268.785L213.408 266.949ZM210.263 264.393L211.925 263.279C211.419 262.524 211.091 261.488 211.067 260.049L209.068 260.082L207.068 260.115C207.101 262.131 207.571 263.968 208.602 265.507L210.263 264.393ZM209.068 260.082L211.067 260.049C211.047 258.832 211.257 257.955 211.584 257.326L209.809 256.405L208.034 255.483C207.324 256.849 207.04 258.424 207.068 260.115L209.068 260.082ZM209.809 256.405L211.584 257.326C211.952 256.617 212.444 256.065 213.073 255.638L211.951 253.983L210.829 252.328C209.637 253.135 208.701 254.197 208.034 255.483L209.809 256.405ZM211.951 253.983L213.073 255.638C213.788 255.154 214.625 254.768 215.603 254.494L215.065 252.568L214.526 250.642C213.173 251.02 211.935 251.578 210.829 252.328L211.951 253.983ZM215.065 252.568L215.599 254.495C216.668 254.199 217.799 253.982 218.994 253.847L218.769 251.859L218.545 249.872C217.154 250.029 215.815 250.285 214.53 250.641L215.065 252.568ZM218.769 251.859L219.01 253.845C220.542 253.659 221.797 253.488 222.765 253.33L222.443 251.356L222.121 249.382C221.23 249.527 220.036 249.691 218.529 249.874L218.769 251.859ZM222.443 251.356L222.789 253.326C223.8 253.149 224.826 252.861 225.608 252.314L224.461 250.675L223.314 249.036C223.316 249.035 223.295 249.05 223.241 249.075C223.188 249.101 223.111 249.133 223.005 249.169C222.79 249.241 222.493 249.317 222.098 249.386L222.443 251.356ZM224.461 250.675L225.608 252.314C226.627 251.6 227.089 250.516 227.071 249.371L225.071 249.404L223.071 249.436C223.071 249.461 223.067 249.389 223.122 249.274C223.181 249.151 223.263 249.072 223.314 249.036L224.461 250.675ZM225.071 249.404L227.071 249.371L227.069 249.268L225.069 249.301L223.069 249.334L223.071 249.436L225.071 249.404ZM225.069 249.301L227.069 249.268C227.044 247.734 226.514 246.306 225.29 245.28L224.005 246.813L222.721 248.345C222.88 248.479 223.059 248.71 223.069 249.334L225.069 249.301ZM224.005 246.813L225.303 245.291C224.131 244.291 222.632 243.948 221.095 243.974L221.128 245.973L221.16 247.973C222.1 247.958 222.52 248.174 222.708 248.335L224.005 246.813ZM221.128 245.973L221.095 243.974C219.506 244 218.005 244.377 216.797 245.314L218.023 246.894L219.249 248.474C219.568 248.227 220.136 247.99 221.16 247.973L221.128 245.973ZM218.023 246.894L216.812 245.302C215.723 246.131 214.954 247.22 214.594 248.542L216.524 249.066L218.454 249.591C218.567 249.178 218.796 248.818 219.234 248.485L218.023 246.894ZM216.524 249.066L216.654 247.071L209.93 246.635L209.8 248.631L209.671 250.627L216.395 251.062L216.524 249.066ZM209.8 248.631L211.763 249.018C212.017 247.73 212.527 246.657 213.279 245.755L211.744 244.474L210.208 243.192C208.999 244.641 208.214 246.34 207.838 248.244L209.8 248.631ZM211.744 244.474L213.286 245.748C214.038 244.838 215.035 244.104 216.335 243.565L215.569 241.717L214.802 239.87C212.964 240.633 211.412 241.736 210.202 243.2L211.744 244.474ZM215.569 241.717L216.342 243.562C217.642 243.017 219.217 242.703 221.108 242.672L221.075 240.672L221.042 238.673C218.751 238.71 216.656 239.093 214.795 239.873L215.569 241.717ZM221.075 240.672L221.108 242.672C222.404 242.651 223.631 242.783 224.794 243.06L225.259 241.115L225.724 239.17C224.216 238.81 222.654 238.646 221.042 238.673L221.075 240.672ZM225.259 241.115L224.798 243.061C225.935 243.331 226.907 243.751 227.736 244.305L228.847 242.642L229.958 240.979C228.695 240.135 227.275 239.537 225.72 239.169L225.259 241.115ZM228.847 242.642L227.744 244.31C228.532 244.831 229.15 245.498 229.616 246.335L231.363 245.362L233.111 244.39C232.335 242.996 231.276 241.85 229.95 240.973L228.847 242.642ZM231.363 245.362L229.62 246.342C230.044 247.097 230.311 248.086 230.333 249.385L232.332 249.353L234.332 249.32C234.302 247.506 233.923 245.835 233.107 244.382L231.363 245.362ZM232.332 249.353L230.333 249.385L230.622 267.042L232.622 267.009L234.622 266.977L234.332 249.32L232.332 249.353ZM232.622 267.009L232.589 265.01L225.704 265.123L225.736 267.122L225.769 269.122L232.655 269.009L232.622 267.009ZM225.736 267.122L227.736 267.089L227.677 263.459L225.677 263.492L223.677 263.525L223.737 267.155L225.736 267.122ZM225.677 263.492L225.644 261.492L225.44 261.496L225.472 263.495L225.505 265.495L225.71 265.492L225.677 263.492ZM225.472 263.495L223.679 262.611C223.384 263.208 222.985 263.74 222.469 264.213L223.821 265.688L225.172 267.162C226.045 266.362 226.747 265.433 227.266 264.38L225.472 263.495ZM223.821 265.688L222.482 264.201C221.996 264.639 221.38 265.014 220.603 265.305L221.305 267.178L222.007 269.051C223.195 268.605 224.257 267.986 225.159 267.174L223.821 265.688ZM221.305 267.178L220.622 265.298C219.891 265.564 218.979 265.727 217.855 265.746L217.888 267.745L217.92 269.745C219.387 269.721 220.753 269.506 221.988 269.058L221.305 267.178ZM219.885 262.701L219.918 264.7C221.252 264.678 222.513 264.393 223.647 263.787L222.704 262.024L221.76 260.26C221.272 260.521 220.653 260.688 219.852 260.701L219.885 262.701ZM222.704 262.024L223.666 263.777C224.758 263.178 225.654 262.354 226.302 261.305L224.601 260.254L222.899 259.203C222.64 259.622 222.272 259.979 221.741 260.27L222.704 262.024ZM224.601 260.254L226.302 261.305C226.971 260.223 227.28 259.015 227.259 257.738L225.259 257.771L223.259 257.804C223.269 258.368 223.139 258.815 222.899 259.203L224.601 260.254ZM225.259 257.771L227.259 257.738L227.213 254.96L225.214 254.993L223.214 255.026L223.259 257.804L225.259 257.771ZM225.214 254.993L224.096 253.334C224.097 253.334 224.088 253.339 224.069 253.35C224.049 253.361 224.021 253.375 223.982 253.393C223.905 253.428 223.797 253.471 223.652 253.519L224.283 255.417L224.914 257.315C225.4 257.154 225.898 256.943 226.331 256.652L225.214 254.993ZM224.283 255.417L223.687 253.508C223.364 253.609 222.981 253.711 222.534 253.812L222.976 255.763L223.418 257.713C223.945 257.594 224.433 257.465 224.879 257.326L224.283 255.417ZM222.976 255.763L222.578 253.803C222.106 253.899 221.633 253.989 221.161 254.074L221.514 256.042L221.868 258.011C222.37 257.921 222.872 257.824 223.374 257.723L222.976 255.763ZM221.514 256.042L221.206 254.066C220.716 254.143 220.272 254.213 219.873 254.277L220.188 256.252L220.503 258.227C220.898 258.164 221.337 258.094 221.823 258.018L221.514 256.042ZM220.188 256.252L219.865 254.278C218.884 254.438 217.97 254.691 217.147 255.06L217.965 256.885L218.783 258.71C219.224 258.512 219.792 258.343 220.511 258.225L220.188 256.252ZM217.965 256.885L217.147 255.06C216.257 255.458 215.47 256.037 214.886 256.837L216.501 258.017L218.116 259.197C218.22 259.054 218.41 258.877 218.783 258.71L217.965 256.885ZM216.501 258.017L214.9 256.818C214.242 257.696 213.983 258.723 214.001 259.763L216 259.73L218 259.697C217.995 259.373 218.07 259.258 218.101 259.216L216.501 258.017ZM216 259.73L214.001 259.763C214.026 261.304 214.646 262.688 215.958 263.613L217.111 261.979L218.264 260.345C218.127 260.248 218.007 260.132 218 259.697L216 259.73ZM217.111 261.979L215.988 263.634C217.141 264.417 218.497 264.724 219.918 264.7L219.885 262.701L219.852 260.701C219.045 260.714 218.552 260.54 218.235 260.324L217.111 261.979ZM244.943 231.894L246.942 231.861L246.91 229.861L244.91 229.894L244.943 231.894ZM245.515 266.798L245.548 268.798L247.548 268.765L247.515 266.765L245.515 266.798ZM238.255 266.917L236.255 266.95L236.288 268.95L238.287 268.917L238.255 266.917ZM237.682 232.013L237.649 230.013L235.65 230.046L235.683 232.045L237.682 232.013ZM244.943 231.894L242.943 231.926L243.515 266.831L245.515 266.798L247.515 266.765L246.942 231.861L244.943 231.894ZM245.515 266.798L245.482 264.798L238.222 264.917L238.255 266.917L238.287 268.917L245.548 268.798L245.515 266.798ZM238.255 266.917L240.254 266.884L239.682 231.98L237.682 232.013L235.683 232.045L236.255 266.95L238.255 266.917ZM237.682 232.013L237.715 234.012L244.975 233.893L244.943 231.894L244.91 229.894L237.649 230.013L237.682 232.013ZM262.575 266.518L260.575 266.551L260.608 268.551L262.608 268.518L262.575 266.518ZM262.003 231.614L261.97 229.614L259.97 229.647L260.003 231.647L262.003 231.614ZM282.565 232.794L281.64 234.567L281.648 234.571L282.565 232.794ZM286.894 236.9L285.156 237.889L285.16 237.896L285.163 237.902L286.894 236.9ZM282.8 253.384L281.847 251.625L281.843 251.628L282.8 253.384ZM267.196 255.123L265.196 255.156L265.229 257.155L267.229 257.122L267.196 255.123ZM267.099 249.209L267.066 247.209L265.066 247.242L265.099 249.242L267.099 249.209ZM278.182 248.294L279.149 250.045L279.156 250.041L278.182 248.294ZM280.227 246.198L278.442 245.296L278.438 245.305L280.227 246.198ZM280.128 240.113L278.368 241.064L278.376 241.078L278.383 241.092L280.128 240.113ZM278.015 238.119L277.115 239.905L277.124 239.91L277.133 239.914L278.015 238.119ZM269.481 237.526L269.449 235.526L267.449 235.559L267.482 237.559L269.481 237.526ZM269.955 266.397L269.988 268.397L271.987 268.364L271.955 266.364L269.955 266.397ZM262.575 266.518L264.575 266.485L264.003 231.581L262.003 231.614L260.003 231.647L260.575 266.551L262.575 266.518ZM262.003 231.614L262.036 233.614L275.807 233.388L275.774 231.388L275.741 229.388L261.97 229.614L262.003 231.614ZM275.774 231.388L275.807 233.388C278.202 233.348 280.12 233.774 281.64 234.567L282.565 232.794L283.49 231.021C281.25 229.852 278.64 229.341 275.741 229.388L275.774 231.388ZM282.565 232.794L281.648 234.571C283.198 235.371 284.349 236.472 285.156 237.889L286.894 236.9L288.632 235.91C287.426 233.792 285.691 232.156 283.481 231.016L282.565 232.794ZM286.894 236.9L285.163 237.902C285.987 239.324 286.444 241.018 286.478 243.044L288.477 243.011L290.477 242.978C290.434 240.368 289.836 237.988 288.625 235.897L286.894 236.9ZM288.477 243.011L286.478 243.044C286.511 245.066 286.105 246.771 285.32 248.217L287.078 249.171L288.836 250.125C289.993 247.993 290.52 245.592 290.477 242.978L288.477 243.011ZM287.078 249.171L285.32 248.217C284.544 249.648 283.406 250.78 281.847 251.625L282.8 253.384L283.753 255.142C285.956 253.948 287.671 252.272 288.836 250.125L287.078 249.171ZM282.8 253.384L281.843 251.628C280.321 252.457 278.38 252.939 275.94 252.979L275.973 254.979L276.006 256.979C278.929 256.931 281.539 256.349 283.757 255.14L282.8 253.384ZM275.973 254.979L275.94 252.979L267.163 253.123L267.196 255.123L267.229 257.122L276.006 256.979L275.973 254.979ZM267.196 255.123L269.196 255.09L269.099 249.176L267.099 249.209L265.099 249.242L265.196 255.156L267.196 255.123ZM267.099 249.209L267.132 251.208L274.716 251.084L274.683 249.084L274.65 247.085L267.066 247.209L267.099 249.209ZM274.683 249.084L274.716 251.084C276.35 251.057 277.865 250.753 279.149 250.045L278.182 248.294L277.215 246.543C276.674 246.842 275.857 247.065 274.65 247.085L274.683 249.084ZM278.182 248.294L279.156 250.041C280.405 249.344 281.384 248.359 282.017 247.09L280.227 246.198L278.438 245.305C278.19 245.801 277.806 246.213 277.208 246.547L278.182 248.294ZM280.227 246.198L282.013 247.099C282.63 245.876 282.899 244.527 282.876 243.103L280.876 243.135L278.876 243.168C278.891 244.039 278.727 244.732 278.442 245.296L280.227 246.198ZM280.876 243.135L282.876 243.103C282.852 241.672 282.541 240.328 281.872 239.135L280.128 240.113L278.383 241.092C278.674 241.61 278.862 242.281 278.876 243.168L280.876 243.135ZM280.128 240.113L281.887 239.162C281.208 237.906 280.186 236.958 278.898 236.324L278.015 238.119L277.133 239.914C277.724 240.205 278.109 240.586 278.368 241.064L280.128 240.113ZM278.015 238.119L278.915 236.333C277.601 235.671 276.069 235.418 274.425 235.445L274.458 237.444L274.491 239.444C275.71 239.424 276.55 239.621 277.115 239.905L278.015 238.119ZM274.458 237.444L274.425 235.445L269.449 235.526L269.481 237.526L269.514 239.526L274.491 239.444L274.458 237.444ZM269.481 237.526L267.482 237.559L267.955 266.43L269.955 266.397L271.955 266.364L271.481 237.493L269.481 237.526ZM269.955 266.397L269.922 264.397L262.542 264.518L262.575 266.518L262.608 268.518L269.988 268.397L269.955 266.397ZM298.049 264.811L297.087 266.565L297.099 266.571L298.049 264.811ZM293.507 260.215L291.746 261.162L291.748 261.166L293.507 260.215ZM293.273 245.95L291.48 245.065L291.48 245.065L293.273 245.95ZM297.61 241.122L296.559 239.421L296.554 239.423L297.61 241.122ZM309.134 240.064L308.464 241.948L308.472 241.951L308.481 241.954L309.134 240.064ZM313.094 242.471L311.711 243.915L311.718 243.922L313.094 242.471ZM315.787 246.586L313.925 247.318L313.927 247.322L315.787 246.586ZM316.852 254.394L316.885 256.393L318.885 256.361L318.852 254.361L316.852 254.394ZM294.747 254.756L292.748 254.789L292.781 256.789L294.78 256.756L294.747 254.756ZM294.674 250.257L294.641 248.257L292.641 248.29L292.674 250.29L294.674 250.257ZM309.944 250.006L309.977 252.006L311.977 251.973L311.944 249.974L309.944 250.006ZM309.217 247.24L307.491 248.25L307.491 248.25L309.217 247.24ZM307.294 245.379L306.312 247.121L306.327 247.129L306.341 247.137L307.294 245.379ZM301.586 245.541L302.636 247.243L302.643 247.238L301.586 245.541ZM299.642 247.601L301.398 248.56L301.403 248.55L299.642 247.601ZM298.955 250.425L296.955 250.436L296.956 250.447L296.956 250.458L298.955 250.425ZM299.796 258.049L298.027 258.981L298.031 258.989L298.036 258.998L299.796 258.049ZM307.27 260.535L306.597 258.651L306.597 258.651L307.27 260.535ZM308.975 259.484L307.572 258.058L307.572 258.058L308.975 259.484ZM310.038 257.796L310.137 255.798L308.659 255.725L308.157 257.117L310.038 257.796ZM316.76 258.129L318.724 258.51L319.163 256.245L316.859 256.131L316.76 258.129ZM314.733 262.39L313.208 261.096L313.208 261.097L314.733 262.39ZM310.723 265.251L311.496 267.096L311.502 267.093L310.723 265.251ZM305.03 266.333L304.997 264.334C302.576 264.373 300.602 263.917 298.999 263.052L298.049 264.811L297.099 266.571C299.418 267.824 302.098 268.382 305.062 268.333L305.03 266.333ZM298.049 264.811L299.012 263.058C297.406 262.177 296.166 260.926 295.267 259.263L293.507 260.215L291.748 261.166C293.006 263.491 294.793 265.305 297.087 266.564L298.049 264.811ZM293.507 260.215L295.269 259.267C294.37 257.597 293.863 255.541 293.821 253.032L291.822 253.065L289.822 253.098C289.871 256.111 290.487 258.822 291.746 261.162L293.507 260.215ZM291.822 253.065L293.821 253.032C293.782 250.601 294.219 248.554 295.067 246.835L293.273 245.95L291.48 245.065C290.304 247.447 289.773 250.144 289.822 253.098L291.822 253.065ZM293.273 245.95L295.067 246.835C295.92 245.107 297.115 243.784 298.665 242.821L297.61 241.122L296.554 239.423C294.347 240.795 292.651 242.691 291.48 245.065L293.273 245.95ZM297.61 241.122L298.661 242.824C300.199 241.873 302.065 241.345 304.329 241.307L304.297 239.308L304.264 237.308C301.393 237.355 298.8 238.036 296.559 239.421L297.61 241.122ZM304.297 239.308L304.329 241.307C305.838 241.283 307.21 241.503 308.464 241.948L309.134 240.064L309.803 238.179C308.062 237.56 306.209 237.276 304.264 237.308L304.297 239.308ZM309.134 240.064L308.481 241.954C309.722 242.383 310.791 243.035 311.711 243.915L313.094 242.471L314.477 241.026C313.133 239.739 311.563 238.786 309.786 238.173L309.134 240.064ZM313.094 242.471L311.718 243.922C312.622 244.779 313.366 245.894 313.925 247.318L315.787 246.586L317.648 245.855C316.903 243.958 315.852 242.33 314.47 241.019L313.094 242.471ZM315.787 246.586L313.927 247.322C314.471 248.697 314.786 250.387 314.82 252.432L316.82 252.4L318.82 252.367C318.78 249.958 318.407 247.772 317.647 245.851L315.787 246.586ZM316.82 252.4L314.82 252.432L314.853 254.426L316.852 254.394L318.852 254.361L318.82 252.367L316.82 252.4ZM316.852 254.394L316.82 252.394L294.715 252.756L294.747 254.756L294.78 256.756L316.885 256.393L316.852 254.394ZM294.747 254.756L296.747 254.723L296.673 250.224L294.674 250.257L292.674 250.29L292.748 254.789L294.747 254.756ZM294.674 250.257L294.706 252.257L309.977 252.006L309.944 250.006L309.912 248.007L294.641 248.257L294.674 250.257ZM309.944 250.006L311.944 249.974C311.922 248.63 311.606 247.362 310.943 246.229L309.217 247.24L307.491 248.25C307.763 248.715 307.932 249.293 307.945 250.039L309.944 250.006ZM309.217 247.24L310.943 246.229C310.291 245.115 309.383 244.236 308.247 243.62L307.294 245.379L306.341 247.137C306.834 247.404 307.208 247.766 307.491 248.25L309.217 247.24ZM307.294 245.379L308.277 243.637C307.121 242.985 305.831 242.704 304.472 242.726L304.505 244.726L304.538 246.725C305.292 246.713 305.861 246.867 306.312 247.121L307.294 245.379ZM304.505 244.726L304.472 242.726C303.048 242.749 301.713 243.105 300.529 243.843L301.586 245.541L302.643 247.238C303.146 246.925 303.757 246.738 304.538 246.725L304.505 244.726ZM301.586 245.541L300.536 243.838C299.405 244.536 298.511 245.483 297.881 246.653L299.642 247.601L301.403 248.55C301.699 247.999 302.102 247.572 302.636 247.243L301.586 245.541ZM299.642 247.601L297.887 246.643C297.25 247.809 296.948 249.088 296.955 250.436L298.955 250.425L300.955 250.414C300.952 249.695 301.108 249.09 301.398 248.56L299.642 247.601ZM298.955 250.425L296.956 250.458L297.026 254.736L299.026 254.703L301.025 254.67L300.955 250.392L298.955 250.425ZM299.026 254.703L297.026 254.736C297.051 256.275 297.359 257.713 298.027 258.981L299.796 258.049L301.566 257.117C301.249 256.515 301.043 255.721 301.025 254.67L299.026 254.703ZM299.796 258.049L298.036 258.998C298.714 260.256 299.682 261.255 300.924 261.945L301.894 260.197L302.865 258.448C302.318 258.144 301.887 257.712 301.557 257.1L299.796 258.049ZM301.894 260.197L300.924 261.945C302.178 262.642 303.593 262.936 305.093 262.912L305.06 260.912L305.027 258.912C304.096 258.927 303.4 258.745 302.865 258.448L301.894 260.197ZM305.06 260.912L305.093 262.912C306.088 262.895 307.044 262.739 307.943 262.418L307.27 260.535L306.597 258.651C306.162 258.807 305.646 258.902 305.027 258.912L305.06 260.912ZM307.27 260.535L307.943 262.418C308.863 262.089 309.686 261.59 310.378 260.909L308.975 259.484L307.572 258.058C307.324 258.302 307.011 258.503 306.597 258.651L307.27 260.535ZM308.975 259.484L310.378 260.909C311.075 260.223 311.586 259.399 311.919 258.474L310.038 257.796L308.157 257.117C308.012 257.519 307.813 257.82 307.572 258.058L308.975 259.484ZM310.038 257.796L309.939 259.793L316.661 260.126L316.76 258.129L316.859 256.131L310.137 255.798L310.038 257.796ZM316.76 258.129L314.797 257.747C314.546 259.04 314.017 260.143 313.208 261.096L314.733 262.39L316.258 263.684C317.524 262.193 318.346 260.456 318.724 258.51L316.76 258.129ZM314.733 262.39L313.208 261.097C312.409 262.039 311.34 262.818 309.943 263.41L310.723 265.251L311.502 267.093C313.401 266.289 315.006 265.161 316.259 263.683L314.733 262.39ZM310.723 265.251L309.95 263.407C308.593 263.976 306.955 264.302 304.997 264.334L305.03 266.333L305.062 268.333C307.422 268.295 309.58 267.899 311.496 267.096L310.723 265.251ZM335.27 239.141L337.269 239.108L337.237 237.108L335.237 237.141L335.27 239.141ZM335.359 244.595L335.392 246.594L337.392 246.562L337.359 244.562L335.359 244.595ZM319.594 244.853L317.594 244.886L317.627 246.886L319.627 246.853L319.594 244.853ZM319.505 239.399L319.472 237.4L317.472 237.432L317.505 239.432L319.505 239.399ZM322.981 233.069L322.948 231.069L320.948 231.102L320.981 233.102L322.981 233.069ZM330.241 232.95L332.241 232.917L332.208 230.917L330.209 230.95L330.241 232.95ZM330.974 258.918L329.234 259.905L329.241 259.916L329.247 259.927L330.974 258.918ZM331.839 259.671L331.116 261.536L331.126 261.54L331.136 261.544L331.839 259.671ZM334.159 259.77L334.52 261.737L334.552 261.731L334.583 261.724L334.159 259.77ZM334.94 259.604L336.89 259.158L336.455 257.252L334.54 257.644L334.94 259.604ZM336.171 264.987L336.799 266.886L338.526 266.315L338.121 264.542L336.171 264.987ZM334.643 265.405L334.174 263.46L334.158 263.464L334.142 263.468L334.643 265.405ZM332.245 265.734L332.14 263.737L332.134 263.737L332.245 265.734ZM327.632 265.11L326.906 266.974L326.911 266.976L327.632 265.11ZM324.54 262.672L326.202 261.559L326.202 261.559L324.54 262.672ZM323.397 258.429L325.397 258.409L325.397 258.396L323.397 258.429ZM335.27 239.141L333.27 239.174L333.359 244.627L335.359 244.595L337.359 244.562L337.269 239.108L335.27 239.141ZM335.359 244.595L335.326 242.595L319.561 242.853L319.594 244.853L319.627 246.853L335.392 246.594L335.359 244.595ZM319.594 244.853L321.594 244.82L321.504 239.367L319.505 239.399L317.505 239.432L317.594 244.886L319.594 244.853ZM319.505 239.399L319.538 241.399L335.302 241.141L335.27 239.141L335.237 237.141L319.472 237.4L319.505 239.399ZM322.981 233.069L323.014 235.069L330.274 234.949L330.241 232.95L330.209 230.95L322.948 231.069L322.981 233.069ZM330.241 232.95L328.242 232.983L328.642 257.388L330.642 257.356L332.641 257.323L332.241 232.917L330.241 232.95ZM330.642 257.356L328.642 257.388C328.655 258.221 328.79 259.122 329.234 259.905L330.974 258.918L332.714 257.932C332.731 257.962 332.712 257.941 332.689 257.833C332.666 257.726 332.645 257.56 332.641 257.323L330.642 257.356ZM330.974 258.918L329.247 259.927C329.671 260.652 330.301 261.221 331.116 261.536L331.839 259.671L332.561 257.806C332.588 257.817 332.626 257.838 332.661 257.869C332.696 257.898 332.706 257.919 332.701 257.909L330.974 258.918ZM331.839 259.671L331.136 261.544C331.793 261.79 332.483 261.883 333.17 261.871L333.138 259.872L333.105 257.872C332.815 257.877 332.64 257.836 332.541 257.799L331.839 259.671ZM333.138 259.872L333.17 261.871C333.623 261.864 334.073 261.819 334.52 261.737L334.159 259.77L333.798 257.803C333.565 257.845 333.334 257.868 333.105 257.872L333.138 259.872ZM334.159 259.77L334.583 261.724C334.921 261.651 335.172 261.598 335.341 261.563L334.94 259.604L334.54 257.644C334.346 257.684 334.077 257.741 333.735 257.815L334.159 259.77ZM334.94 259.604L332.991 260.049L334.221 265.433L336.171 264.987L338.121 264.542L336.89 259.158L334.94 259.604ZM336.171 264.987L335.543 263.089C335.259 263.183 334.811 263.307 334.174 263.46L334.643 265.405L335.113 267.349C335.789 267.186 336.36 267.032 336.799 266.886L336.171 264.987ZM334.643 265.405L334.142 263.468C333.655 263.595 332.997 263.691 332.14 263.737L332.245 265.734L332.35 267.731C333.378 267.677 334.319 267.554 335.144 267.341L334.643 265.405ZM332.245 265.734L332.134 263.737C330.605 263.822 329.361 263.634 328.352 263.245L327.632 265.11L326.911 266.976C328.557 267.612 330.388 267.84 332.356 267.731L332.245 265.734ZM327.632 265.11L328.358 263.247C327.402 262.874 326.707 262.313 326.202 261.559L324.54 262.672L322.879 263.785C323.865 265.257 325.231 266.321 326.906 266.974L327.632 265.11ZM324.54 262.672L326.202 261.559C325.727 260.85 325.411 259.844 325.397 258.409L323.397 258.429L321.397 258.449C321.416 260.446 321.863 262.269 322.879 263.785L324.54 262.672ZM323.397 258.429L325.397 258.396L324.981 233.036L322.981 233.069L320.981 233.102L321.397 258.462L323.397 258.429Z" fill="black" mask="url(#path-2-outside-1_64_144)"/>
<path d="M391.322 188.667C403.08 188.667 412.621 198.1 412.621 209.667V232.64L414.451 229.922C426.478 212.057 444.826 210.759 450.589 210.674C453.754 224.107 465.976 234.134 480.521 234.134C482.757 234.134 484.894 233.822 486.953 233.359V279.333C486.953 280.794 485.75 282 484.236 282H476.804C475.29 282 474.087 280.794 474.087 279.333V244.35L472.492 245.529L442.76 267.529L440.321 269.333H450.787C454.352 269.333 457.221 272.183 457.221 275.667V279.333C457.221 280.794 456.018 282 454.504 282H413.621C405.961 282 399.755 275.857 399.755 268.333V209.667C399.755 205.06 395.959 201.333 391.322 201.333C387.757 201.333 384.889 198.484 384.889 195C384.889 191.516 387.757 188.667 391.322 188.667ZM472.385 188.379L472.677 188.667H488.363L488.655 188.379L501.819 175.392V203.8C501.819 215.385 492.297 224.8 480.521 224.8C468.744 224.8 459.221 215.385 459.221 203.8V175.391L472.385 188.379ZM471.229 197.667C468.636 197.667 466.512 199.742 466.512 202.333C466.512 204.924 468.636 207 471.229 207C473.821 207 475.945 204.924 475.945 202.333C475.945 199.742 473.821 197.667 471.229 197.667ZM489.812 197.667C487.219 197.667 485.095 199.742 485.095 202.333C485.095 204.924 487.219 207 489.812 207C492.404 207 494.528 204.924 494.528 202.333C494.528 199.742 492.404 197.667 489.812 197.667Z" stroke="black" stroke-width="2"/>
</svg>