<svg version="1.1" xmlns="http://www.w3.org/2000/svg" xmlns:xlink="http://www.w3.org/1999/xlink" x="0px" y="0px"
	id="react-svg" width="90%" viewBox="0 0 400 400"  xml:space="preserve">
<path fill="none" opacity="1.000000" stroke="#00000060" stroke-dasharray="1000" stroke-dashoffset="1000"   stroke-width="0.25"
  stroke-linecap="round" 
	d="
M223.091400,284.016632 
	C216.210999,279.796173 210.164917,275.045685 204.965103,269.406311 
	C201.855530,266.033875 199.936646,266.428589 197.012436,269.551147 
	C191.645752,275.281830 185.361496,279.987396 178.682663,284.132263 
	C174.410690,286.783417 169.904526,288.883911 164.945786,289.920593 
	C153.980637,292.212921 145.837555,287.679901 142.298050,277.022430 
	C138.817749,266.543182 140.062103,255.951965 142.278809,245.465515 
	C144.733139,233.855087 144.885757,233.836487 133.837891,230.094284 
	C126.079552,227.466309 118.535515,224.431992 111.788445,219.677475 
	C96.708870,209.051315 96.758072,192.789566 111.903931,182.296448 
	C120.522118,176.325729 130.279968,172.932022 140.215057,170.071075 
	C143.916779,169.005112 144.815414,167.558044 143.841171,163.707138 
	C141.147858,153.061432 139.094177,142.369522 140.583237,131.164490 
	C142.602158,115.972389 153.105011,108.507294 167.860001,112.826256 
	C178.895370,116.056435 187.361588,123.436760 195.586395,131.036667 
	C201.596649,136.590302 200.022949,137.140640 206.687454,130.832855 
	C213.485077,124.399055 220.765228,118.584625 229.413956,114.759064 
	C233.232620,113.069962 237.159256,111.742287 241.427673,111.702637 
	C250.130875,111.621811 256.428986,115.892311 259.362732,124.103310 
	C263.583893,135.917603 261.762024,147.755112 259.236053,159.542130 
	C257.305603,168.550323 257.202148,168.545456 266.140137,171.398514 
	C275.701965,174.450714 285.070038,177.946976 292.853210,184.538315 
	C297.527588,188.496902 301.013977,193.182419 301.390320,199.739502 
	C301.900146,208.621490 297.208862,214.527267 290.633911,219.370483 
	C282.043030,225.698624 272.097137,229.148148 261.972717,231.952209 
	C257.932892,233.071075 257.164062,234.645706 258.176025,238.628342 
	C260.674103,248.459900 262.620758,258.370544 261.476898,268.700348 
	C259.326050,288.123657 246.844803,295.408020 229.136078,287.247986 
	C227.174362,286.344086 225.309113,285.230804 223.091400,284.016632 
M202.491196,229.886444 
	C206.157089,229.832489 209.824936,229.682678 213.488235,229.756973 
	C216.098160,229.809906 217.850067,228.798645 219.249146,226.597504 
	C223.898758,219.282440 228.463242,211.929565 232.365524,204.172806 
	C233.542191,201.833893 233.524033,199.841934 232.217148,197.616837 
	C228.000351,190.437302 223.846695,183.220184 219.727112,175.984314 
	C218.263062,173.412796 216.234741,172.207169 213.217514,172.263931 
	C208.220963,172.357971 203.216827,172.076660 198.221252,172.189941 
	C181.777649,172.562729 185.771286,169.720093 177.428940,184.202759 
	C165.494110,204.922165 165.987610,197.277206 177.254944,217.760620 
	C184.010422,230.041718 184.387741,229.834366 198.495895,229.886520 
	C199.495804,229.890213 200.495743,229.887939 202.491196,229.886444 
M153.174332,210.785324 
	C154.378052,206.771713 158.377136,203.428238 156.600266,198.725128 
	C154.368073,192.816879 151.740875,187.058655 149.331055,181.216324 
	C148.458359,179.100571 147.235199,177.985016 144.741257,178.627136 
	C134.853256,181.172897 125.263786,184.436813 116.915405,190.514420 
	C107.272400,197.534485 107.429802,205.139603 117.292625,211.904678 
	C124.080147,216.560349 131.584671,219.696335 139.443939,222.040390 
	C147.856949,224.549606 147.850052,224.558868 150.876129,216.603149 
	C151.526901,214.892242 152.215179,213.195633 153.174332,210.785324 
M272.734558,183.816147 
	C268.201874,181.655075 263.339325,180.462387 258.597137,178.902908 
	C255.389969,177.848236 253.636215,178.644714 252.435043,181.793167 
	C250.299362,187.391159 247.921326,192.897400 245.603577,198.424789 
	C244.935989,200.016830 244.598907,201.534882 245.318832,203.230865 
	C247.855179,209.205933 250.347488,215.200012 252.807190,221.207062 
	C253.514465,222.934311 254.505783,224.160538 256.539062,223.626999 
	C268.209290,220.564590 279.682251,216.957077 288.699707,208.409348 
	C293.579010,203.784195 293.434753,198.323196 288.619659,193.549927 
	C284.299133,189.266922 279.036407,186.389755 272.734558,183.816147 
M211.159943,139.676865 
	C208.036499,142.073059 207.504517,144.593521 210.660141,147.438812 
	C211.512085,148.206970 212.226944,149.185638 212.813766,150.180328 
	C218.326935,159.525284 225.466614,165.246948 237.301025,165.415802 
	C249.417542,165.588684 247.359497,168.909714 250.400146,156.201736 
	C252.368027,147.977341 253.424744,139.548950 251.764221,130.994568 
	C250.146957,122.663094 245.009796,119.256989 236.974670,121.860710 
	C234.152420,122.775223 231.421982,124.122803 228.842773,125.608040 
	C222.463577,129.281494 216.868423,133.996597 211.159943,139.676865 
M163.009674,280.734741 
	C176.024323,277.041992 185.237595,268.078308 194.370361,258.890747 
	C189.551712,252.401962 185.098724,246.423019 180.668442,240.427307 
	C179.587250,238.964050 178.113724,238.499771 176.376770,238.280716 
	C170.282730,237.512131 164.180923,236.760010 158.128311,235.729935 
	C155.703766,235.317291 154.177689,235.827560 153.546524,238.187027 
	C150.616089,249.141953 148.151505,260.162292 150.382721,271.594269 
	C151.744278,278.570435 154.948990,281.004486 163.009674,280.734741 
M226.766251,238.225769 
	C224.792786,238.384766 222.849121,238.310989 221.428482,240.262665 
	C217.607193,245.512405 213.646225,250.661102 209.702881,255.821014 
	C208.471054,257.432861 207.830246,258.938385 209.514557,260.667816 
	C217.473480,268.839966 225.868668,276.463257 236.923706,280.204285 
	C244.718048,282.841858 250.026886,279.620758 251.634445,271.507294 
	C253.870392,260.222443 251.371063,249.335388 248.539627,238.502213 
	C247.901932,236.062256 246.316620,235.622421 243.958603,235.995483 
	C238.535645,236.853455 233.073898,237.466309 226.766251,238.225769 
M150.267151,130.882919 
	C148.199417,142.165878 150.729706,152.990906 153.560852,163.781906 
	C154.196289,166.203918 155.728699,166.585999 158.121704,166.191040 
	C164.178818,165.191299 170.283218,164.460800 176.383728,163.751984 
	C178.166901,163.544815 179.505997,162.926895 180.591400,161.492981 
	C184.502975,156.325516 188.427582,151.166626 192.438431,146.076340 
	C193.799011,144.349579 193.955383,142.940170 192.342361,141.294891 
	C184.851074,133.653809 176.933914,126.564812 166.854340,122.485085 
	C158.051682,118.922218 153.455261,121.137459 150.267151,130.882919 
M196.480179,155.975006 
	C195.219330,157.962708 193.113022,159.513336 192.874023,162.614319 
	C198.533173,162.620544 203.822205,163.168350 209.914215,162.139725 
	C206.815231,157.870590 204.710556,154.012100 200.970108,151.482346 
	C199.027954,152.478897 197.980942,153.964890 196.480179,155.975006 
M203.332901,248.680344 
	C205.123840,245.702316 208.627670,243.756210 209.032257,239.887604 
	C203.408829,239.887604 198.118759,239.887604 192.507187,239.887604 
	C194.058273,244.033478 197.018753,246.351807 199.167007,249.245407 
	C200.334244,250.817627 201.664185,250.599762 203.332901,248.680344 
M165.531830,185.807770 
	C167.681091,181.972656 169.830353,178.137527 172.323135,173.689407 
	C167.024963,174.490250 162.399261,174.266876 157.733582,176.363052 
	C159.117218,180.884186 160.288162,185.203201 163.295258,189.277634 
	C164.130325,188.005905 164.664032,187.193100 165.531830,185.807770 
M158.160919,224.004807 
	C157.843994,225.280090 157.987457,226.393997 159.524521,226.616974 
	C163.370270,227.174850 167.172546,228.330170 171.874298,227.720093 
	C168.998337,222.518692 166.356873,217.741379 163.048874,211.758606 
	C161.137009,216.442719 159.732956,219.882675 158.160919,224.004807 
M242.701385,181.378891 
	C243.312103,179.695206 244.403107,178.101303 243.549973,175.669632 
	C239.573639,175.390869 235.594299,173.413559 230.543823,174.836502 
	C233.020065,179.980728 235.584976,184.599640 238.734634,189.194855 
	C240.901505,186.799545 241.360962,184.274216 242.701385,181.378891 
M234.102371,227.860641 
	C236.543686,227.491516 238.986053,227.129333 241.425949,226.751007 
	C243.262833,226.466171 244.087479,225.323624 243.546097,223.595993 
	C242.400894,219.941452 241.462860,216.155167 238.524368,212.711136 
	C235.627167,217.821747 232.983932,222.484375 230.431152,226.987427 
	C231.399521,228.414062 232.459930,227.851471 234.102371,227.860641 
z"/>
<path fill="none" opacity="1.000000" stroke="#0000009c" stroke-dasharray="1000" stroke-dashoffset="1000"   stroke-width="1"
  stroke-linecap="round" 
	d="
M216.513702,193.867523 
	C219.860458,203.760132 216.760818,212.491837 208.836258,216.321838 
	C200.533295,220.334717 191.374878,217.819046 186.549896,210.200134 
	C181.852783,202.783066 183.626190,192.489517 190.483322,187.369232 
	C198.077927,181.698212 208.129944,182.885056 214.146851,190.205612 
	C214.982742,191.222595 215.618820,192.403839 216.513702,193.867523 
M204.185928,194.204834 
	C199.116806,192.815475 195.175476,194.451233 193.759872,198.776505 
	C192.436859,202.818817 193.881470,205.970383 197.580902,207.940979 
	C201.121399,209.826889 205.841965,208.221451 207.785538,204.468201 
	C209.943497,200.300980 208.160263,197.170746 204.185928,194.204834 
z"/>
</svg>