<svg id="market-svg" width="1440" height="1024" viewBox="0 0 1440 1024" fill="none"  xmlns="http://www.w3.org/2000/svg">
<g clip-path="url(#clip0_89_130)" fill="#b5b5b5ff"  stroke="#b1afafff" >
<rect width="1440" height="1024" fill="white"/>
<path id="market-path"  d="M1456.5 597.5L396 679.5L404 771L374 817L1503.28 1070.85L1456.5 597.5Z" fill="#BDBDBD" stroke="white"/>
<path id="market-path1" d="M1031.5 1.50002L350.5 594L293.5 559.927L226.5 483L258.5 -33L1031.5 1.50002Z" fill="#BFBFBF"/>
<path id="market-path2" d="M484.245 232.171C484.245 232.171 258.717 346.296 358.757 314.291C458.796 282.285 538.383 240.3 535.919 302.553C533.454 364.806 364.417 312.943 363.711 384.19" stroke="white" stroke-width="18" stroke-linecap="round"/>
<g clip-path="url(#clip1_89_130)">
<path id="market-path3" d="M1150 195C1223.93 195 1283.75 243.666 
1283.75 303.625C1283.75 363.584 1223.93 412.25 
1150 412.25C1132.86 412.25 1116.55 409.532 1101.45
 404.776L1101.33 404.739L1101.23 404.811C1086.02 415.576 
 1060.68 429 1028.56 429C1023.64 429 1019.17 426.076 1017.22 
 421.562C1015.27 417.047 1016.2 411.813 1019.58 408.222C1019.6 
 408.202 1019.63 408.179 1019.65 408.155C1019.69 408.114 1019.75 
 408.056 1019.81 407.983C1019.95 407.837 1020.14 407.628 1020.39 
 407.357C1020.87 406.817 1021.56 406.034 1022.4 405.037C1024.09 
 403.043 1026.39 400.188 1028.92 396.695C1033.99 389.711 1040.01 
 380.164 1043.92 369.823L1043.98 369.678L1043.87 369.563C1026.64 
 351.23 1016.25 328.467 1016.25 303.625C1016.25 243.666 1076.07 195 
 1150 195ZM1150 219.625C1119.93 219.625 1092.66 229.036 1072.9 
 244.239C1053.13 259.442 1040.88 280.448 1040.88 303.625C1040.88 
 325.11 1051.58 341.507 1060.88 351.717L1061.78 352.686L1072.45 363.982L1066.96 378.545C1064.09 386.117 1060.38 393.222 1056.56 399.547L1056.22 400.118L1056.85 399.914C1068.46 396.176 1078.22 390.731 1085.58 385.7L1087.02 384.7L1097.12 377.548L1108.89 381.279C1122.15 385.474 1136 387.625 1150 387.625C1180.07 387.625 1207.34 378.214 1227.1 363.011C1246.87 347.808 1259.13 326.802 1259.13 303.625C1259.13 280.448 1246.87 259.442 1227.1 244.239C1207.34 229.036 1180.07 219.625 1150 219.625ZM1091.38 287.125C1100.5 287.125 1107.88 294.498 1107.88 303.625C1107.88 312.752 1100.5 320.125 1091.38 320.125C1082.25 320.125 1074.88 312.752 1074.88 303.625C1074.88 294.498 1082.25 287.125 1091.38 287.125ZM1150 287.125C1159.13 287.125 1166.5 294.498 1166.5 303.625C1166.5 312.752 1159.13 320.125 1150 320.125C1140.87 320.125 1133.5 312.752 1133.5 303.625C1133.5 294.498 1140.87 287.125 1150 287.125ZM1208.63 287.125C1217.75 287.125 1225.13 294.498 1225.13 303.625C1225.13 312.752 1217.75 320.125 1208.63 320.125C1199.5 320.125 1192.13 312.752 1192.13 303.625C1192.13 294.498 1199.5 287.125 1208.63 287.125Z" fill="#d9d9d9ff" stroke="#CBCBCB" stroke-width="0.5"/>
</g>
<path id="market-path4" d="M1283.5 701.859C1215.29 701.859 1160 755.423 1160 821.5C1160 887.577 1215.29 941.141 1283.5 941.141C1351.71 941.141 1407 887.577 1407 821.5C1407 755.423 1351.71 701.859 1283.5 701.859ZM1324.48 874.373C1322.54 876.245 1320.5 878.209 1318.85 879.815C1317.36 881.262 1316.31 883.047 1315.77 884.982C1315.02 887.712 1314.41 890.472 1313.4 893.12L1304.74 915.722C1297.89 917.169 1290.8 917.984 1283.5 917.984V904.776C1284.34 898.687 1279.7 887.283 1272.23 880.052C1269.24 877.157 1267.56 873.23 1267.56 869.134V853.692C1267.56 848.077 1264.44 842.915 1259.37 840.199C1252.21 836.363 1242.03 831.004 1235.06 827.603C1229.34 824.814 1224.06 821.264 1219.3 817.11L1218.9 816.763C1215.5 813.789 1212.48 810.429 1209.91 806.757C1205.24 800.114 1197.63 789.187 1192.68 782.086C1202.88 760.136 1221.25 742.508 1244.07 732.932L1256.03 738.726C1261.33 741.293 1267.56 737.563 1267.56 731.823V726.371C1271.54 725.749 1275.59 725.353 1279.71 725.204L1293.8 738.856C1296.92 741.871 1296.92 746.758 1293.8 749.774L1291.47 752.031L1286.32 757.019C1284.76 758.525 1284.76 760.971 1286.32 762.476L1288.65 764.738C1290.21 766.243 1290.21 768.689 1288.65 770.194L1284.67 774.054C1283.92 774.777 1282.91 775.183 1281.85 775.183H1277.37C1276.34 775.183 1275.34 775.573 1274.6 776.278L1269.66 780.933C1269.05 781.504 1268.65 782.247 1268.51 783.055C1268.37 783.862 1268.49 784.692 1268.87 785.424L1276.63 800.471C1277.96 803.038 1276.03 806.058 1273.07 806.058H1270.26C1269.3 806.058 1268.38 805.72 1267.65 805.112L1263.03 801.224C1261.99 800.345 1260.72 799.745 1259.37 799.483C1258.01 799.22 1256.6 799.305 1255.29 799.728L1239.77 804.741C1238.58 805.123 1237.55 805.858 1236.82 806.84C1236.09 807.822 1235.7 809.001 1235.7 810.211C1235.7 812.397 1236.97 814.389 1238.99 815.368L1244.51 818.041C1249.19 820.313 1254.36 821.495 1259.6 821.495C1264.84 821.495 1270.85 834.66 1275.54 836.933H1308.78C1313.01 836.933 1317.05 838.558 1320.05 841.453L1326.86 848.057C1329.71 850.817 1331.31 854.561 1331.31 858.463C1331.31 861.42 1330.71 864.348 1329.53 867.079C1328.36 869.809 1326.64 872.288 1324.48 874.373V874.373ZM1367.66 830.304C1364.78 829.605 1362.26 827.892 1360.61 825.494L1351.66 812.484C1350.35 810.583 1349.65 808.348 1349.65 806.062C1349.65 803.777 1350.35 801.542 1351.66 799.641L1361.41 785.468C1362.57 783.794 1364.15 782.433 1366.02 781.536L1372.48 778.405C1379.21 791.392 1383.1 806 1383.1 821.5C1383.1 825.683 1382.73 829.778 1382.19 833.821L1367.66 830.304Z" fill="white"/>
<path id="market-path5" d="M348.037 -644.532L337.5 -30L300 154.5L259 353.5L228.5 515.5L259 515.5L396.5 757.5L1335.12 1041.06L178.23 1319.25L37.0528 2500.71L-585.019 1486.41L-1752.28 1717.23L-979.853 812.171L-1560.08 -226.635L-460.625 228.311L348.037 -644.532Z" fill="#D9D9D9"/>
<g clip-path="url(#clip2_89_130)">
<path id="market-path6" d="M410.304 604.323C399.279 585.19 378.553 575.12 356.902 575.646L285.581 451.87C281.499 444.786 264.608 429.432 242.962 441.905C236.802 445.454 231.796 450.906 228.951 457.549L187.126 555.021C166.103 603.955 128.489 645.915 81.1991 673.164L-84.9116 768.88C-115.495 786.502 -126.915 823.982 -110.423 852.604L-65.6342 930.333C-49.1418 958.955 -10.9883 967.87 19.5951 950.247L48.7509 933.447C52.4378 942.626 56.7277 951.651 61.7944 960.444C80.349 992.645 105.893 1018.46 135.667 1037.53C145.144 1043.6 157.918 1043.1 168.197 1037.18L232.461 1000.15C254.998 987.166 254.607 955.209 231.28 946.304C207.051 937.055 186.093 920.184 172.526 896.639C167.343 887.643 163.762 878.188 161.412 868.53L185.706 854.532C232.995 827.283 288.161 815.783 341.031 822.138L446.335 834.832C453.359 835.679 460.609 834.171 466.896 830.555C488.456 818.132 483.953 796.158 479.652 788.693L408.331 664.918C419.647 646.437 421.328 623.455 410.304 604.323ZM393.227 766.685L352.298 761.753C285.425 753.695 215.647 768.255 155.847 802.713L111.058 724.984C170.858 690.526 218.447 637.457 245.011 575.559L261.269 537.676L393.227 766.685Z" fill="#C0C0C0"/>
<path id="market-path7" d="M44.48 809.736L49.1343 817.813L0.943851 845.581L-3.7104 837.504L44.48 809.736Z" stroke="#5E5E5E" stroke-opacity="0.33" stroke-width="200"/>
</g>
<path id="market-path8" d="M524.227 25.4893C528.923 12.6941 543.105 6.12699 555.9 10.8229L582.792 20.6917L582.794 20.6931C595.587 25.3922 602.155 39.5696 597.459 52.366L588.174 77.6648L585.245 85.6439L584.516 85.3765L592.769 137.104C593.542 141.946 593.118 146.903 591.536 151.544C589.954 156.184 587.26 160.367 583.691 163.729L511.324 231.881L507.499 235.483L502.567 233.673L495.996 231.261L493.856 230.475L493.856 230.476L479.304 225.135L474.373 223.325L473.787 218.105L462.686 119.319C462.139 114.447 462.792 109.515 464.587 104.952C466.382 100.39 469.266 96.3357 472.987 93.1431L512.742 59.0347L512.013 58.7681L524.227 25.4893ZM520.522 133.038C516.676 134.819 515.002 139.381 516.783 143.227C517.236 144.205 517.928 145.083 518.872 145.865L520.961 147.595L523.672 147.627C524.898 147.642 525.993 147.42 526.972 146.967C530.818 145.186 532.492 140.624 530.711 136.778C528.93 132.931 524.368 131.257 520.522 133.038Z" fill="#e4e2e2ff" stroke="white" stroke-width="17"/>
</g>
<defs>
<clipPath id="clip0_89_130">
<rect width="1440" height="1024" fill="white"/>
</clipPath>
<clipPath id="clip1_89_130">
<rect width="268" height="268" fill="white" transform="translate(1016 178)"/>
</clipPath>
<clipPath id="clip2_89_130">
<rect x="-200" y="697.146" width="575.142" height="478.451" transform="rotate(-29.9512 -200 697.146)" fill="white"/>
</clipPath>
</defs>
</svg>
