<svg width="143" height="227" viewBox="0 0 143 227" fill="none" xmlns="http://www.w3.org/2000/svg">
<path d="M116.253 83.0446L118.893 139.57C119.039 142.7 118.418 145.818 117.083 148.652C115.748 151.487 113.739 153.952 111.234 155.832L24.8612 220.661L56.8591 156.607C59.0012 156.55 61.1943 156.199 63.3812 155.469C75.5137 151.42 82.0667 138.302 78.0177 126.17C73.9686 114.037 60.8507 107.484 48.7181 111.533C36.5857 115.582 30.0334 128.7 34.0825 140.832C34.8122 143.019 35.8473 144.983 37.0876 146.73L5.08963 210.784L5.05202 102.79C5.05091 99.6566 5.81536 96.5703 7.27996 93.8007C8.74454 91.0311 10.8647 88.662 13.4547 86.8992L60.2347 55.0609L116.253 83.0446ZM83.9045 12.297C87.1534 5.79331 95.0632 3.15352 101.567 6.40241L130.336 20.7742C136.843 24.0271 139.479 31.9339 136.231 38.4366L124.944 61.0291L72.6177 34.8895L83.9045 12.297Z" stroke="#5E5E5E" stroke-width="10"/>
</svg>
