<svg width="556" height="285" viewBox="0 0 556 285" fill="none" xmlns="http://www.w3.org/2000/svg">
<path d="M41.4992 34.6245C39.6509 17.4927 55.5215 2.12504 72.9131 4.20623L535.828 59.602C543.534 60.5242 547.693 68.4062 544.287 75.6308L493.465 183.401C490.631 189.411 484.841 193.727 478.309 194.699L79.9417 253.932C71.8206 255.139 64.7229 249.881 63.8759 242.03L41.4992 34.6245Z" fill="#1E1E1E"/>
<g clip-path="url(#clip0_63_128)">
<path d="M79.7575 111.936C80.0431 127.334 87.3048 140.8 98.383 149.656L100.995 195.169L142.108 192.809L139.225 142.577L80.2466 104.646C79.8943 107.06 79.7308 109.497 79.7575 111.936V111.936ZM211.903 127.704C205.812 115.906 197.202 89.4263 190.36 80.7958C185.025 74.0775 178.155 68.7387 170.327 65.2287C162.5 61.7187 153.943 60.1403 145.378 60.6261L128.391 61.601C107.063 62.825 88.6607 76.9182 82.2275 96.1277L142.713 135.027L212.747 131.007C212.704 129.859 212.416 128.733 211.903 127.704ZM162.529 117.39C160.903 117.483 159.285 117.092 157.881 116.266C156.477 115.44 155.35 114.217 154.641 112.75C153.932 111.283 153.675 109.639 153.9 108.026C154.126 106.413 154.825 104.903 155.909 103.687C156.993 102.471 158.413 101.603 159.99 101.195C161.567 100.786 163.23 100.854 164.768 101.39C166.306 101.926 167.651 102.906 168.632 104.207C169.613 105.507 170.186 107.069 170.28 108.695C170.4 110.875 169.652 113.013 168.2 114.643C166.747 116.272 164.708 117.26 162.529 117.39V117.39ZM168.764 154.156L209.877 151.796L213.281 139.226L147.499 143.002L150.331 192.337L187.816 190.186C191.267 189.988 194.568 188.709 197.252 186.53C199.936 184.351 201.867 181.383 202.77 178.046L203.07 176.936L170.18 178.824C169.089 178.886 168.019 178.513 167.203 177.786C166.388 177.06 165.895 176.039 165.832 174.948C165.77 173.858 166.143 172.787 166.87 171.972C167.596 171.157 168.617 170.664 169.708 170.601L205.34 168.556L207.61 160.176L169.236 162.378C168.145 162.441 167.075 162.068 166.26 161.341C165.444 160.614 164.951 159.593 164.889 158.503C164.826 157.413 165.199 156.342 165.926 155.527C166.653 154.712 167.673 154.218 168.764 154.156Z" fill="white"/>
</g>
<path d="M229.018 111.426L229.257 76.5181L252.37 76.6766L252.329 82.7616L236.596 82.6538L236.539 90.9718L250.737 91.0691L250.696 97.1542L236.497 97.0569L236.398 111.477L229.018 111.426ZM264.093 112.161C262.423 112.15 260.936 111.85 259.633 111.261C258.331 110.661 257.303 109.785 256.549 108.632C255.807 107.468 255.442 106.022 255.454 104.295C255.464 102.84 255.739 101.621 256.28 100.636C256.821 99.6508 257.554 98.8603 258.478 98.2644C259.403 97.6684 260.451 97.2211 261.624 96.9223C262.808 96.6236 264.048 96.4162 265.344 96.3C266.868 96.1514 268.096 96.0121 269.029 95.8821C269.962 95.7408 270.639 95.5295 271.062 95.2483C271.484 94.9671 271.697 94.5481 271.701 93.9913L271.702 93.889C271.709 92.8095 271.374 91.9719 270.696 91.3764C270.03 90.7809 269.077 90.4789 267.839 90.4704C266.532 90.4614 265.49 90.7441 264.713 91.3183C263.937 91.8812 263.42 92.5936 263.165 93.4555L256.453 92.864C256.804 91.2755 257.484 89.9051 258.492 88.7529C259.5 87.5893 260.796 86.7005 262.38 86.0863C263.975 85.4609 265.818 85.1553 267.909 85.1696C269.363 85.1796 270.754 85.3596 272.082 85.7096C273.42 86.0597 274.604 86.5962 275.633 87.3192C276.674 88.0423 277.491 88.9683 278.086 90.0974C278.68 91.2152 278.972 92.5524 278.962 94.1092L278.841 111.768L271.954 111.721L271.979 108.09L271.775 108.089C271.349 108.904 270.781 109.622 270.072 110.242C269.364 110.851 268.514 111.328 267.523 111.673C266.532 112.007 265.389 112.17 264.093 112.161ZM266.207 107.164C267.275 107.171 268.22 106.968 269.041 106.553C269.862 106.127 270.508 105.552 270.979 104.827C271.45 104.103 271.688 103.281 271.695 102.361L271.714 99.5824C271.485 99.7286 271.172 99.8628 270.773 99.9851C270.386 100.096 269.948 100.201 269.459 100.3C268.969 100.387 268.48 100.469 267.991 100.546C267.502 100.61 267.058 100.67 266.66 100.724C265.807 100.843 265.062 101.037 264.423 101.305C263.785 101.574 263.288 101.939 262.933 102.403C262.577 102.855 262.397 103.422 262.393 104.104C262.386 105.092 262.739 105.851 263.451 106.378C264.175 106.895 265.093 107.157 266.207 107.164ZM296.3 112.399C293.618 112.381 291.315 111.797 289.391 110.647C287.479 109.486 286.012 107.885 284.992 105.844C283.983 103.803 283.488 101.459 283.506 98.8109C283.525 96.1292 284.058 93.7805 285.106 91.7649C286.165 89.738 287.659 88.163 289.587 87.0398C291.515 85.9053 293.803 85.3471 296.451 85.3653C298.735 85.3809 300.732 85.8094 302.442 86.6507C304.152 87.4919 305.502 88.666 306.492 90.1728C307.482 91.6796 308.021 93.4447 308.109 95.4681L301.257 95.4212C301.073 94.113 300.569 93.0584 299.745 92.2573C298.932 91.4449 297.861 91.0341 296.531 91.025C295.406 91.0173 294.421 91.3174 293.576 91.9252C292.743 92.5218 292.089 93.398 291.615 94.5539C291.141 95.7098 290.899 97.1116 290.887 98.7593C290.876 100.43 291.093 101.852 291.54 103.025C291.998 104.199 292.645 105.095 293.482 105.715C294.319 106.334 295.299 106.648 296.424 106.655C297.254 106.661 297.999 106.496 298.661 106.159C299.333 105.823 299.888 105.332 300.324 104.688C300.772 104.032 301.067 103.244 301.21 102.324L308.062 102.371C307.935 104.371 307.377 106.128 306.389 107.644C305.413 109.149 304.07 110.321 302.359 111.162C300.649 112.003 298.629 112.415 296.3 112.399ZM324.573 112.593C321.88 112.574 319.566 112.013 317.63 110.909C315.706 109.793 314.228 108.226 313.196 106.208C312.165 104.178 311.658 101.782 311.677 99.0211C311.696 96.3279 312.235 93.968 313.294 91.9411C314.353 89.9142 315.836 88.3391 317.741 87.2158C319.658 86.0925 321.901 85.5397 324.469 85.5573C326.196 85.5691 327.802 85.8585 329.287 86.4256C330.783 86.9813 332.084 87.8141 333.19 88.924C334.308 90.0339 335.173 91.4262 335.787 93.1009C336.4 94.7643 336.699 96.7096 336.684 98.9368L336.67 100.931L314.563 100.78L314.594 96.2796L329.866 96.3843C329.873 95.3389 329.652 94.4112 329.203 93.6013C328.754 92.7914 328.128 92.1564 327.324 91.6963C326.532 91.225 325.608 90.9857 324.551 90.9784C323.449 90.9709 322.47 91.2199 321.614 91.7254C320.77 92.2196 320.106 92.8912 319.623 93.7402C319.14 94.5778 318.889 95.5136 318.871 96.5476L318.841 100.826C318.832 102.121 319.063 103.242 319.534 104.189C320.016 105.135 320.699 105.867 321.582 106.385C322.464 106.902 323.514 107.165 324.73 107.173C325.536 107.179 326.276 107.07 326.948 106.848C327.62 106.625 328.196 106.288 328.676 105.837C329.157 105.385 329.524 104.831 329.779 104.174L336.491 104.663C336.139 106.274 335.431 107.678 334.366 108.876C333.312 110.062 331.954 110.984 330.29 111.643C328.638 112.291 326.732 112.608 324.573 112.593ZM341.332 112.196L341.511 86.015L348.432 86.0624L348.4 90.6817L348.707 90.6838C349.263 89.1534 350.18 87.9495 351.459 87.0719C352.738 86.1942 354.263 85.7615 356.036 85.7736C357.832 85.786 359.357 86.2453 360.612 87.1516C361.867 88.0466 362.7 89.2569 363.11 90.7825L363.383 90.7843C363.927 89.288 364.901 88.0958 366.305 87.2077C367.72 86.3083 369.388 85.8652 371.309 85.8783C373.752 85.8951 375.729 86.6871 377.241 88.2543C378.765 89.8102 379.517 92.0086 379.497 94.8494L379.377 112.457L372.132 112.407L372.243 96.2316C372.253 94.7771 371.874 93.6835 371.107 92.951C370.339 92.2184 369.376 91.8482 368.216 91.8402C366.898 91.8312 365.867 92.2446 365.123 93.0804C364.378 93.9049 364.002 94.9989 363.992 96.3625L363.883 112.351L356.843 112.303L356.955 95.9734C356.964 94.6893 356.601 93.6641 355.868 92.8977C355.146 92.1313 354.188 91.7441 352.995 91.7359C352.188 91.7304 351.46 91.9299 350.809 92.3346C350.17 92.7279 349.661 93.2869 349.281 94.0116C348.901 94.725 348.708 95.5646 348.701 96.5304L348.593 112.246L341.332 112.196ZM392.575 113.042C390.904 113.03 389.418 112.73 388.115 112.142C386.812 111.542 385.784 110.666 385.03 109.513C384.288 108.348 383.923 106.903 383.935 105.176C383.945 103.721 384.22 102.501 384.761 101.516C385.302 100.531 386.035 99.7409 386.959 99.145C387.884 98.549 388.933 98.1017 390.105 97.8029C391.289 97.5042 392.529 97.2968 393.825 97.1806C395.349 97.032 396.577 96.8927 397.51 96.7627C398.443 96.6214 399.121 96.4101 399.543 96.1289C399.965 95.8477 400.178 95.4287 400.182 94.8719L400.183 94.7696C400.19 93.6901 399.855 92.8526 399.177 92.257C398.511 91.6615 397.559 91.3595 396.32 91.351C395.013 91.3421 393.971 91.6247 393.195 92.1989C392.418 92.7618 391.902 93.4742 391.646 94.3361L384.934 93.7446C385.286 92.1561 385.966 90.7857 386.973 89.6335C387.981 88.4699 389.277 87.5811 390.861 86.9669C392.456 86.3415 394.299 86.0359 396.39 86.0502C397.845 86.0602 399.236 86.2402 400.563 86.5902C401.901 86.9403 403.085 87.4768 404.114 88.1998C405.155 88.9229 405.972 89.849 406.567 90.9781C407.162 92.0958 407.454 93.4331 407.443 94.9898L407.322 112.649L400.436 112.601L400.461 108.971L400.256 108.969C399.83 109.785 399.263 110.502 398.554 111.122C397.845 111.731 396.995 112.208 396.004 112.554C395.013 112.888 393.87 113.051 392.575 113.042ZM394.688 108.045C395.757 108.052 396.701 107.848 397.522 107.433C398.343 107.007 398.989 106.432 399.46 105.708C399.931 104.984 400.17 104.162 400.176 103.241L400.195 100.463C399.967 100.609 399.653 100.743 399.255 100.866C398.868 100.977 398.429 101.082 397.94 101.181C397.451 101.268 396.962 101.35 396.472 101.426C395.983 101.491 395.54 101.55 395.142 101.605C394.289 101.724 393.543 101.917 392.905 102.186C392.266 102.454 391.77 102.82 391.414 103.284C391.059 103.736 390.879 104.303 390.874 104.984C390.867 105.973 391.22 106.731 391.932 107.259C392.656 107.775 393.575 108.037 394.688 108.045ZM434.867 94.121L428.217 94.4845C428.107 93.9155 427.866 93.4025 427.494 92.9454C427.123 92.4769 426.631 92.1042 426.019 91.8273C425.419 91.5391 424.698 91.3921 423.857 91.3863C422.732 91.3786 421.782 91.6108 421.006 92.0827C420.23 92.5433 419.839 93.1657 419.834 93.9497C419.83 94.5747 420.076 95.1048 420.573 95.5401C421.07 95.9753 421.926 96.3278 423.14 96.5975L427.872 97.5845C430.413 98.1246 432.305 98.9785 433.547 100.146C434.789 101.314 435.404 102.841 435.391 104.727C435.379 106.443 434.863 107.945 433.843 109.234C432.834 110.522 431.452 111.524 429.697 112.239C427.954 112.943 425.946 113.288 423.673 113.272C420.207 113.248 417.451 112.508 415.404 111.05C413.369 109.582 412.183 107.596 411.848 105.094L418.993 104.768C419.201 105.826 419.719 106.637 420.544 107.199C421.37 107.75 422.431 108.03 423.726 108.039C424.999 108.048 426.023 107.811 426.799 107.327C427.587 106.833 427.989 106.193 428.006 105.409C427.999 104.75 427.724 104.209 427.181 103.784C426.639 103.349 425.8 103.014 424.666 102.779L420.138 101.844C417.584 101.315 415.687 100.416 414.446 99.1459C413.216 97.8761 412.608 96.2639 412.621 94.3094C412.633 92.6276 413.097 91.1819 414.014 89.9723C414.943 88.7627 416.239 87.834 417.903 87.1863C419.578 86.5387 421.535 86.2226 423.773 86.2379C427.08 86.2606 429.677 86.9773 431.565 88.388C433.465 89.7987 434.565 91.7097 434.867 94.121ZM446.539 105.383L446.616 96.6731L447.672 96.6804L456.127 86.8006L464.462 86.8577L453.105 99.9393L451.383 99.9275L446.539 105.383ZM439.908 112.872L440.147 77.9636L447.408 78.0134L447.169 112.922L439.908 112.872ZM456.271 112.984L448.645 101.528L453.521 96.4307L464.777 113.042L456.271 112.984ZM281.728 169.789L269.354 169.704L269.593 134.796L282.07 134.881C285.581 134.906 288.599 135.625 291.124 137.04C293.648 138.444 295.583 140.452 296.929 143.063C298.286 145.675 298.952 148.793 298.927 152.418C298.903 156.054 298.194 159.174 296.801 161.779C295.419 164.383 293.445 166.375 290.879 167.755C288.324 169.135 285.274 169.813 281.728 169.789ZM276.778 163.431L281.465 163.463C283.647 163.478 285.485 163.104 286.978 162.342C288.484 161.568 289.617 160.366 290.378 158.734C291.151 157.092 291.546 154.97 291.564 152.367C291.582 149.788 291.215 147.677 290.465 146.036C289.727 144.394 288.616 143.182 287.132 142.399C285.649 141.616 283.816 141.217 281.635 141.203L276.93 141.17L276.778 163.431ZM316.066 170.536C313.373 170.517 311.059 169.956 309.123 168.852C307.199 167.736 305.721 166.169 304.69 164.151C303.658 162.121 303.152 159.725 303.171 156.964C303.189 154.271 303.728 151.911 304.787 149.884C305.847 147.857 307.329 146.282 309.235 145.159C311.151 144.036 313.394 143.483 315.962 143.5C317.689 143.512 319.295 143.802 320.78 144.369C322.276 144.924 323.577 145.757 324.683 146.867C325.801 147.977 326.666 149.369 327.28 151.044C327.894 152.707 328.193 154.653 328.177 156.88L328.164 158.874L306.056 158.723L306.087 154.223L321.36 154.327C321.367 153.282 321.146 152.354 320.697 151.544C320.248 150.734 319.621 150.099 318.818 149.639C318.025 149.168 317.101 148.929 316.044 148.921C314.942 148.914 313.963 149.163 313.107 149.668C312.263 150.163 311.599 150.834 311.116 151.683C310.633 152.521 310.382 153.457 310.364 154.491L310.335 158.769C310.326 160.064 310.557 161.185 311.027 162.132C311.51 163.078 312.192 163.81 313.075 164.328C313.958 164.845 315.007 165.108 316.223 165.116C317.03 165.122 317.769 165.013 318.441 164.791C319.113 164.568 319.689 164.231 320.17 163.78C320.65 163.328 321.018 162.774 321.272 162.117L327.985 162.606C327.633 164.217 326.924 165.621 325.859 166.819C324.806 168.005 323.447 168.927 321.783 169.586C320.131 170.234 318.226 170.551 316.066 170.536ZM346.931 144.054L346.893 149.508L331.126 149.4L331.164 143.945L346.931 144.054ZM334.786 137.697L342.048 137.747L341.88 162.156C341.876 162.826 341.974 163.35 342.176 163.726C342.378 164.091 342.661 164.349 343.023 164.499C343.397 164.649 343.829 164.726 344.317 164.729C344.658 164.732 344.999 164.706 345.34 164.651C345.682 164.585 345.944 164.536 346.126 164.503L347.231 169.914C346.866 170.025 346.354 170.152 345.694 170.296C345.034 170.45 344.232 170.541 343.288 170.569C341.538 170.625 340.006 170.382 338.691 169.839C337.388 169.296 336.377 168.459 335.657 167.329C334.938 166.199 334.589 164.776 334.612 163.06L334.786 137.697ZM363.128 170.858C360.435 170.84 358.12 170.279 356.185 169.174C354.26 168.059 352.783 166.492 351.751 164.473C350.719 162.444 350.213 160.048 350.232 157.287C350.25 154.594 350.789 152.234 351.849 150.207C352.908 148.18 354.39 146.605 356.296 145.481C358.213 144.358 360.455 143.805 363.023 143.823C364.751 143.835 366.357 144.124 367.841 144.691C369.338 145.247 370.639 146.08 371.745 147.19C372.862 148.3 373.728 149.692 374.341 151.367C374.955 153.03 375.254 154.975 375.239 157.202L375.225 159.197L353.118 159.045L353.149 154.545L368.421 154.65C368.428 153.604 368.207 152.677 367.758 151.867C367.309 151.057 366.683 150.422 365.879 149.962C365.087 149.491 364.162 149.251 363.106 149.244C362.003 149.236 361.024 149.485 360.169 149.991C359.324 150.485 358.661 151.157 358.177 152.006C357.694 152.843 357.444 153.779 357.425 154.813L357.396 159.092C357.387 160.387 357.618 161.508 358.089 162.454C358.571 163.401 359.253 164.133 360.136 164.65C361.019 165.168 362.068 165.43 363.284 165.439C364.091 165.444 364.831 165.336 365.503 165.113C366.175 164.89 366.751 164.553 367.231 164.102C367.711 163.651 368.079 163.097 368.333 162.439L375.046 162.928C374.694 164.54 373.986 165.944 372.921 167.141C371.867 168.327 370.508 169.25 368.845 169.909C367.193 170.557 365.287 170.873 363.128 170.858ZM391.712 171.054C389.031 171.036 386.728 170.452 384.804 169.302C382.891 168.141 381.425 166.54 380.405 164.499C379.396 162.458 378.901 160.114 378.919 157.466C378.937 154.784 379.47 152.436 380.518 150.42C381.578 148.393 383.072 146.818 385 145.695C386.928 144.561 389.216 144.002 391.864 144.021C394.148 144.036 396.145 144.465 397.855 145.306C399.565 146.147 400.915 147.321 401.905 148.828C402.894 150.335 403.434 152.1 403.522 154.123L396.67 154.076C396.486 152.768 395.981 151.714 395.157 150.913C394.345 150.1 393.274 149.689 391.944 149.68C390.819 149.673 389.834 149.973 388.989 150.581C388.155 151.177 387.502 152.053 387.028 153.209C386.554 154.365 386.311 155.767 386.3 157.415C386.289 159.085 386.506 160.507 386.953 161.681C387.411 162.854 388.058 163.751 388.895 164.37C389.731 164.989 390.712 165.303 391.837 165.311C392.667 165.316 393.412 165.151 394.073 164.815C394.746 164.478 395.301 163.988 395.737 163.343C396.185 162.687 396.48 161.899 396.623 160.98L403.475 161.027C403.347 163.026 402.79 164.783 401.802 166.299C400.826 167.804 399.483 168.977 397.772 169.817C396.062 170.658 394.042 171.07 391.712 171.054ZM422.163 144.569L422.126 150.024L406.359 149.916L406.396 144.461L422.163 144.569ZM410.019 138.213L417.28 138.263L417.113 162.671C417.108 163.342 417.207 163.865 417.409 164.242C417.611 164.607 417.893 164.864 418.256 165.014C418.63 165.165 419.061 165.242 419.55 165.245C419.891 165.247 420.232 165.221 420.573 165.167C420.914 165.101 421.176 165.052 421.358 165.019L422.463 170.43C422.099 170.541 421.587 170.668 420.926 170.811C420.266 170.966 419.464 171.057 418.521 171.085C416.771 171.141 415.238 170.897 413.924 170.354C412.621 169.811 411.609 168.975 410.89 167.845C410.17 166.715 409.822 165.292 409.845 163.576L410.019 138.213Z" fill="white"/>
<defs>
<clipPath id="clip0_63_128">
<rect width="131.779" height="131.779" fill="white" transform="translate(77 64.5503) rotate(-3.28455)"/>
</clipPath>
</defs>
</svg>
