<svg class="drawable" width="556" height="285" viewBox="0 0 556 285" fill="none" xmlns="http://www.w3.org/2000/svg" >
<path d="M42.503 34.4387C40.7257 17.9659 55.9858 3.18939 72.7084 5.19054L535.624 60.5862C542.687 61.4316 546.5 68.6566 543.377 75.2791L492.556 183.049C489.879 188.725 484.41 192.802 478.242 193.719L79.8746 252.952C72.2949 254.079 65.6695 249.172 64.879 241.844L42.503 34.4387Z" stroke="black" stroke-width="2"/>
<g clip-path="url(#clip0_64_140)">
<path d="M211.953 140.304L209.099 150.839L168.707 153.157C167.352 153.235 166.083 153.848 165.18 154.861C164.276 155.874 163.813 157.205 163.89 158.56C163.968 159.916 164.581 161.184 165.594 162.088C166.608 162.991 167.938 163.455 169.293 163.377L206.282 161.254L204.563 167.599L169.651 169.603C168.296 169.681 167.027 170.294 166.123 171.307C165.22 172.32 164.756 173.651 164.834 175.006C164.912 176.361 165.525 177.63 166.538 178.533C167.551 179.436 168.882 179.9 170.237 179.822L201.738 178.015C200.864 181.055 199.081 183.758 196.622 185.754C194.101 187.8 191 189.001 187.759 189.187L151.272 191.281L148.555 143.942L211.953 140.304ZM128.448 62.5994L145.435 61.6245L146.223 61.5861C154.364 61.2468 162.477 62.8045 169.919 66.1413C177.6 69.5856 184.341 74.8245 189.576 81.417C191.214 83.483 192.996 86.6727 194.855 90.5407C196.706 94.394 198.605 98.8597 200.488 103.442C204.235 112.563 207.937 122.199 211.008 128.151L211.008 128.152C211.311 128.759 211.523 129.405 211.641 130.07L142.982 134.01L83.4288 95.7117C89.9473 77.2755 107.791 63.7849 128.448 62.5994ZM165.097 100.446C163.372 99.8444 161.508 99.7684 159.74 100.227C157.971 100.685 156.378 101.657 155.163 103.021C153.947 104.384 153.164 106.078 152.91 107.887C152.657 109.696 152.946 111.54 153.741 113.185C154.535 114.829 155.8 116.202 157.374 117.128C158.949 118.055 160.763 118.493 162.587 118.388L162.529 117.39L162.589 118.388C165.032 118.243 167.317 117.135 168.946 115.308C170.574 113.481 171.414 111.084 171.279 108.64L171.279 108.638C171.174 106.814 170.531 105.063 169.43 103.605C168.33 102.147 166.822 101.047 165.097 100.446ZM99.3557 149.154L99.0072 148.875C88.1508 140.196 81.0397 127.007 80.7576 111.926C80.7372 110.061 80.8317 108.196 81.0379 106.344L138.256 143.142L141.052 191.868L101.936 194.113L99.3557 149.154Z" stroke="black" stroke-width="2"/>
</g>
<mask id="path-4-outside-1_64_140" maskUnits="userSpaceOnUse" x="226.226" y="74.411" width="242.666" height="99.6563" fill="black">
<rect fill="white" x="226.226" y="74.411" width="242.666" height="99.6563"/>
<path d="M229.018 111.426L229.257 76.5181L252.37 76.6766L252.329 82.7616L236.596 82.6538L236.539 90.9718L250.737 91.0691L250.696 97.1542L236.497 97.0569L236.398 111.477L229.018 111.426ZM264.093 112.161C262.423 112.15 260.936 111.85 259.633 111.261C258.331 110.661 257.303 109.785 256.549 108.632C255.807 107.468 255.442 106.022 255.454 104.295C255.464 102.84 255.739 101.621 256.28 100.636C256.821 99.6508 257.554 98.8603 258.478 98.2644C259.403 97.6684 260.451 97.2211 261.624 96.9223C262.808 96.6236 264.048 96.4162 265.344 96.3C266.868 96.1514 268.096 96.0121 269.029 95.8821C269.962 95.7408 270.639 95.5295 271.062 95.2483C271.484 94.9671 271.697 94.5481 271.701 93.9913L271.702 93.889C271.709 92.8095 271.374 91.9719 270.696 91.3764C270.03 90.7809 269.077 90.4789 267.839 90.4704C266.532 90.4614 265.49 90.7441 264.713 91.3183C263.937 91.8812 263.42 92.5936 263.165 93.4555L256.453 92.864C256.804 91.2755 257.484 89.9051 258.492 88.7529C259.5 87.5893 260.796 86.7005 262.38 86.0863C263.975 85.4609 265.818 85.1553 267.909 85.1696C269.363 85.1796 270.754 85.3596 272.082 85.7096C273.42 86.0597 274.604 86.5962 275.633 87.3192C276.674 88.0423 277.491 88.9683 278.086 90.0974C278.68 91.2152 278.972 92.5524 278.962 94.1092L278.841 111.768L271.954 111.721L271.979 108.09L271.775 108.089C271.349 108.904 270.781 109.622 270.072 110.242C269.364 110.851 268.514 111.328 267.523 111.673C266.532 112.007 265.389 112.17 264.093 112.161ZM266.207 107.164C267.275 107.171 268.22 106.968 269.041 106.553C269.862 106.127 270.508 105.552 270.979 104.827C271.45 104.103 271.688 103.281 271.695 102.361L271.714 99.5824C271.485 99.7286 271.172 99.8628 270.773 99.9851C270.386 100.096 269.948 100.201 269.459 100.3C268.969 100.387 268.48 100.469 267.991 100.546C267.502 100.61 267.058 100.67 266.66 100.724C265.807 100.843 265.062 101.037 264.423 101.305C263.785 101.574 263.288 101.939 262.933 102.403C262.577 102.855 262.397 103.422 262.393 104.104C262.386 105.092 262.739 105.851 263.451 106.378C264.175 106.895 265.093 107.157 266.207 107.164ZM296.3 112.399C293.618 112.381 291.315 111.797 289.391 110.647C287.479 109.486 286.012 107.885 284.992 105.844C283.983 103.803 283.488 101.459 283.506 98.8109C283.525 96.1292 284.058 93.7805 285.106 91.7649C286.165 89.738 287.659 88.163 289.587 87.0398C291.515 85.9053 293.803 85.3471 296.451 85.3653C298.735 85.3809 300.732 85.8094 302.442 86.6507C304.152 87.4919 305.502 88.666 306.492 90.1728C307.482 91.6796 308.021 93.4447 308.109 95.4681L301.257 95.4212C301.073 94.113 300.569 93.0584 299.745 92.2573C298.932 91.4449 297.861 91.0341 296.531 91.025C295.406 91.0173 294.421 91.3174 293.576 91.9252C292.743 92.5218 292.089 93.398 291.615 94.5539C291.141 95.7098 290.899 97.1116 290.887 98.7593C290.876 100.43 291.093 101.852 291.54 103.025C291.998 104.199 292.645 105.095 293.482 105.715C294.319 106.334 295.299 106.648 296.424 106.655C297.254 106.661 297.999 106.496 298.661 106.159C299.333 105.823 299.888 105.332 300.324 104.688C300.772 104.032 301.067 103.244 301.21 102.324L308.062 102.371C307.935 104.371 307.377 106.128 306.389 107.644C305.413 109.149 304.07 110.321 302.359 111.162C300.649 112.003 298.629 112.415 296.3 112.399ZM324.573 112.593C321.88 112.574 319.566 112.013 317.63 110.909C315.706 109.793 314.228 108.226 313.196 106.208C312.165 104.178 311.658 101.782 311.677 99.0211C311.696 96.3279 312.235 93.968 313.294 91.9411C314.353 89.9142 315.836 88.3391 317.741 87.2158C319.658 86.0925 321.901 85.5397 324.469 85.5573C326.196 85.5691 327.802 85.8585 329.287 86.4256C330.783 86.9813 332.084 87.8141 333.19 88.924C334.308 90.0339 335.173 91.4262 335.787 93.1009C336.4 94.7643 336.699 96.7096 336.684 98.9368L336.67 100.931L314.563 100.78L314.594 96.2796L329.866 96.3843C329.873 95.3389 329.652 94.4112 329.203 93.6013C328.754 92.7914 328.128 92.1564 327.324 91.6963C326.532 91.225 325.608 90.9857 324.551 90.9784C323.449 90.9709 322.47 91.2199 321.614 91.7254C320.77 92.2196 320.106 92.8912 319.623 93.7402C319.14 94.5778 318.889 95.5136 318.871 96.5476L318.841 100.826C318.832 102.121 319.063 103.242 319.534 104.189C320.016 105.135 320.699 105.867 321.582 106.385C322.464 106.902 323.514 107.165 324.73 107.173C325.536 107.179 326.276 107.07 326.948 106.848C327.62 106.625 328.196 106.288 328.676 105.837C329.157 105.385 329.524 104.831 329.779 104.174L336.491 104.663C336.139 106.274 335.431 107.678 334.366 108.876C333.312 110.062 331.954 110.984 330.29 111.643C328.638 112.291 326.732 112.608 324.573 112.593ZM341.332 112.196L341.511 86.015L348.432 86.0624L348.4 90.6817L348.707 90.6838C349.263 89.1534 350.18 87.9495 351.459 87.0719C352.738 86.1942 354.263 85.7615 356.036 85.7736C357.832 85.786 359.357 86.2453 360.612 87.1516C361.867 88.0466 362.7 89.2569 363.11 90.7825L363.383 90.7843C363.927 89.288 364.901 88.0958 366.305 87.2077C367.72 86.3083 369.388 85.8652 371.309 85.8783C373.752 85.8951 375.729 86.6871 377.241 88.2543C378.765 89.8102 379.517 92.0086 379.497 94.8494L379.377 112.457L372.132 112.407L372.243 96.2316C372.253 94.7771 371.874 93.6835 371.107 92.951C370.339 92.2184 369.376 91.8482 368.216 91.8402C366.898 91.8312 365.867 92.2446 365.123 93.0804C364.378 93.9049 364.002 94.9989 363.992 96.3625L363.883 112.351L356.843 112.303L356.955 95.9734C356.964 94.6893 356.601 93.6641 355.868 92.8977C355.146 92.1313 354.188 91.7441 352.995 91.7359C352.188 91.7304 351.46 91.9299 350.809 92.3346C350.17 92.7279 349.661 93.2869 349.281 94.0116C348.901 94.725 348.708 95.5646 348.701 96.5304L348.593 112.246L341.332 112.196ZM392.575 113.042C390.904 113.03 389.418 112.73 388.115 112.142C386.812 111.542 385.784 110.666 385.03 109.513C384.288 108.348 383.923 106.903 383.935 105.176C383.945 103.721 384.22 102.501 384.761 101.516C385.302 100.531 386.035 99.7409 386.959 99.145C387.884 98.549 388.933 98.1017 390.105 97.8029C391.289 97.5042 392.529 97.2968 393.825 97.1806C395.349 97.032 396.577 96.8927 397.51 96.7627C398.443 96.6214 399.121 96.4101 399.543 96.1289C399.965 95.8477 400.178 95.4287 400.182 94.8719L400.183 94.7696C400.19 93.6901 399.855 92.8526 399.177 92.257C398.511 91.6615 397.559 91.3595 396.32 91.351C395.013 91.3421 393.971 91.6247 393.195 92.1989C392.418 92.7618 391.902 93.4742 391.646 94.3361L384.934 93.7446C385.286 92.1561 385.966 90.7857 386.973 89.6335C387.981 88.4699 389.277 87.5811 390.861 86.9669C392.456 86.3415 394.299 86.0359 396.39 86.0502C397.845 86.0602 399.236 86.2402 400.563 86.5902C401.901 86.9403 403.085 87.4768 404.114 88.1998C405.155 88.9229 405.972 89.849 406.567 90.9781C407.162 92.0958 407.454 93.4331 407.443 94.9898L407.322 112.649L400.436 112.601L400.461 108.971L400.256 108.969C399.83 109.785 399.263 110.502 398.554 111.122C397.845 111.731 396.995 112.208 396.004 112.554C395.013 112.888 393.87 113.051 392.575 113.042ZM394.688 108.045C395.757 108.052 396.701 107.848 397.522 107.433C398.343 107.007 398.989 106.432 399.46 105.708C399.931 104.984 400.17 104.162 400.176 103.241L400.195 100.463C399.967 100.609 399.653 100.743 399.255 100.866C398.868 100.977 398.429 101.082 397.94 101.181C397.451 101.268 396.962 101.35 396.472 101.426C395.983 101.491 395.54 101.55 395.142 101.605C394.289 101.724 393.543 101.917 392.905 102.186C392.266 102.454 391.77 102.82 391.414 103.284C391.059 103.736 390.879 104.303 390.874 104.984C390.867 105.973 391.22 106.731 391.932 107.259C392.656 107.775 393.575 108.037 394.688 108.045ZM434.867 94.121L428.217 94.4845C428.107 93.9155 427.866 93.4025 427.494 92.9454C427.123 92.4769 426.631 92.1042 426.019 91.8273C425.419 91.5391 424.698 91.3921 423.857 91.3863C422.732 91.3786 421.782 91.6108 421.006 92.0827C420.23 92.5433 419.839 93.1657 419.834 93.9497C419.83 94.5747 420.076 95.1048 420.573 95.5401C421.07 95.9753 421.926 96.3278 423.14 96.5975L427.872 97.5845C430.413 98.1246 432.305 98.9785 433.547 100.146C434.789 101.314 435.404 102.841 435.391 104.727C435.379 106.443 434.863 107.945 433.843 109.234C432.834 110.522 431.452 111.524 429.697 112.239C427.954 112.943 425.946 113.288 423.673 113.272C420.207 113.248 417.451 112.508 415.404 111.05C413.369 109.582 412.183 107.596 411.848 105.094L418.993 104.768C419.201 105.826 419.719 106.637 420.544 107.199C421.37 107.75 422.431 108.03 423.726 108.039C424.999 108.048 426.023 107.811 426.799 107.327C427.587 106.833 427.989 106.193 428.006 105.409C427.999 104.75 427.724 104.209 427.181 103.784C426.639 103.349 425.8 103.014 424.666 102.779L420.138 101.844C417.584 101.315 415.687 100.416 414.446 99.1459C413.216 97.8761 412.608 96.2639 412.621 94.3094C412.633 92.6276 413.097 91.1819 414.014 89.9723C414.943 88.7627 416.239 87.834 417.903 87.1863C419.578 86.5387 421.535 86.2226 423.773 86.2379C427.08 86.2606 429.677 86.9773 431.565 88.388C433.465 89.7987 434.565 91.7097 434.867 94.121ZM446.539 105.383L446.616 96.6731L447.672 96.6804L456.127 86.8006L464.462 86.8577L453.105 99.9393L451.383 99.9275L446.539 105.383ZM439.908 112.872L440.147 77.9636L447.408 78.0134L447.169 112.922L439.908 112.872ZM456.271 112.984L448.645 101.528L453.521 96.4307L464.777 113.042L456.271 112.984ZM281.728 169.789L269.354 169.704L269.593 134.796L282.07 134.881C285.581 134.906 288.599 135.625 291.124 137.04C293.648 138.444 295.583 140.452 296.929 143.063C298.286 145.675 298.952 148.793 298.927 152.418C298.903 156.054 298.194 159.174 296.801 161.779C295.419 164.383 293.445 166.375 290.879 167.755C288.324 169.135 285.274 169.813 281.728 169.789ZM276.778 163.431L281.465 163.463C283.647 163.478 285.485 163.104 286.978 162.342C288.484 161.568 289.617 160.366 290.378 158.734C291.151 157.092 291.546 154.97 291.564 152.367C291.582 149.788 291.215 147.677 290.465 146.036C289.727 144.394 288.616 143.182 287.132 142.399C285.649 141.616 283.816 141.217 281.635 141.203L276.93 141.17L276.778 163.431ZM316.066 170.536C313.373 170.517 311.059 169.956 309.123 168.852C307.199 167.736 305.721 166.169 304.69 164.151C303.658 162.121 303.152 159.725 303.171 156.964C303.189 154.271 303.728 151.911 304.787 149.884C305.847 147.857 307.329 146.282 309.235 145.159C311.151 144.036 313.394 143.483 315.962 143.5C317.689 143.512 319.295 143.802 320.78 144.369C322.276 144.924 323.577 145.757 324.683 146.867C325.801 147.977 326.666 149.369 327.28 151.044C327.894 152.707 328.193 154.653 328.177 156.88L328.164 158.874L306.056 158.723L306.087 154.223L321.36 154.327C321.367 153.282 321.146 152.354 320.697 151.544C320.248 150.734 319.621 150.099 318.818 149.639C318.025 149.168 317.101 148.929 316.044 148.921C314.942 148.914 313.963 149.163 313.107 149.668C312.263 150.163 311.599 150.834 311.116 151.683C310.633 152.521 310.382 153.457 310.364 154.491L310.335 158.769C310.326 160.064 310.557 161.185 311.027 162.132C311.51 163.078 312.192 163.81 313.075 164.328C313.958 164.845 315.007 165.108 316.223 165.116C317.03 165.122 317.769 165.013 318.441 164.791C319.113 164.568 319.689 164.231 320.17 163.78C320.65 163.328 321.018 162.774 321.272 162.117L327.985 162.606C327.633 164.217 326.924 165.621 325.859 166.819C324.806 168.005 323.447 168.927 321.783 169.586C320.131 170.234 318.226 170.551 316.066 170.536ZM346.931 144.054L346.893 149.508L331.126 149.4L331.164 143.945L346.931 144.054ZM334.786 137.697L342.048 137.747L341.88 162.156C341.876 162.826 341.974 163.35 342.176 163.726C342.378 164.091 342.661 164.349 343.023 164.499C343.397 164.649 343.829 164.726 344.317 164.729C344.658 164.732 344.999 164.706 345.34 164.651C345.682 164.585 345.944 164.536 346.126 164.503L347.231 169.914C346.866 170.025 346.354 170.152 345.694 170.296C345.034 170.45 344.232 170.541 343.288 170.569C341.538 170.625 340.006 170.382 338.691 169.839C337.388 169.296 336.377 168.459 335.657 167.329C334.938 166.199 334.589 164.776 334.612 163.06L334.786 137.697ZM363.128 170.858C360.435 170.84 358.12 170.279 356.185 169.174C354.26 168.059 352.783 166.492 351.751 164.473C350.719 162.444 350.213 160.048 350.232 157.287C350.25 154.594 350.789 152.234 351.849 150.207C352.908 148.18 354.39 146.605 356.296 145.481C358.213 144.358 360.455 143.805 363.023 143.823C364.751 143.835 366.357 144.124 367.841 144.691C369.338 145.247 370.639 146.08 371.745 147.19C372.862 148.3 373.728 149.692 374.341 151.367C374.955 153.03 375.254 154.975 375.239 157.202L375.225 159.197L353.118 159.045L353.149 154.545L368.421 154.65C368.428 153.604 368.207 152.677 367.758 151.867C367.309 151.057 366.683 150.422 365.879 149.962C365.087 149.491 364.162 149.251 363.106 149.244C362.003 149.236 361.024 149.485 360.169 149.991C359.324 150.485 358.661 151.157 358.177 152.006C357.694 152.843 357.444 153.779 357.425 154.813L357.396 159.092C357.387 160.387 357.618 161.508 358.089 162.454C358.571 163.401 359.253 164.133 360.136 164.65C361.019 165.168 362.068 165.43 363.284 165.439C364.091 165.444 364.831 165.336 365.503 165.113C366.175 164.89 366.751 164.553 367.231 164.102C367.711 163.651 368.079 163.097 368.333 162.439L375.046 162.928C374.694 164.54 373.986 165.944 372.921 167.141C371.867 168.327 370.508 169.25 368.845 169.909C367.193 170.557 365.287 170.873 363.128 170.858ZM391.712 171.054C389.031 171.036 386.728 170.452 384.804 169.302C382.891 168.141 381.425 166.54 380.405 164.499C379.396 162.458 378.901 160.114 378.919 157.466C378.937 154.784 379.47 152.436 380.518 150.42C381.578 148.393 383.072 146.818 385 145.695C386.928 144.561 389.216 144.002 391.864 144.021C394.148 144.036 396.145 144.465 397.855 145.306C399.565 146.147 400.915 147.321 401.905 148.828C402.894 150.335 403.434 152.1 403.522 154.123L396.67 154.076C396.486 152.768 395.981 151.714 395.157 150.913C394.345 150.1 393.274 149.689 391.944 149.68C390.819 149.673 389.834 149.973 388.989 150.581C388.155 151.177 387.502 152.053 387.028 153.209C386.554 154.365 386.311 155.767 386.3 157.415C386.289 159.085 386.506 160.507 386.953 161.681C387.411 162.854 388.058 163.751 388.895 164.37C389.731 164.989 390.712 165.303 391.837 165.311C392.667 165.316 393.412 165.151 394.073 164.815C394.746 164.478 395.301 163.988 395.737 163.343C396.185 162.687 396.48 161.899 396.623 160.98L403.475 161.027C403.347 163.026 402.79 164.783 401.802 166.299C400.826 167.804 399.483 168.977 397.772 169.817C396.062 170.658 394.042 171.07 391.712 171.054ZM422.163 144.569L422.126 150.024L406.359 149.916L406.396 144.461L422.163 144.569ZM410.019 138.213L417.28 138.263L417.113 162.671C417.108 163.342 417.207 163.865 417.409 164.242C417.611 164.607 417.893 164.864 418.256 165.014C418.63 165.165 419.061 165.242 419.55 165.245C419.891 165.247 420.232 165.221 420.573 165.167C420.914 165.101 421.176 165.052 421.358 165.019L422.463 170.43C422.099 170.541 421.587 170.668 420.926 170.811C420.266 170.966 419.464 171.057 418.521 171.085C416.771 171.141 415.238 170.897 413.924 170.354C412.621 169.811 411.609 168.975 410.89 167.845C410.17 166.715 409.822 165.292 409.845 163.576L410.019 138.213Z"/>
</mask>
<path d="M229.018 111.426L227.018 111.413L227.004 113.413L229.004 113.426L229.018 111.426ZM229.257 76.5181L229.271 74.5182L227.271 74.5045L227.257 76.5044L229.257 76.5181ZM252.37 76.6766L254.37 76.6903L254.384 74.6903L252.384 74.6766L252.37 76.6766ZM252.329 82.7616L252.315 84.7616L254.315 84.7753L254.328 82.7754L252.329 82.7616ZM236.596 82.6538L236.61 80.6539L234.61 80.6402L234.596 82.6401L236.596 82.6538ZM236.539 90.9718L234.539 90.9581L234.525 92.958L236.525 92.9718L236.539 90.9718ZM250.737 91.0691L252.737 91.0828L252.751 89.0829L250.751 89.0692L250.737 91.0691ZM250.696 97.1542L250.682 99.1542L252.682 99.1679L252.696 97.1679L250.696 97.1542ZM236.497 97.0569L236.511 95.0569L234.511 95.0432L234.497 97.0432L236.497 97.0569ZM236.398 111.477L236.385 113.477L238.385 113.491L238.398 111.491L236.398 111.477ZM229.018 111.426L231.018 111.44L231.257 76.5319L229.257 76.5181L227.257 76.5044L227.018 111.413L229.018 111.426ZM229.257 76.5181L229.243 78.5181L252.357 78.6765L252.37 76.6766L252.384 74.6766L229.271 74.5182L229.257 76.5181ZM252.37 76.6766L250.37 76.6629L250.329 82.7479L252.329 82.7616L254.328 82.7754L254.37 76.6903L252.37 76.6766ZM252.329 82.7616L252.342 80.7617L236.61 80.6539L236.596 82.6538L236.582 84.6538L252.315 84.7616L252.329 82.7616ZM236.596 82.6538L234.596 82.6401L234.539 90.9581L236.539 90.9718L238.539 90.9855L238.596 82.6675L236.596 82.6538ZM236.539 90.9718L236.525 92.9718L250.724 93.0691L250.737 91.0691L250.751 89.0692L236.553 88.9718L236.539 90.9718ZM250.737 91.0691L248.737 91.0554L248.696 97.1405L250.696 97.1542L252.696 97.1679L252.737 91.0828L250.737 91.0691ZM250.696 97.1542L250.709 95.1542L236.511 95.0569L236.497 97.0569L236.484 99.0568L250.682 99.1542L250.696 97.1542ZM236.497 97.0569L234.497 97.0432L234.398 111.463L236.398 111.477L238.398 111.491L238.497 97.0706L236.497 97.0569ZM236.398 111.477L236.412 109.477L229.032 109.426L229.018 111.426L229.004 113.426L236.385 113.477L236.398 111.477ZM259.633 111.261L258.797 113.078L258.803 113.081L258.81 113.084L259.633 111.261ZM256.549 108.632L254.862 109.707L254.869 109.717L254.875 109.726L256.549 108.632ZM256.28 100.636L254.527 99.6731L254.527 99.6731L256.28 100.636ZM258.478 98.2644L257.395 96.5833L257.395 96.5833L258.478 98.2644ZM261.624 96.9223L261.134 94.983L261.13 94.9842L261.624 96.9223ZM265.344 96.3L265.522 98.2921L265.53 98.2914L265.538 98.2906L265.344 96.3ZM269.029 95.8821L269.305 97.863L269.317 97.8613L269.328 97.8595L269.029 95.8821ZM271.062 95.2483L269.953 93.5835L269.953 93.5835L271.062 95.2483ZM270.696 91.3764L269.363 92.8677L269.37 92.8732L269.376 92.8787L270.696 91.3764ZM264.713 91.3183L265.887 92.9377L265.895 92.9321L265.902 92.9265L264.713 91.3183ZM263.165 93.4555L262.989 95.4478L264.617 95.5912L265.082 94.0248L263.165 93.4555ZM256.453 92.864L254.5 92.4316L254.007 94.6563L256.277 94.8563L256.453 92.864ZM258.492 88.7529L259.997 90.0697L260.004 90.0624L258.492 88.7529ZM262.38 86.0863L263.103 87.951L263.11 87.9483L262.38 86.0863ZM272.082 85.7096L271.571 87.6435L271.575 87.6445L272.082 85.7096ZM275.633 87.3192L274.483 88.9558L274.492 88.9616L275.633 87.3192ZM278.086 90.0974L276.316 91.0293L276.32 91.0368L278.086 90.0974ZM278.841 111.768L278.827 113.768L280.827 113.782L280.841 111.782L278.841 111.768ZM271.954 111.721L269.954 111.707L269.941 113.707L271.941 113.721L271.954 111.721ZM271.979 108.09L273.979 108.104L273.993 106.104L271.993 106.09L271.979 108.09ZM271.775 108.089L271.788 106.089L270.568 106.08L270.002 107.162L271.775 108.089ZM270.072 110.242L271.376 111.759L271.382 111.753L271.389 111.747L270.072 110.242ZM267.523 111.673L268.162 113.568L268.171 113.565L268.181 113.562L267.523 111.673ZM269.041 106.553L269.943 108.338L269.953 108.333L269.962 108.328L269.041 106.553ZM270.979 104.827L269.302 103.737L269.302 103.737L270.979 104.827ZM271.714 99.5824L273.714 99.5961L273.739 95.9108L270.635 97.8981L271.714 99.5824ZM270.773 99.9851L271.325 101.908L271.342 101.903L271.36 101.897L270.773 99.9851ZM269.459 100.3L269.811 102.269L269.833 102.265L269.855 102.26L269.459 100.3ZM267.991 100.546L268.254 102.528L268.276 102.525L268.299 102.522L267.991 100.546ZM266.66 100.724L266.391 98.7421L266.384 98.7432L266.66 100.724ZM264.423 101.305L265.199 103.149L265.199 103.149L264.423 101.305ZM262.933 102.403L264.505 103.639L264.513 103.63L264.52 103.62L262.933 102.403ZM263.451 106.378L262.261 107.985L262.275 107.996L262.289 108.006L263.451 106.378ZM264.093 112.161L264.107 110.161C262.669 110.151 261.466 109.894 260.457 109.439L259.633 111.261L258.81 113.084C260.407 113.805 262.176 114.148 264.079 114.161L264.093 112.161ZM259.633 111.261L260.47 109.445C259.494 108.995 258.762 108.363 258.223 107.538L256.549 108.632L254.875 109.726C255.843 111.207 257.167 112.328 258.797 113.078L259.633 111.261ZM256.549 108.632L258.236 107.557C257.747 106.791 257.444 105.747 257.454 104.309L255.454 104.295L253.454 104.281C253.44 106.297 253.867 108.145 254.862 109.707L256.549 108.632ZM255.454 104.295L257.454 104.309C257.462 103.091 257.692 102.219 258.033 101.598L256.28 100.636L254.527 99.6731C253.786 101.022 253.465 102.59 253.454 104.281L255.454 104.295ZM256.28 100.636L258.033 101.598C258.417 100.898 258.923 100.357 259.562 99.9454L258.478 98.2644L257.395 96.5833C256.184 97.3634 255.224 98.4033 254.527 99.6731L256.28 100.636ZM258.478 98.2644L259.562 99.9454C260.288 99.4775 261.133 99.1111 262.118 98.8603L261.624 96.9223L261.13 94.9842C259.769 95.331 258.518 95.8594 257.395 96.5833L258.478 98.2644ZM261.624 96.9223L262.113 98.8615C263.188 98.5902 264.324 98.3994 265.522 98.2921L265.344 96.3L265.166 94.308C263.771 94.4329 262.427 94.657 261.134 94.9831L261.624 96.9223ZM265.344 96.3L265.538 98.2906C267.075 98.1407 268.333 97.9983 269.305 97.863L269.029 95.8821L268.753 93.9012C267.859 94.0258 266.661 94.1621 265.15 94.3095L265.344 96.3ZM269.029 95.8821L269.328 97.8595C270.344 97.7057 271.375 97.442 272.17 96.9131L271.062 95.2483L269.953 93.5835C269.955 93.5821 269.934 93.5963 269.88 93.6207C269.826 93.6448 269.748 93.675 269.641 93.7083C269.425 93.7758 269.126 93.8446 268.729 93.9047L269.029 95.8821ZM271.062 95.2483L272.17 96.9131C273.206 96.2235 273.693 95.15 273.701 94.005L271.701 93.9913L269.701 93.9776C269.701 94.0024 269.698 93.9303 269.755 93.8165C269.817 93.6953 269.902 93.6178 269.953 93.5835L271.062 95.2483ZM271.701 93.9913L273.701 94.005L273.702 93.9027L271.702 93.889L269.702 93.8753L269.701 93.9776L271.701 93.9913ZM271.702 93.889L273.702 93.9027C273.712 92.3682 273.216 90.9279 272.016 89.874L270.696 91.3764L269.376 92.8787C269.532 93.016 269.706 93.2508 269.702 93.8753L271.702 93.889ZM270.696 91.3764L272.029 89.8851C270.88 88.8586 269.39 88.481 267.852 88.4704L267.839 90.4704L267.825 92.4704C268.764 92.4768 269.179 92.7032 269.363 92.8677L270.696 91.3764ZM267.839 90.4704L267.852 88.4704C266.264 88.4596 264.753 88.8014 263.524 89.7101L264.713 91.3183L265.902 92.9265C266.227 92.6867 266.8 92.4633 267.825 92.4704L267.839 90.4704ZM264.713 91.3183L263.54 89.6989C262.432 90.502 261.637 91.5728 261.247 92.8862L263.165 93.4555L265.082 94.0248C265.204 93.6144 265.442 93.2604 265.887 92.9377L264.713 91.3183ZM263.165 93.4555L263.34 91.4632L256.628 90.8717L256.453 92.864L256.277 94.8563L262.989 95.4478L263.165 93.4555ZM256.453 92.864L258.405 93.2965C258.689 92.0143 259.224 90.9534 259.997 90.0697L258.492 88.7529L256.987 87.4361C255.744 88.8568 254.92 90.5366 254.5 92.4316L256.453 92.864ZM258.492 88.7529L260.004 90.0624C260.777 89.1702 261.791 88.4596 263.103 87.951L262.38 86.0863L261.657 84.2216C259.801 84.9413 258.224 86.0084 256.98 87.4434L258.492 88.7529ZM262.38 86.0863L263.11 87.9483C264.422 87.4337 266.004 87.1566 267.895 87.1696L267.909 85.1696L267.923 83.1697C265.632 83.154 263.528 83.488 261.65 84.2243L262.38 86.0863ZM267.909 85.1696L267.895 87.1696C269.192 87.1785 270.416 87.3387 271.571 87.6435L272.082 85.7096L272.592 83.7757C271.093 83.3805 269.535 83.1807 267.923 83.1697L267.909 85.1696ZM272.082 85.7096L271.575 87.6445C272.706 87.9403 273.668 88.3828 274.483 88.9557L275.633 87.3192L276.783 85.6827C275.54 84.8096 274.134 84.1791 272.588 83.7747L272.082 85.7096ZM275.633 87.3192L274.492 88.9616C275.267 89.5003 275.87 90.1819 276.316 91.0293L278.086 90.0974L279.855 89.1656C279.112 87.7548 278.08 86.5843 276.774 85.6768L275.633 87.3192ZM278.086 90.0974L276.32 91.0368C276.727 91.8012 276.971 92.7956 276.962 94.0955L278.962 94.1092L280.962 94.1229C280.974 92.3093 280.634 90.6292 279.851 89.1581L278.086 90.0974ZM278.962 94.1092L276.962 94.0955L276.841 111.754L278.841 111.768L280.841 111.782L280.962 94.1229L278.962 94.1092ZM278.841 111.768L278.854 109.768L271.968 109.721L271.954 111.721L271.941 113.721L278.827 113.768L278.841 111.768ZM271.954 111.721L273.954 111.734L273.979 108.104L271.979 108.09L269.979 108.076L269.954 111.707L271.954 111.721ZM271.979 108.09L271.993 106.09L271.788 106.089L271.775 108.089L271.761 110.089L271.966 110.09L271.979 108.09ZM271.775 108.089L270.002 107.162C269.694 107.753 269.282 108.276 268.755 108.737L270.072 110.242L271.389 111.747C272.28 110.968 273.004 110.055 273.547 109.015L271.775 108.089ZM270.072 110.242L268.769 108.725C268.272 109.152 267.648 109.512 266.864 109.785L267.523 111.673L268.181 113.562C269.379 113.144 270.455 112.55 271.376 111.759L270.072 110.242ZM267.523 111.673L266.884 109.778C266.146 110.027 265.231 110.169 264.107 110.161L264.093 112.161L264.079 114.161C265.546 114.171 266.917 113.988 268.162 113.568L267.523 111.673ZM266.207 107.164L266.193 109.164C267.528 109.173 268.795 108.918 269.943 108.338L269.041 106.553L268.139 104.768C267.644 105.018 267.022 105.17 266.221 105.164L266.207 107.164ZM269.041 106.553L269.962 108.328C271.067 107.754 271.983 106.952 272.655 105.918L270.979 104.827L269.302 103.737C269.033 104.151 268.656 104.499 268.119 104.778L269.041 106.553ZM270.979 104.827L272.655 105.918C273.349 104.852 273.686 103.651 273.695 102.374L271.695 102.361L269.695 102.347C269.691 102.911 269.551 103.355 269.302 103.737L270.979 104.827ZM271.695 102.361L273.695 102.374L273.714 99.5961L271.714 99.5824L269.714 99.5687L269.695 102.347L271.695 102.361ZM271.714 99.5824L270.635 97.8981C270.636 97.8978 270.627 97.9033 270.607 97.9136C270.587 97.9239 270.559 97.9376 270.52 97.9542C270.441 97.9879 270.332 98.0284 270.187 98.073L270.773 99.9851L271.36 101.897C271.85 101.747 272.352 101.548 272.792 101.267L271.714 99.5824ZM270.773 99.9851L270.222 98.0625C269.897 98.1559 269.511 98.2488 269.062 98.3396L269.459 100.3L269.855 102.26C270.385 102.153 270.876 102.036 271.325 101.908L270.773 99.9851ZM269.459 100.3L269.106 98.3312C268.632 98.4161 268.158 98.4955 267.683 98.5694L267.991 100.546L268.299 102.522C268.803 102.443 269.307 102.359 269.811 102.269L269.459 100.3ZM267.991 100.546L267.728 98.5629C267.237 98.6279 266.792 98.6877 266.391 98.7421L266.66 100.724L266.93 102.706C267.325 102.652 267.766 102.593 268.254 102.528L267.991 100.546ZM266.66 100.724L266.384 98.7432C265.399 98.8807 264.479 99.1121 263.648 99.4616L264.423 101.305L265.199 103.149C265.644 102.962 266.215 102.805 266.937 102.705L266.66 100.724ZM264.423 101.305L263.648 99.4616C262.749 99.8396 261.949 100.399 261.346 101.186L262.933 102.403L264.52 103.62C264.628 103.48 264.821 103.308 265.199 103.149L264.423 101.305ZM262.933 102.403L261.36 101.167C260.682 102.029 260.4 103.05 260.393 104.09L262.393 104.104L264.393 104.118C264.395 103.794 264.472 103.681 264.505 103.639L262.933 102.403ZM262.393 104.104L260.393 104.09C260.382 105.632 260.97 107.03 262.261 107.985L263.451 106.378L264.641 104.771C264.507 104.671 264.39 104.553 264.393 104.118L262.393 104.104ZM263.451 106.378L262.289 108.006C263.425 108.816 264.773 109.154 266.193 109.164L266.207 107.164L266.221 105.164C265.414 105.159 264.925 104.973 264.613 104.75L263.451 106.378ZM289.391 110.647L288.353 112.357L288.365 112.364L289.391 110.647ZM284.992 105.844L283.199 106.73L283.203 106.738L284.992 105.844ZM285.106 91.7649L283.333 90.8385L283.331 90.8423L285.106 91.7649ZM289.587 87.0398L290.594 88.768L290.601 88.7636L289.587 87.0398ZM302.442 86.6507L303.325 84.8561L303.325 84.8561L302.442 86.6507ZM308.109 95.4681L308.096 97.4681L310.199 97.4825L310.107 95.3808L308.109 95.4681ZM301.257 95.4212L299.277 95.7001L299.517 97.4093L301.243 97.4211L301.257 95.4212ZM299.745 92.2573L298.331 93.6717L298.341 93.6816L298.351 93.6913L299.745 92.2573ZM293.576 91.9252L294.74 93.5517L294.744 93.5489L293.576 91.9252ZM291.54 103.025L289.671 103.736L289.674 103.744L289.677 103.752L291.54 103.025ZM293.482 105.715L294.672 104.107L294.672 104.107L293.482 105.715ZM298.661 106.159L297.766 104.37L297.754 104.377L298.661 106.159ZM300.324 104.688L298.672 103.56L298.668 103.567L300.324 104.688ZM301.21 102.324L301.223 100.324L299.498 100.313L299.233 102.018L301.21 102.324ZM308.062 102.371L310.058 102.499L310.192 100.386L308.076 100.371L308.062 102.371ZM306.389 107.644L304.714 106.552L304.712 106.556L306.389 107.644ZM302.359 111.162L301.477 109.367L301.477 109.367L302.359 111.162ZM296.3 112.399L296.313 110.399C293.918 110.383 291.98 109.864 290.417 108.93L289.391 110.647L288.365 112.364C290.651 113.729 293.318 114.379 296.286 114.399L296.3 112.399ZM289.391 110.647L290.429 108.937C288.845 107.976 287.636 106.661 286.781 104.95L284.992 105.844L283.203 106.738C284.388 109.109 286.112 110.996 288.353 112.357L289.391 110.647ZM284.992 105.844L286.785 104.958C285.935 103.239 285.49 101.211 285.506 98.8246L283.506 98.8109L281.506 98.7972C281.486 101.706 282.031 104.367 283.199 106.73L284.992 105.844ZM283.506 98.8109L285.506 98.8246C285.523 96.4025 286.002 94.3757 286.88 92.6875L285.106 91.7649L283.331 90.8423C282.113 93.1853 281.526 95.8559 281.506 98.7972L283.506 98.8109ZM285.106 91.7649L286.878 92.6913C287.767 90.9898 289 89.6965 290.594 88.768L289.587 87.0398L288.58 85.3117C286.318 86.6295 284.563 88.4863 283.333 90.8385L285.106 91.7649ZM289.587 87.0398L290.601 88.7636C292.165 87.8435 294.084 87.3491 296.437 87.3652L296.451 85.3653L296.465 83.3653C293.522 83.3451 290.865 83.9671 288.573 85.3161L289.587 87.0398ZM296.451 85.3653L296.437 87.3652C298.479 87.3792 300.168 87.7609 301.559 88.4453L302.442 86.6507L303.325 84.8561C301.296 83.8579 298.991 83.3826 296.465 83.3653L296.451 85.3653ZM302.442 86.6507L301.559 88.4453C302.968 89.1383 304.038 90.0797 304.82 91.2708L306.492 90.1728L308.164 89.0749C306.967 87.2523 305.337 85.8456 303.325 84.8561L302.442 86.6507ZM306.492 90.1728L304.82 91.2708C305.589 92.4404 306.036 93.8467 306.111 95.5554L308.109 95.4681L310.107 95.3808C310.005 93.0428 309.375 90.9189 308.164 89.0749L306.492 90.1728ZM308.109 95.4681L308.123 93.4682L301.271 93.4212L301.257 95.4212L301.243 97.4211L308.096 97.4681L308.109 95.4681ZM301.257 95.4212L303.238 95.1422C303.001 93.4634 302.327 91.9788 301.139 90.8233L299.745 92.2573L298.351 93.6913C298.81 94.138 299.145 94.7627 299.277 95.7001L301.257 95.4212ZM299.745 92.2573L301.159 90.8429C299.916 89.6003 298.311 89.0372 296.545 89.0251L296.531 91.025L296.518 93.025C297.411 93.0311 297.948 93.2895 298.331 93.6717L299.745 92.2573ZM296.531 91.025L296.545 89.0251C295.033 89.0147 293.626 89.426 292.408 90.3016L293.576 91.9252L294.744 93.5489C295.217 93.2088 295.78 93.0199 296.518 93.025L296.531 91.025ZM293.576 91.9252L292.412 90.2988C291.212 91.1579 290.35 92.3677 289.765 93.7953L291.615 94.5539L293.466 95.3125C293.828 94.4284 294.273 93.8858 294.74 93.5517L293.576 91.9252ZM291.615 94.5539L289.765 93.7953C289.168 95.2499 288.9 96.9195 288.887 98.7455L290.887 98.7593L292.887 98.773C292.897 97.3036 293.114 96.1697 293.466 95.3125L291.615 94.5539ZM290.887 98.7593L288.887 98.7455C288.875 100.586 289.112 102.269 289.671 103.736L291.54 103.025L293.409 102.314C293.075 101.434 292.877 100.273 292.887 98.773L290.887 98.7593ZM291.54 103.025L289.677 103.752C290.243 105.203 291.094 106.435 292.292 107.322L293.482 105.715L294.672 104.107C294.196 103.755 293.753 103.195 293.403 102.298L291.54 103.025ZM293.482 105.715L292.292 107.322C293.497 108.214 294.898 108.645 296.411 108.655L296.424 106.655L296.438 104.655C295.701 104.65 295.14 104.454 294.672 104.107L293.482 105.715ZM296.424 106.655L296.411 108.655C297.522 108.663 298.589 108.44 299.567 107.942L298.661 106.159L297.754 104.377C297.41 104.552 296.986 104.659 296.438 104.655L296.424 106.655ZM298.661 106.159L299.555 107.948C300.546 107.453 301.359 106.727 301.981 105.808L300.324 104.688L298.668 103.567C298.417 103.938 298.121 104.193 297.766 104.37L298.661 106.159ZM300.324 104.688L301.976 105.815C302.618 104.874 303.006 103.795 303.186 102.631L301.21 102.324L299.233 102.018C299.129 102.693 298.926 103.189 298.672 103.56L300.324 104.688ZM301.21 102.324L301.196 104.324L308.048 104.371L308.062 102.371L308.076 100.371L301.223 100.324L301.21 102.324ZM308.062 102.371L306.066 102.244C305.958 103.937 305.494 105.355 304.714 106.552L306.389 107.644L308.065 108.736C309.26 106.901 309.911 104.804 310.058 102.499L308.062 102.371ZM306.389 107.644L304.712 106.556C303.944 107.738 302.885 108.675 301.477 109.367L302.359 111.162L303.242 112.957C305.255 111.967 306.882 110.559 308.067 108.733L306.389 107.644ZM302.359 111.162L301.477 109.367C300.101 110.044 298.4 110.413 296.313 110.399L296.3 112.399L296.286 114.399C298.858 114.417 301.197 113.962 303.242 112.957L302.359 111.162ZM317.63 110.909L316.627 112.639L316.639 112.646L317.63 110.909ZM313.196 106.208L311.413 107.114L311.415 107.118L313.196 106.208ZM313.294 91.9411L311.522 91.0147L311.522 91.0147L313.294 91.9411ZM317.741 87.2158L316.73 85.4902L316.726 85.4929L317.741 87.2158ZM329.287 86.4256L328.573 88.294L328.582 88.2972L328.59 88.3004L329.287 86.4256ZM333.19 88.924L331.773 90.3357L331.781 90.3429L333.19 88.924ZM335.787 93.1009L333.909 93.7889L333.91 93.7932L335.787 93.1009ZM336.67 100.931L336.657 102.931L338.657 102.945L338.67 100.945L336.67 100.931ZM314.563 100.78L312.563 100.766L312.549 102.766L314.549 102.779L314.563 100.78ZM314.594 96.2796L314.608 94.2797L312.608 94.266L312.594 96.2659L314.594 96.2796ZM329.866 96.3843L329.853 98.3843L331.852 98.398L331.866 96.398L329.866 96.3843ZM329.203 93.6013L327.454 94.571L327.454 94.571L329.203 93.6013ZM327.324 91.6963L326.302 93.4151L326.316 93.4237L326.331 93.432L327.324 91.6963ZM321.614 91.7254L322.624 93.4514L322.631 93.4474L321.614 91.7254ZM319.623 93.7402L321.355 94.7393L321.361 94.7293L319.623 93.7402ZM318.871 96.5476L316.871 96.5119L316.871 96.5229L316.871 96.5339L318.871 96.5476ZM319.534 104.189L317.743 105.079L317.748 105.088L317.752 105.096L319.534 104.189ZM326.948 106.848L326.319 104.949L326.319 104.949L326.948 106.848ZM328.676 105.837L327.307 104.379L327.307 104.379L328.676 105.837ZM329.779 104.174L329.924 102.179L328.448 102.071L327.914 103.452L329.779 104.174ZM336.491 104.663L338.445 105.09L338.938 102.836L336.637 102.668L336.491 104.663ZM334.366 108.876L332.872 107.546L332.871 107.547L334.366 108.876ZM330.29 111.643L331.02 113.505L331.027 113.503L330.29 111.643ZM324.573 112.593L324.587 110.593C322.165 110.576 320.203 110.074 318.621 109.172L317.63 110.909L316.639 112.646C318.929 113.952 321.595 114.572 324.559 114.593L324.573 112.593ZM317.63 110.909L318.633 109.178C317.048 108.26 315.837 106.981 314.977 105.298L313.196 106.208L311.415 107.118C312.618 109.472 314.363 111.327 316.627 112.639L317.63 110.909ZM313.196 106.208L314.979 105.302C314.12 103.611 313.66 101.544 313.677 99.0348L311.677 99.0211L309.677 99.0074C309.657 102.021 310.209 104.745 311.413 107.114L313.196 106.208ZM311.677 99.0211L313.677 99.0348C313.694 96.6033 314.178 94.5665 315.067 92.8675L313.294 91.9411L311.522 91.0147C310.291 93.3694 309.698 96.0526 309.677 99.0074L311.677 99.0211ZM313.294 91.9411L315.067 92.8675C315.959 91.1597 317.184 89.8657 318.757 88.9387L317.741 87.2158L316.726 85.4929C314.487 86.8125 312.748 88.6687 311.522 91.0147L313.294 91.9411ZM317.741 87.2158L318.752 88.9413C320.313 88.0269 322.19 87.5417 324.455 87.5572L324.469 85.5573L324.482 83.5573C321.611 83.5377 319.003 84.1581 316.73 85.4902L317.741 87.2158ZM324.469 85.5573L324.455 87.5572C325.964 87.5676 327.331 87.8194 328.573 88.294L329.287 86.4256L330 84.5572C328.273 83.8977 326.428 83.5707 324.482 83.5573L324.469 85.5573ZM329.287 86.4256L328.59 88.3004C329.821 88.7575 330.875 89.4343 331.774 90.3357L333.19 88.924L334.607 87.5122C333.293 86.1939 331.745 85.205 329.983 84.5507L329.287 86.4256ZM333.19 88.924L331.781 90.3429C332.664 91.2207 333.382 92.3527 333.909 93.7889L335.787 93.1009L337.665 92.4129C336.964 90.4997 335.951 88.8471 334.6 87.505L333.19 88.924ZM335.787 93.1009L333.91 93.7932C334.422 95.1809 334.698 96.8774 334.684 98.9231L336.684 98.9368L338.684 98.9505C338.701 96.5417 338.378 94.3476 337.663 92.4087L335.787 93.1009ZM336.684 98.9368L334.684 98.9231L334.67 100.917L336.67 100.931L338.67 100.945L338.684 98.9505L336.684 98.9368ZM336.67 100.931L336.684 98.9311L314.577 98.7796L314.563 100.78L314.549 102.779L336.657 102.931L336.67 100.931ZM314.563 100.78L316.563 100.793L316.594 96.2933L314.594 96.2796L312.594 96.2659L312.563 100.766L314.563 100.78ZM314.594 96.2796L314.58 98.2796L329.853 98.3843L329.866 96.3843L329.88 94.3844L314.608 94.2797L314.594 96.2796ZM329.866 96.3843L331.866 96.398C331.875 95.0538 331.589 93.7794 330.953 92.6316L329.203 93.6013L327.454 94.571C327.716 95.043 327.871 95.624 327.866 96.3706L329.866 96.3843ZM329.203 93.6013L330.953 92.6316C330.326 91.5021 329.439 90.6022 328.318 89.9606L327.324 91.6963L326.331 93.432C326.817 93.7106 327.182 94.0807 327.454 94.571L329.203 93.6013ZM327.324 91.6963L328.347 89.9775C327.207 89.2993 325.924 88.9878 324.565 88.9785L324.551 90.9784L324.537 92.9784C325.292 92.9836 325.857 93.1507 326.302 93.4151L327.324 91.6963ZM324.551 90.9784L324.565 88.9785C323.141 88.9687 321.798 89.2939 320.597 90.0034L321.614 91.7254L322.631 93.4474C323.142 93.1458 323.757 92.973 324.537 92.9784L324.551 90.9784ZM321.614 91.7254L320.604 89.9993C319.457 90.6707 318.542 91.5963 317.884 92.751L319.623 93.7402L321.361 94.7293C321.67 94.1861 322.083 93.7685 322.624 93.4514L321.614 91.7254ZM319.623 93.7402L317.89 92.7411C317.226 93.8924 316.895 95.1636 316.871 96.5119L318.871 96.5476L320.87 96.5833C320.883 95.8636 321.053 95.2632 321.355 94.7393L319.623 93.7402ZM318.871 96.5476L316.871 96.5339L316.841 100.812L318.841 100.826L320.841 100.84L320.87 96.5613L318.871 96.5476ZM318.841 100.826L316.841 100.812C316.831 102.352 317.105 103.796 317.743 105.079L319.534 104.189L321.325 103.298C321.022 102.689 320.834 101.891 320.841 100.84L318.841 100.826ZM319.534 104.189L317.752 105.096C318.401 106.37 319.345 107.392 320.57 108.11L321.582 106.385L322.593 104.659C322.053 104.343 321.632 103.9 321.316 103.281L319.534 104.189ZM321.582 106.385L320.57 108.11C321.808 108.836 323.216 109.163 324.716 109.173L324.73 107.173L324.743 105.173C323.812 105.167 323.121 104.968 322.593 104.659L321.582 106.385ZM324.73 107.173L324.716 109.173C325.711 109.18 326.671 109.046 327.577 108.746L326.948 106.848L326.319 104.949C325.881 105.094 325.362 105.178 324.743 105.173L324.73 107.173ZM326.948 106.848L327.577 108.746C328.504 108.439 329.338 107.959 330.046 107.294L328.676 105.837L327.307 104.379C327.054 104.617 326.736 104.811 326.319 104.949L326.948 106.848ZM328.676 105.837L330.046 107.294C330.759 106.624 331.289 105.813 331.644 104.896L329.779 104.174L327.914 103.452C327.76 103.85 327.554 104.147 327.307 104.379L328.676 105.837ZM329.779 104.174L329.633 106.168L336.346 106.658L336.491 104.663L336.637 102.668L329.924 102.179L329.779 104.174ZM336.491 104.663L334.538 104.236C334.257 105.522 333.702 106.613 332.872 107.546L334.366 108.876L335.86 110.205C337.16 108.744 338.022 107.026 338.445 105.09L336.491 104.663ZM334.366 108.876L332.871 107.547C332.05 108.471 330.964 109.225 329.553 109.784L330.29 111.643L331.027 113.503C332.944 112.743 334.574 111.652 335.861 110.204L334.366 108.876ZM330.29 111.643L329.56 109.781C328.19 110.318 326.545 110.606 324.587 110.593L324.573 112.593L324.559 114.593C326.919 114.609 329.086 114.264 331.02 113.505L330.29 111.643ZM341.332 112.196L339.332 112.183L339.318 114.182L341.318 114.196L341.332 112.196ZM341.511 86.015L341.525 84.0151L339.525 84.0014L339.511 86.0013L341.511 86.015ZM348.432 86.0624L350.432 86.0762L350.445 84.0762L348.445 84.0625L348.432 86.0624ZM348.4 90.6817L346.4 90.6679L346.386 92.6679L348.386 92.6816L348.4 90.6817ZM348.707 90.6838L348.693 92.6837L350.105 92.6934L350.587 91.3667L348.707 90.6838ZM351.459 87.0719L350.327 85.4228L350.327 85.4228L351.459 87.0719ZM360.612 87.1516L359.441 88.7731L359.451 88.7801L360.612 87.1516ZM363.11 90.7825L361.178 91.3016L361.574 92.772L363.096 92.7824L363.11 90.7825ZM363.383 90.7843L363.369 92.7843L364.78 92.794L365.262 91.4681L363.383 90.7843ZM366.305 87.2077L367.374 88.8979L367.378 88.8957L366.305 87.2077ZM377.241 88.2543L375.802 89.6429L375.807 89.6482L375.812 89.6535L377.241 88.2543ZM379.377 112.457L379.363 114.457L381.363 114.471L381.376 112.471L379.377 112.457ZM372.132 112.407L370.132 112.394L370.119 114.394L372.119 114.407L372.132 112.407ZM371.107 92.951L369.726 94.3979L369.726 94.3979L371.107 92.951ZM365.123 93.0804L366.607 94.4206L366.616 94.4106L365.123 93.0804ZM363.883 112.351L363.869 114.351L365.869 114.364L365.883 112.364L363.883 112.351ZM356.843 112.303L354.843 112.289L354.829 114.289L356.829 114.302L356.843 112.303ZM355.868 92.8977L354.412 94.2692L354.418 94.2748L354.423 94.2804L355.868 92.8977ZM350.809 92.3346L351.858 94.0378L351.866 94.0328L350.809 92.3346ZM349.281 94.0116L351.046 94.9518L351.052 94.9404L349.281 94.0116ZM348.593 112.246L348.579 114.246L350.579 114.26L350.593 112.26L348.593 112.246ZM341.332 112.196L343.332 112.21L343.511 86.0287L341.511 86.015L339.511 86.0013L339.332 112.183L341.332 112.196ZM341.511 86.015L341.498 88.015L348.418 88.0624L348.432 86.0624L348.445 84.0625L341.525 84.0151L341.511 86.015ZM348.432 86.0624L346.432 86.0487L346.4 90.6679L348.4 90.6817L350.4 90.6954L350.432 86.0762L348.432 86.0624ZM348.4 90.6817L348.386 92.6816L348.693 92.6837L348.707 90.6838L348.721 88.6838L348.414 88.6817L348.4 90.6817ZM348.707 90.6838L350.587 91.3667C351.008 90.2078 351.674 89.3502 352.591 88.7209L351.459 87.0719L350.327 85.4228C348.687 86.5488 347.518 88.0991 346.827 90.0008L348.707 90.6838ZM351.459 87.0719L352.591 88.7209C353.486 88.1065 354.598 87.7638 356.022 87.7736L356.036 85.7736L356.05 83.7737C353.929 83.7592 351.99 84.2819 350.327 85.4228L351.459 87.0719ZM356.036 85.7736L356.022 87.7736C357.471 87.7835 358.575 88.1474 359.441 88.7731L360.612 87.1516L361.783 85.5302C360.139 84.3432 358.192 83.7884 356.05 83.7737L356.036 85.7736ZM360.612 87.1516L359.451 88.7801C360.319 89.3987 360.886 90.2119 361.178 91.3016L363.11 90.7825L365.041 90.2634C364.514 88.3019 363.416 86.6946 361.773 85.5232L360.612 87.1516ZM363.11 90.7825L363.096 92.7824L363.369 92.7843L363.383 90.7843L363.396 88.7844L363.124 88.7825L363.11 90.7825ZM363.383 90.7843L365.262 91.4681C365.648 90.4066 366.327 89.5604 367.374 88.8979L366.305 87.2077L365.236 85.5175C363.475 86.6312 362.206 88.1695 361.503 90.1006L363.383 90.7843ZM366.305 87.2077L367.378 88.8957C368.423 88.2313 369.702 87.8674 371.295 87.8783L371.309 85.8783L371.322 83.8784C369.075 83.863 367.017 84.3853 365.232 85.5197L366.305 87.2077ZM371.309 85.8783L371.295 87.8783C373.272 87.8918 374.711 88.5118 375.802 89.6429L377.241 88.2543L378.681 86.8656C376.748 84.8623 374.232 83.8983 371.322 83.8784L371.309 85.8783ZM377.241 88.2543L375.812 89.6535C376.864 90.7276 377.514 92.3555 377.497 94.8357L379.497 94.8494L381.497 94.8631C381.519 91.6616 380.666 88.8928 378.67 86.855L377.241 88.2543ZM379.497 94.8494L377.497 94.8357L377.377 112.443L379.377 112.457L381.376 112.471L381.497 94.8631L379.497 94.8494ZM379.377 112.457L379.39 110.457L372.146 110.407L372.132 112.407L372.119 114.407L379.363 114.457L379.377 112.457ZM372.132 112.407L374.132 112.421L374.243 96.2453L372.243 96.2316L370.243 96.2179L370.132 112.394L372.132 112.407ZM372.243 96.2316L374.243 96.2453C374.256 94.4504 373.785 92.7419 372.487 91.504L371.107 92.951L369.726 94.3979C369.964 94.6252 370.251 95.1037 370.243 96.2179L372.243 96.2316ZM371.107 92.951L372.487 91.504C371.315 90.3859 369.847 89.8514 368.23 89.8403L368.216 91.8402L368.203 93.8402C368.904 93.845 369.362 94.051 369.726 94.3979L371.107 92.951ZM368.216 91.8402L368.23 89.8403C366.449 89.8281 364.825 90.4073 363.629 91.7503L365.123 93.0804L366.616 94.4106C366.909 94.0818 367.348 93.8343 368.203 93.8402L368.216 91.8402ZM365.123 93.0804L363.638 91.7402C362.495 93.0068 362.004 94.6114 361.992 96.3488L363.992 96.3625L365.992 96.3762C365.999 95.3864 366.262 94.8029 366.607 94.4206L365.123 93.0804ZM363.992 96.3625L361.992 96.3488L361.883 112.337L363.883 112.351L365.883 112.364L365.992 96.3762L363.992 96.3625ZM363.883 112.351L363.896 110.351L356.857 110.303L356.843 112.303L356.829 114.302L363.869 114.351L363.883 112.351ZM356.843 112.303L358.843 112.316L358.955 95.9871L356.955 95.9734L354.955 95.9597L354.843 112.289L356.843 112.303ZM356.955 95.9734L358.955 95.9871C358.966 94.2994 358.479 92.7333 357.313 91.5149L355.868 92.8977L354.423 94.2804C354.724 94.5948 354.961 95.0792 354.955 95.9597L356.955 95.9734ZM355.868 92.8977L357.324 91.5261C356.176 90.3076 354.669 89.7473 353.009 89.7359L352.995 91.7359L352.982 93.7359C353.708 93.7408 354.116 93.9551 354.412 94.2692L355.868 92.8977ZM352.995 91.7359L353.009 89.7359C351.845 89.728 350.742 90.0211 349.753 90.6363L350.809 92.3346L351.866 94.0328C352.178 93.8387 352.532 93.7328 352.982 93.7359L352.995 91.7359ZM350.809 92.3346L349.761 90.6313C348.788 91.23 348.041 92.0695 347.509 93.0829L349.281 94.0116L351.052 94.9404C351.281 94.5044 351.552 94.2258 351.858 94.0378L350.809 92.3346ZM349.281 94.0116L347.515 93.0715C346.957 94.1208 346.709 95.2903 346.701 96.5167L348.701 96.5304L350.701 96.5442C350.706 95.8388 350.845 95.3291 351.046 94.9518L349.281 94.0116ZM348.701 96.5304L346.701 96.5167L346.593 112.232L348.593 112.246L350.593 112.26L350.701 96.5442L348.701 96.5304ZM348.593 112.246L348.607 110.246L341.346 110.196L341.332 112.196L341.318 114.196L348.579 114.246L348.593 112.246ZM388.115 112.142L387.278 113.959L387.285 113.962L387.291 113.965L388.115 112.142ZM385.03 109.513L383.344 110.588L383.35 110.597L383.356 110.607L385.03 109.513ZM384.761 101.516L383.008 100.554L383.008 100.554L384.761 101.516ZM386.959 99.145L385.876 97.464L385.876 97.464L386.959 99.145ZM390.105 97.8029L389.616 95.8637L389.611 95.8648L390.105 97.8029ZM393.825 97.1806L394.004 99.1727L394.012 99.172L394.02 99.1712L393.825 97.1806ZM397.51 96.7627L397.786 98.7436L397.798 98.7419L397.81 98.7401L397.51 96.7627ZM399.543 96.1289L398.435 94.4641L398.435 94.4641L399.543 96.1289ZM399.177 92.257L397.845 93.7483L397.851 93.7538L397.857 93.7593L399.177 92.257ZM393.195 92.1989L394.368 93.8183L394.376 93.8128L394.384 93.8071L393.195 92.1989ZM391.646 94.3361L391.47 96.3284L393.098 96.4718L393.563 94.9054L391.646 94.3361ZM384.934 93.7446L382.981 93.3122L382.489 95.5369L384.758 95.7369L384.934 93.7446ZM386.973 89.6335L388.479 90.9503L388.485 90.943L386.973 89.6335ZM390.861 86.9669L391.584 88.8316L391.591 88.8289L390.861 86.9669ZM400.563 86.5902L400.053 88.5241L400.057 88.5251L400.563 86.5902ZM404.114 88.1998L402.965 89.8364L402.973 89.8422L404.114 88.1998ZM406.567 90.9781L404.797 91.9099L404.801 91.9174L406.567 90.9781ZM407.322 112.649L407.308 114.648L409.308 114.662L409.322 112.662L407.322 112.649ZM400.436 112.601L398.436 112.588L398.422 114.588L400.422 114.601L400.436 112.601ZM400.461 108.971L402.461 108.984L402.474 106.984L400.474 106.971L400.461 108.971ZM400.256 108.969L400.27 106.969L399.049 106.961L398.483 108.043L400.256 108.969ZM398.554 111.122L399.857 112.64L399.864 112.634L399.871 112.628L398.554 111.122ZM396.004 112.554L396.643 114.449L396.653 114.446L396.662 114.442L396.004 112.554ZM397.522 107.433L398.424 109.219L398.434 109.214L398.444 109.209L397.522 107.433ZM399.46 105.708L397.784 104.618L397.784 104.618L399.46 105.708ZM400.195 100.463L402.195 100.477L402.22 96.7914L399.117 98.7787L400.195 100.463ZM399.255 100.866L399.806 102.788L399.824 102.783L399.841 102.778L399.255 100.866ZM397.94 101.181L398.292 103.149L398.314 103.145L398.336 103.141L397.94 101.181ZM396.472 101.426L396.735 103.409L396.758 103.406L396.78 103.402L396.472 101.426ZM395.142 101.605L394.872 99.6227L394.865 99.6238L395.142 101.605ZM392.905 102.186L393.68 104.029L393.68 104.029L392.905 102.186ZM391.414 103.284L392.987 104.52L392.994 104.51L393.001 104.501L391.414 103.284ZM391.932 107.259L390.742 108.866L390.756 108.877L390.771 108.887L391.932 107.259ZM392.575 113.042L392.588 111.042C391.151 111.032 389.947 110.775 388.938 110.319L388.115 112.142L387.291 113.965C388.888 114.686 390.658 115.029 392.561 115.042L392.575 113.042ZM388.115 112.142L388.951 110.325C387.975 109.876 387.244 109.243 386.705 108.419L385.03 109.513L383.356 110.607C384.324 112.088 385.649 113.208 387.278 113.959L388.115 112.142ZM385.03 109.513L386.717 108.438C386.229 107.672 385.925 106.628 385.935 105.189L383.935 105.176L381.935 105.162C381.921 107.178 382.348 109.025 383.344 110.588L385.03 109.513ZM383.935 105.176L385.935 105.189C385.943 103.972 386.173 103.1 386.514 102.479L384.761 101.516L383.008 100.554C382.267 101.903 381.947 103.47 381.935 105.162L383.935 105.176ZM384.761 101.516L386.514 102.479C386.899 101.779 387.404 101.238 388.043 100.826L386.959 99.145L385.876 97.464C384.666 98.244 383.705 99.2839 383.008 100.554L384.761 101.516ZM386.959 99.145L388.043 100.826C388.769 100.358 389.615 99.9917 390.599 99.741L390.105 97.8029L389.611 95.8648C388.25 96.2116 386.999 96.74 385.876 97.464L386.959 99.145ZM390.105 97.8029L390.594 99.7421C391.67 99.4708 392.806 99.28 394.004 99.1727L393.825 97.1806L393.647 95.1886C392.253 95.3135 390.908 95.5376 389.616 95.8637L390.105 97.8029ZM393.825 97.1806L394.02 99.1712C395.556 99.0213 396.815 98.8789 397.786 98.7436L397.51 96.7627L397.234 94.7818C396.34 94.9064 395.142 95.0427 393.631 95.1901L393.825 97.1806ZM397.51 96.7627L397.81 98.7401C398.825 98.5863 399.857 98.3227 400.651 97.7937L399.543 96.1289L398.435 94.4641C398.437 94.4627 398.415 94.4769 398.361 94.5013C398.307 94.5254 398.229 94.5556 398.123 94.5889C397.906 94.6564 397.607 94.7252 397.21 94.7853L397.51 96.7627ZM399.543 96.1289L400.651 97.7937C401.687 97.1041 402.174 96.0306 402.182 94.8856L400.182 94.8719L398.182 94.8582C398.182 94.883 398.179 94.811 398.237 94.6971C398.298 94.5759 398.383 94.4984 398.435 94.4641L399.543 96.1289ZM400.182 94.8719L402.182 94.8856L402.183 94.7833L400.183 94.7696L398.183 94.7559L398.182 94.8582L400.182 94.8719ZM400.183 94.7696L402.183 94.7833C402.193 93.2488 401.697 91.8085 400.498 90.7546L399.177 92.257L397.857 93.7593C398.013 93.8966 398.187 94.1314 398.183 94.7559L400.183 94.7696ZM399.177 92.257L400.51 90.7657C399.361 89.7392 397.871 89.3616 396.334 89.3511L396.32 91.351L396.306 93.351C397.246 93.3574 397.661 93.5838 397.845 93.7483L399.177 92.257ZM396.32 91.351L396.334 89.3511C394.745 89.3402 393.235 89.682 392.006 90.5907L393.195 92.1989L394.384 93.8071C394.708 93.5673 395.281 93.3439 396.306 93.351L396.32 91.351ZM393.195 92.1989L392.021 90.5795C390.913 91.3826 390.119 92.4534 389.729 93.7668L391.646 94.3361L393.563 94.9054C393.685 94.495 393.923 94.141 394.368 93.8183L393.195 92.1989ZM391.646 94.3361L391.821 92.3438L385.109 91.7523L384.934 93.7446L384.758 95.7369L391.47 96.3284L391.646 94.3361ZM384.934 93.7446L386.887 94.1771C387.171 92.8949 387.706 91.8341 388.479 90.9503L386.973 89.6335L385.468 88.3167C384.225 89.7374 383.401 91.4172 382.981 93.3122L384.934 93.7446ZM386.973 89.6335L388.485 90.943C389.258 90.0508 390.273 89.3402 391.584 88.8316L390.861 86.9669L390.138 85.1022C388.282 85.8219 386.705 86.889 385.462 88.324L386.973 89.6335ZM390.861 86.9669L391.591 88.8289C392.904 88.3143 394.486 88.0372 396.377 88.0502L396.39 86.0502L396.404 84.0503C394.113 84.0346 392.009 84.3686 390.131 85.1049L390.861 86.9669ZM396.39 86.0502L396.377 88.0502C397.674 88.0591 398.897 88.2193 400.053 88.5241L400.563 86.5902L401.073 84.6563C399.574 84.2611 398.016 84.0613 396.404 84.0503L396.39 86.0502ZM400.563 86.5902L400.057 88.5251C401.188 88.8209 402.149 89.2634 402.965 89.8364L404.114 88.1998L405.264 86.5633C404.021 85.6902 402.615 85.0597 401.069 84.6553L400.563 86.5902ZM404.114 88.1998L402.973 89.8422C403.748 90.3809 404.351 91.0625 404.797 91.9099L406.567 90.9781L408.337 90.0462C407.594 88.6354 406.562 87.4649 405.256 86.5574L404.114 88.1998ZM406.567 90.9781L404.801 91.9174C405.208 92.6818 405.452 93.6762 405.443 94.9761L407.443 94.9898L409.443 95.0035C409.455 93.1899 409.115 91.5098 408.333 90.0387L406.567 90.9781ZM407.443 94.9898L405.443 94.9761L405.322 112.635L407.322 112.649L409.322 112.662L409.443 95.0035L407.443 94.9898ZM407.322 112.649L407.336 110.649L400.449 110.601L400.436 112.601L400.422 114.601L407.308 114.648L407.322 112.649ZM400.436 112.601L402.436 112.615L402.461 108.984L400.461 108.971L398.461 108.957L398.436 112.588L400.436 112.601ZM400.461 108.971L400.474 106.971L400.27 106.969L400.256 108.969L400.242 110.969L400.447 110.971L400.461 108.971ZM400.256 108.969L398.483 108.043C398.175 108.633 397.764 109.156 397.237 109.617L398.554 111.122L399.871 112.628C400.761 111.848 401.485 110.936 402.029 109.896L400.256 108.969ZM398.554 111.122L397.251 109.605C396.754 110.032 396.129 110.392 395.346 110.665L396.004 112.554L396.662 114.442C397.861 114.025 398.936 113.43 399.857 112.64L398.554 111.122ZM396.004 112.554L395.365 110.659C394.628 110.907 393.713 111.05 392.588 111.042L392.575 113.042L392.561 115.042C394.027 115.052 395.399 114.869 396.643 114.449L396.004 112.554ZM394.688 108.045L394.675 110.045C396.009 110.054 397.277 109.798 398.424 109.219L397.522 107.433L396.62 105.648C396.126 105.898 395.504 106.05 394.702 106.045L394.688 108.045ZM397.522 107.433L398.444 109.209C399.549 108.635 400.464 107.833 401.137 106.798L399.46 105.708L397.784 104.618C397.514 105.032 397.138 105.38 396.601 105.658L397.522 107.433ZM399.46 105.708L401.137 106.798C401.83 105.732 402.167 104.532 402.176 103.255L400.176 103.241L398.176 103.228C398.172 103.792 398.032 104.236 397.784 104.618L399.46 105.708ZM400.176 103.241L402.176 103.255L402.195 100.477L400.195 100.463L398.195 100.449L398.176 103.228L400.176 103.241ZM400.195 100.463L399.117 98.7787C399.117 98.7784 399.108 98.7839 399.089 98.7942C399.069 98.8045 399.04 98.8182 399.001 98.8348C398.923 98.8685 398.814 98.909 398.668 98.9536L399.255 100.866L399.841 102.778C400.331 102.628 400.834 102.429 401.273 102.147L400.195 100.463ZM399.255 100.866L398.704 98.9431C398.378 99.0365 397.993 99.1294 397.544 99.2202L397.94 101.181L398.336 103.141C398.866 103.034 399.357 102.917 399.806 102.788L399.255 100.866ZM397.94 101.181L397.588 99.2118C397.113 99.2967 396.639 99.3761 396.165 99.45L396.472 101.426L396.78 103.402C397.284 103.324 397.788 103.239 398.292 103.149L397.94 101.181ZM396.472 101.426L396.21 99.4435C395.719 99.5086 395.273 99.5683 394.872 99.6228L395.142 101.605L395.411 103.586C395.806 103.533 396.248 103.473 396.735 103.409L396.472 101.426ZM395.142 101.605L394.865 99.6238C393.88 99.7613 392.96 99.9927 392.129 100.342L392.905 102.186L393.68 104.029C394.125 103.842 394.697 103.686 395.418 103.585L395.142 101.605ZM392.905 102.186L392.129 100.342C391.23 100.72 390.43 101.28 389.827 102.066L391.414 103.284L393.001 104.501C393.109 104.36 393.302 104.188 393.68 104.029L392.905 102.186ZM391.414 103.284L389.842 102.048C389.164 102.91 388.881 103.931 388.874 104.971L390.874 104.984L392.874 104.998C392.876 104.675 392.954 104.561 392.987 104.52L391.414 103.284ZM390.874 104.984L388.874 104.971C388.864 106.513 389.452 107.91 390.742 108.866L391.932 107.259L393.123 105.652C392.988 105.552 392.871 105.433 392.874 104.998L390.874 104.984ZM391.932 107.259L390.771 108.887C391.906 109.697 393.254 110.035 394.675 110.045L394.688 108.045L394.702 106.045C393.896 106.039 393.406 105.854 393.094 105.631L391.932 107.259ZM434.867 94.121L434.976 96.118L437.118 96.0009L436.852 93.8727L434.867 94.121ZM428.217 94.4845L426.253 94.8633L426.583 96.5767L428.326 96.4815L428.217 94.4845ZM427.494 92.9454L425.928 94.1887L425.935 94.1982L425.943 94.2076L427.494 92.9454ZM426.019 91.8273L425.153 93.6303L425.174 93.64L425.194 93.6493L426.019 91.8273ZM421.006 92.0827L422.027 93.8025L422.036 93.7971L422.045 93.7915L421.006 92.0827ZM420.573 95.5401L419.255 97.0447L419.255 97.0447L420.573 95.5401ZM423.14 96.5975L422.706 98.5499L422.719 98.5527L422.731 98.5553L423.14 96.5975ZM427.872 97.5845L428.287 95.6281L428.28 95.6266L427.872 97.5845ZM433.547 100.146L432.178 101.603L432.178 101.603L433.547 100.146ZM433.843 109.234L432.275 107.992L432.268 108.001L433.843 109.234ZM429.697 112.239L430.446 114.094L430.452 114.091L429.697 112.239ZM415.404 111.05L414.234 112.672L414.244 112.68L415.404 111.05ZM411.848 105.094L411.757 103.096L409.576 103.196L409.866 105.36L411.848 105.094ZM418.993 104.768L420.955 104.381L420.622 102.692L418.901 102.77L418.993 104.768ZM420.544 107.199L419.418 108.852L419.426 108.857L419.434 108.863L420.544 107.199ZM426.799 107.327L427.856 109.025L427.863 109.021L426.799 107.327ZM428.006 105.409L430.005 105.452L430.006 105.42L430.005 105.389L428.006 105.409ZM427.181 103.784L425.929 105.344L425.939 105.352L425.95 105.36L427.181 103.784ZM424.666 102.779L425.071 100.82L425.07 100.82L424.666 102.779ZM420.138 101.844L419.732 103.802L419.733 103.803L420.138 101.844ZM414.446 99.1459L413.009 100.537L413.016 100.544L414.446 99.1459ZM414.014 89.9723L412.428 88.7542L412.421 88.7637L414.014 89.9723ZM417.903 87.1863L417.182 85.3209L417.177 85.3226L417.903 87.1863ZM431.565 88.388L430.368 89.9902L430.373 89.9936L431.565 88.388ZM434.867 94.121L434.758 92.1239L428.108 92.4875L428.217 94.4845L428.326 96.4815L434.976 96.118L434.867 94.121ZM428.217 94.4845L430.181 94.1057C430.007 93.2071 429.622 92.3917 429.046 91.6832L427.494 92.9454L425.943 94.2076C426.11 94.4133 426.207 94.624 426.253 94.8633L428.217 94.4845ZM427.494 92.9454L429.061 91.7021C428.468 90.9553 427.709 90.3971 426.844 90.0053L426.019 91.8273L425.194 93.6493C425.552 93.8114 425.777 93.9986 425.928 94.1887L427.494 92.9454ZM426.019 91.8273L426.885 90.0243C425.958 89.5795 424.932 89.3937 423.871 89.3864L423.857 91.3863L423.844 93.3863C424.465 93.3906 424.879 93.4987 425.153 93.6303L426.019 91.8273ZM423.857 91.3863L423.871 89.3864C422.463 89.3767 421.127 89.6678 419.967 90.374L421.006 92.0827L422.045 93.7915C422.436 93.5537 423.001 93.3805 423.844 93.3863L423.857 91.3863ZM421.006 92.0827L419.985 90.3629C418.714 91.1173 417.845 92.3341 417.834 93.936L419.834 93.9497L421.834 93.9634C421.834 93.9331 421.838 93.9258 421.835 93.9341C421.833 93.9432 421.828 93.9529 421.825 93.9582C421.817 93.9708 421.851 93.907 422.027 93.8025L421.006 92.0827ZM419.834 93.9497L417.834 93.936C417.825 95.1789 418.349 96.2514 419.255 97.0447L420.573 95.5401L421.891 94.0354C421.856 94.0053 421.839 93.9847 421.832 93.9756C421.825 93.9669 421.826 93.9663 421.829 93.9731C421.832 93.9802 421.834 93.987 421.835 93.9904C421.836 93.9934 421.834 93.9856 421.834 93.9634L419.834 93.9497ZM420.573 95.5401L419.255 97.0447C420.142 97.8209 421.406 98.2611 422.706 98.5499L423.14 96.5975L423.573 94.645C422.445 94.3944 421.998 94.1297 421.891 94.0354L420.573 95.5401ZM423.14 96.5975L422.731 98.5553L427.463 99.5423L427.872 97.5845L428.28 95.6266L423.548 94.6396L423.14 96.5975ZM427.872 97.5845L427.456 99.5408C429.813 100.042 431.307 100.785 432.178 101.603L433.547 100.146L434.917 98.689C433.304 97.1723 431.014 96.2075 428.287 95.6281L427.872 97.5845ZM433.547 100.146L432.178 101.603C432.968 102.347 433.401 103.318 433.391 104.713L435.391 104.727L437.391 104.741C437.407 102.364 436.611 100.281 434.917 98.689L433.547 100.146ZM435.391 104.727L433.391 104.713C433.382 106.004 433.006 107.069 432.275 107.992L433.843 109.234L435.411 110.475C436.721 108.821 437.376 106.881 437.391 104.741L435.391 104.727ZM433.843 109.234L432.268 108.001C431.506 108.974 430.426 109.782 428.943 110.387L429.697 112.239L430.452 114.091C432.478 113.266 434.162 112.07 435.418 110.467L433.843 109.234ZM429.697 112.239L428.949 110.385C427.492 110.973 425.751 111.286 423.687 111.272L423.673 113.272L423.659 115.272C426.14 115.289 428.416 114.914 430.446 114.094L429.697 112.239ZM423.673 113.272L423.687 111.272C420.48 111.25 418.171 110.565 416.564 109.421L415.404 111.05L414.244 112.68C416.731 114.45 419.934 115.246 423.659 115.272L423.673 113.272ZM415.404 111.05L416.574 109.429C414.987 108.284 414.093 106.79 413.831 104.829L411.848 105.094L409.866 105.36C410.273 108.403 411.75 110.88 414.234 112.672L415.404 111.05ZM411.848 105.094L411.939 107.092L419.084 106.766L418.993 104.768L418.901 102.77L411.757 103.096L411.848 105.094ZM418.993 104.768L417.03 105.155C417.332 106.683 418.122 107.969 419.418 108.852L420.544 107.199L421.67 105.546C421.315 105.305 421.071 104.969 420.955 104.381L418.993 104.768ZM420.544 107.199L419.434 108.863C420.67 109.688 422.144 110.028 423.712 110.039L423.726 108.039L423.74 106.039C422.717 106.032 422.07 105.813 421.654 105.536L420.544 107.199ZM423.726 108.039L423.712 110.039C425.221 110.05 426.657 109.772 427.856 109.025L426.799 107.327L425.742 105.63C425.39 105.849 424.776 106.046 423.74 106.039L423.726 108.039ZM426.799 107.327L427.863 109.021C429.098 108.245 429.971 107.042 430.005 105.452L428.006 105.409L426.006 105.367C426.006 105.382 426.005 105.392 426.004 105.398C426.003 105.403 426.002 105.405 426.002 105.406C426.002 105.406 426.002 105.406 426.002 105.406C426.002 105.406 426.001 105.408 425.998 105.412C425.99 105.426 425.932 105.51 425.735 105.634L426.799 107.327ZM428.006 105.409L430.005 105.389C429.992 104.091 429.41 102.988 428.413 102.209L427.181 103.784L425.95 105.36C425.987 105.389 426.005 105.409 426.011 105.416C426.017 105.423 426.015 105.422 426.011 105.413C426.006 105.404 426.004 105.396 426.003 105.394C426.002 105.391 426.005 105.402 426.006 105.43L428.006 105.409ZM427.181 103.784L428.434 102.225C427.532 101.501 426.334 101.082 425.071 100.82L424.666 102.779L424.26 104.737C425.266 104.945 425.746 105.197 425.929 105.344L427.181 103.784ZM424.666 102.779L425.07 100.82L420.542 99.8853L420.138 101.844L419.733 103.803L424.261 104.737L424.666 102.779ZM420.138 101.844L420.543 99.8856C418.207 99.4017 416.737 98.6288 415.876 97.7479L414.446 99.1459L413.016 100.544C414.637 102.203 416.962 103.229 419.732 103.802L420.138 101.844ZM414.446 99.1459L415.882 97.7544C415.057 96.9024 414.611 95.814 414.621 94.3231L412.621 94.3094L410.621 94.2957C410.604 96.7138 411.375 98.8497 413.009 100.537L414.446 99.1459ZM412.621 94.3094L414.621 94.3231C414.63 93.024 414.98 92.0094 415.608 91.1808L414.014 89.9723L412.421 88.7637C411.214 90.3544 410.635 92.2312 410.621 94.2957L412.621 94.3094ZM414.014 89.9723L415.601 91.1903C416.271 90.3168 417.247 89.5881 418.629 89.0501L417.903 87.1863L417.177 85.3226C415.232 86.08 413.615 87.2085 412.428 88.7542L414.014 89.9723ZM417.903 87.1863L418.624 89.0518C420.015 88.5141 421.712 88.2238 423.759 88.2379L423.773 86.2379L423.787 84.238C421.357 84.2213 419.141 84.5634 417.182 85.3209L417.903 87.1863ZM423.773 86.2379L423.759 88.2379C426.807 88.2588 428.936 88.9196 430.368 89.9902L431.565 88.388L432.763 86.7858C430.419 85.0349 427.353 84.2624 423.787 84.238L423.773 86.2379ZM431.565 88.388L430.373 89.9936C431.821 91.0691 432.647 92.4831 432.883 94.3692L434.867 94.121L436.852 93.8727C436.484 90.9364 435.109 88.5284 432.758 86.7824L431.565 88.388ZM446.539 105.383L444.539 105.365L444.492 110.7L448.034 106.711L446.539 105.383ZM446.616 96.6731L446.629 94.6732L444.633 94.6595L444.616 96.6555L446.616 96.6731ZM447.672 96.6804L447.659 98.6803L448.588 98.6867L449.192 97.9807L447.672 96.6804ZM456.127 86.8006L456.14 84.8006L455.211 84.7943L454.607 85.5003L456.127 86.8006ZM464.462 86.8577L465.972 88.1689L468.821 84.8875L464.475 84.8578L464.462 86.8577ZM453.105 99.9393L453.091 101.939L454.011 101.946L454.615 101.25L453.105 99.9393ZM451.383 99.9275L451.397 97.9275L450.49 97.9213L449.888 98.5995L451.383 99.9275ZM439.908 112.872L437.908 112.858L437.894 114.858L439.894 114.872L439.908 112.872ZM440.147 77.9636L440.161 75.9636L438.161 75.9499L438.147 77.9499L440.147 77.9636ZM447.408 78.0134L449.408 78.0271L449.422 76.0271L447.422 76.0134L447.408 78.0134ZM447.169 112.922L447.155 114.922L449.155 114.935L449.169 112.935L447.169 112.922ZM456.271 112.984L454.606 114.092L455.195 114.977L456.257 114.984L456.271 112.984ZM448.645 101.528L447.2 100.146L446.092 101.303L446.98 102.636L448.645 101.528ZM453.521 96.4307L455.177 95.3088L453.787 93.2586L452.076 95.0482L453.521 96.4307ZM464.777 113.042L464.763 115.042L468.565 115.068L466.432 111.92L464.777 113.042ZM446.539 105.383L448.539 105.401L448.615 96.6907L446.616 96.6731L444.616 96.6555L444.539 105.365L446.539 105.383ZM446.616 96.6731L446.602 98.6731L447.659 98.6803L447.672 96.6804L447.686 94.6804L446.629 94.6732L446.616 96.6731ZM447.672 96.6804L449.192 97.9807L457.646 88.1009L456.127 86.8006L454.607 85.5003L446.153 95.38L447.672 96.6804ZM456.127 86.8006L456.113 88.8005L464.448 88.8577L464.462 86.8577L464.475 84.8578L456.14 84.8006L456.127 86.8006ZM464.462 86.8577L462.951 85.5466L451.594 98.6281L453.105 99.9393L454.615 101.25L465.972 88.1689L464.462 86.8577ZM453.105 99.9393L453.118 97.9393L451.397 97.9275L451.383 99.9275L451.369 101.927L453.091 101.939L453.105 99.9393ZM451.383 99.9275L449.888 98.5995L445.043 104.055L446.539 105.383L448.034 106.711L452.879 101.255L451.383 99.9275ZM439.908 112.872L441.908 112.886L442.147 77.9773L440.147 77.9636L438.147 77.9499L437.908 112.858L439.908 112.872ZM440.147 77.9636L440.133 79.9635L447.395 80.0133L447.408 78.0134L447.422 76.0134L440.161 75.9636L440.147 77.9636ZM447.408 78.0134L445.408 77.9996L445.169 112.908L447.169 112.922L449.169 112.935L449.408 78.0271L447.408 78.0134ZM447.169 112.922L447.183 110.922L439.922 110.872L439.908 112.872L439.894 114.872L447.155 114.922L447.169 112.922ZM456.271 112.984L457.936 111.876L450.31 100.42L448.645 101.528L446.98 102.636L454.606 114.092L456.271 112.984ZM448.645 101.528L450.09 102.911L454.966 97.8132L453.521 96.4307L452.076 95.0482L447.2 100.146L448.645 101.528ZM453.521 96.4307L451.865 97.5526L463.121 114.164L464.777 113.042L466.432 111.92L455.177 95.3088L453.521 96.4307ZM464.777 113.042L464.79 111.042L456.285 110.984L456.271 112.984L456.257 114.984L464.763 115.042L464.777 113.042ZM269.354 169.704L267.354 169.691L267.34 171.69L269.34 171.704L269.354 169.704ZM269.593 134.796L269.607 132.796L267.607 132.782L267.593 134.782L269.593 134.796ZM291.124 137.04L290.146 138.785L290.152 138.788L291.124 137.04ZM296.929 143.063L295.151 143.979L295.154 143.985L296.929 143.063ZM296.801 161.779L295.037 160.835L295.034 160.841L296.801 161.779ZM290.879 167.755L289.932 165.994L289.928 165.995L290.879 167.755ZM276.778 163.431L274.778 163.417L274.764 165.417L276.764 165.431L276.778 163.431ZM286.978 162.342L287.888 164.123L287.893 164.121L286.978 162.342ZM290.378 158.734L288.569 157.883L288.566 157.889L290.378 158.734ZM290.465 146.036L288.642 146.857L288.646 146.867L290.465 146.036ZM287.132 142.399L288.066 140.631L288.066 140.631L287.132 142.399ZM276.93 141.17L276.944 139.17L274.944 139.157L274.93 141.157L276.93 141.17ZM281.728 169.789L281.742 167.789L269.367 167.704L269.354 169.704L269.34 171.704L281.715 171.789L281.728 169.789ZM269.354 169.704L271.354 169.718L271.593 134.81L269.593 134.796L267.593 134.782L267.354 169.691L269.354 169.704ZM269.593 134.796L269.579 136.796L282.056 136.881L282.07 134.881L282.084 132.882L269.607 132.796L269.593 134.796ZM282.07 134.881L282.056 136.881C285.301 136.904 287.973 137.567 290.146 138.785L291.124 137.04L292.102 135.296C289.226 133.684 285.861 132.907 282.084 132.882L282.07 134.881ZM291.124 137.04L290.152 138.788C292.325 139.997 293.983 141.712 295.151 143.979L296.929 143.063L298.707 142.147C297.184 139.191 294.971 136.891 292.096 135.292L291.124 137.04ZM296.929 143.063L295.154 143.985C296.33 146.248 296.951 149.031 296.928 152.404L298.927 152.418L300.927 152.432C300.954 148.555 300.242 145.101 298.704 142.141L296.929 143.063ZM298.927 152.418L296.928 152.404C296.904 155.79 296.246 158.576 295.037 160.835L296.801 161.779L298.564 162.722C300.142 159.773 300.901 156.318 300.927 152.432L298.927 152.418ZM296.801 161.779L295.034 160.841C293.836 163.1 292.145 164.803 289.932 165.994L290.879 167.755L291.826 169.517C294.746 167.947 297.003 165.665 298.568 162.716L296.801 161.779ZM290.879 167.755L289.928 165.995C287.728 167.184 285.025 167.812 281.742 167.789L281.728 169.789L281.715 171.789C285.523 171.815 288.92 171.087 291.83 169.515L290.879 167.755ZM276.778 163.431L276.764 165.431L281.451 165.463L281.465 163.463L281.479 161.463L276.791 161.431L276.778 163.431ZM281.465 163.463L281.451 165.463C283.861 165.48 286.035 165.069 287.888 164.123L286.978 162.342L286.069 160.561C284.934 161.14 283.433 161.477 281.479 161.463L281.465 163.463ZM286.978 162.342L287.893 164.121C289.819 163.131 291.255 161.586 292.191 159.58L290.378 158.734L288.566 157.889C287.98 159.145 287.149 160.006 286.064 160.563L286.978 162.342ZM290.378 158.734L292.188 159.586C293.125 157.593 293.545 155.157 293.564 152.381L291.564 152.367L289.564 152.354C289.547 154.783 289.176 156.591 288.569 157.883L290.378 158.734ZM291.564 152.367L293.564 152.381C293.583 149.626 293.196 147.2 292.284 145.205L290.465 146.036L288.646 146.867C289.235 148.155 289.581 149.95 289.564 152.354L291.564 152.367ZM290.465 146.036L292.289 145.215C291.382 143.199 289.973 141.637 288.066 140.631L287.132 142.399L286.199 144.168C287.258 144.727 288.071 145.59 288.642 146.857L290.465 146.036ZM287.132 142.399L288.066 140.631C286.226 139.66 284.058 139.219 281.648 139.203L281.635 141.203L281.621 143.202C283.575 143.216 285.071 143.573 286.199 144.168L287.132 142.399ZM281.635 141.203L281.648 139.203L276.944 139.17L276.93 141.17L276.916 143.17L281.621 143.202L281.635 141.203ZM276.93 141.17L274.93 141.157L274.778 163.417L276.778 163.431L278.778 163.445L278.93 141.184L276.93 141.17ZM309.123 168.852L308.12 170.582L308.132 170.589L309.123 168.852ZM304.69 164.151L302.907 165.057L302.909 165.061L304.69 164.151ZM304.787 149.884L303.015 148.958L303.015 148.958L304.787 149.884ZM309.235 145.159L308.223 143.433L308.219 143.436L309.235 145.159ZM320.78 144.369L320.067 146.237L320.075 146.24L320.084 146.243L320.78 144.369ZM324.683 146.867L323.267 148.279L323.274 148.286L324.683 146.867ZM327.28 151.044L325.402 151.732L325.403 151.736L327.28 151.044ZM328.164 158.874L328.15 160.874L330.15 160.888L330.164 158.888L328.164 158.874ZM306.056 158.723L304.056 158.709L304.043 160.709L306.043 160.723L306.056 158.723ZM306.087 154.223L306.101 152.223L304.101 152.209L304.087 154.209L306.087 154.223ZM321.36 154.327L321.346 156.327L323.346 156.341L323.359 154.341L321.36 154.327ZM320.697 151.544L318.948 152.514L318.948 152.514L320.697 151.544ZM318.818 149.639L317.795 151.358L317.81 151.367L317.824 151.375L318.818 149.639ZM313.107 149.668L314.118 151.394L314.124 151.39L313.107 149.668ZM311.116 151.683L312.849 152.682L312.854 152.672L311.116 151.683ZM310.364 154.491L308.364 154.455L308.364 154.466L308.364 154.477L310.364 154.491ZM311.027 162.132L309.237 163.022L309.241 163.031L309.245 163.04L311.027 162.132ZM318.441 164.791L317.812 162.892L317.812 162.892L318.441 164.791ZM320.17 163.78L318.8 162.322L318.8 162.322L320.17 163.78ZM321.272 162.117L321.417 160.122L319.941 160.014L319.407 161.395L321.272 162.117ZM327.985 162.606L329.939 163.033L330.431 160.779L328.13 160.611L327.985 162.606ZM325.859 166.819L324.365 165.489L324.364 165.49L325.859 166.819ZM321.783 169.586L322.513 171.448L322.52 171.446L321.783 169.586ZM316.066 170.536L316.08 168.536C313.659 168.519 311.696 168.017 310.114 167.115L309.123 168.852L308.132 170.589C310.422 171.895 313.088 172.515 316.053 172.536L316.066 170.536ZM309.123 168.852L310.126 167.122C308.542 166.203 307.331 164.924 306.47 163.241L304.69 164.151L302.909 165.061C304.112 167.415 305.857 169.27 308.12 170.582L309.123 168.852ZM304.69 164.151L306.472 163.245C305.613 161.554 305.153 159.487 305.171 156.978L303.171 156.964L301.171 156.95C301.15 159.964 301.703 162.688 302.907 165.057L304.69 164.151ZM303.171 156.964L305.171 156.978C305.187 154.546 305.672 152.51 306.56 150.811L304.787 149.884L303.015 148.958C301.784 151.312 301.191 153.996 301.171 156.95L303.171 156.964ZM304.787 149.884L306.56 150.811C307.452 149.103 308.678 147.809 310.25 146.882L309.235 145.159L308.219 143.436C305.98 144.756 304.241 146.612 303.015 148.958L304.787 149.884ZM309.235 145.159L310.246 146.884C311.806 145.97 313.683 145.485 315.948 145.5L315.962 143.5L315.976 141.5C313.105 141.481 310.497 142.101 308.223 143.433L309.235 145.159ZM315.962 143.5L315.948 145.5C317.457 145.511 318.824 145.762 320.067 146.237L320.78 144.369L321.494 142.5C319.767 141.841 317.921 141.514 315.976 141.5L315.962 143.5ZM320.78 144.369L320.084 146.243C321.314 146.701 322.368 147.377 323.267 148.279L324.683 146.867L326.1 145.455C324.786 144.137 323.238 143.148 321.476 142.494L320.78 144.369ZM324.683 146.867L323.274 148.286C324.158 149.164 324.876 150.296 325.402 151.732L327.28 151.044L329.158 150.356C328.457 148.443 327.444 146.79 326.093 145.448L324.683 146.867ZM327.28 151.044L325.403 151.736C325.915 153.124 326.191 154.82 326.177 156.866L328.177 156.88L330.177 156.894C330.194 154.485 329.872 152.291 329.156 150.352L327.28 151.044ZM328.177 156.88L326.177 156.866L326.164 158.86L328.164 158.874L330.164 158.888L330.177 156.894L328.177 156.88ZM328.164 158.874L328.177 156.874L306.07 156.723L306.056 158.723L306.043 160.723L328.15 160.874L328.164 158.874ZM306.056 158.723L308.056 158.736L308.087 154.236L306.087 154.223L304.087 154.209L304.056 158.709L306.056 158.723ZM306.087 154.223L306.073 156.223L321.346 156.327L321.36 154.327L321.373 152.327L306.101 152.223L306.087 154.223ZM321.36 154.327L323.359 154.341C323.369 152.997 323.082 151.722 322.446 150.575L320.697 151.544L318.948 152.514C319.209 152.986 319.365 153.567 319.36 154.314L321.36 154.327ZM320.697 151.544L322.446 150.575C321.82 149.445 320.932 148.545 319.811 147.904L318.818 149.639L317.824 151.375C318.311 151.654 318.676 152.024 318.948 152.514L320.697 151.544ZM318.818 149.639L319.84 147.921C318.7 147.242 317.417 146.931 316.058 146.922L316.044 148.921L316.03 150.921C316.785 150.927 317.351 151.094 317.795 151.358L318.818 149.639ZM316.044 148.921L316.058 146.922C314.634 146.912 313.291 147.237 312.09 147.946L313.107 149.668L314.124 151.39C314.635 151.089 315.25 150.916 316.03 150.921L316.044 148.921ZM313.107 149.668L312.097 147.942C310.95 148.614 310.035 149.539 309.378 150.694L311.116 151.683L312.854 152.672C313.163 152.129 313.576 151.712 314.118 151.394L313.107 149.668ZM311.116 151.683L309.383 150.684C308.72 151.835 308.388 153.107 308.364 154.455L310.364 154.491L312.364 154.526C312.376 153.807 312.546 153.206 312.849 152.682L311.116 151.683ZM310.364 154.491L308.364 154.477L308.335 158.755L310.335 158.769L312.334 158.783L312.364 154.504L310.364 154.491ZM310.335 158.769L308.335 158.755C308.324 160.295 308.598 161.739 309.237 163.022L311.027 162.132L312.818 161.241C312.515 160.632 312.327 159.834 312.334 158.783L310.335 158.769ZM311.027 162.132L309.245 163.04C309.894 164.313 310.838 165.335 312.064 166.053L313.075 164.328L314.086 162.602C313.546 162.286 313.125 161.843 312.809 161.224L311.027 162.132ZM313.075 164.328L312.064 166.053C313.302 166.779 314.709 167.106 316.209 167.116L316.223 165.116L316.237 163.116C315.305 163.11 314.614 162.911 314.086 162.602L313.075 164.328ZM316.223 165.116L316.209 167.116C317.204 167.123 318.164 166.989 319.07 166.689L318.441 164.791L317.812 162.892C317.374 163.037 316.855 163.121 316.237 163.116L316.223 165.116ZM318.441 164.791L319.07 166.689C319.997 166.382 320.831 165.902 321.539 165.237L320.17 163.78L318.8 162.322C318.547 162.56 318.229 162.754 317.812 162.892L318.441 164.791ZM320.17 163.78L321.539 165.237C322.253 164.567 322.782 163.756 323.137 162.839L321.272 162.117L319.407 161.395C319.253 161.793 319.048 162.09 318.8 162.322L320.17 163.78ZM321.272 162.117L321.127 164.111L327.839 164.601L327.985 162.606L328.13 160.611L321.417 160.122L321.272 162.117ZM327.985 162.606L326.031 162.179C325.75 163.465 325.195 164.556 324.365 165.489L325.859 166.819L327.354 168.148C328.654 166.687 329.516 164.969 329.939 163.033L327.985 162.606ZM325.859 166.819L324.364 165.49C323.544 166.414 322.457 167.168 321.047 167.727L321.783 169.586L322.52 171.446C324.437 170.686 326.068 169.595 327.354 168.147L325.859 166.819ZM321.783 169.586L321.053 167.724C319.683 168.261 318.038 168.549 316.08 168.536L316.066 170.536L316.053 172.536C318.413 172.552 320.579 172.207 322.513 171.448L321.783 169.586ZM346.931 144.054L348.93 144.067L348.944 142.067L346.944 142.054L346.931 144.054ZM346.893 149.508L346.879 151.508L348.879 151.522L348.893 149.522L346.893 149.508ZM331.126 149.4L329.127 149.386L329.113 151.386L331.113 151.4L331.126 149.4ZM331.164 143.945L331.178 141.945L329.178 141.932L329.164 143.932L331.164 143.945ZM334.786 137.697L334.8 135.697L332.8 135.684L332.786 137.684L334.786 137.697ZM342.048 137.747L344.047 137.761L344.061 135.761L342.061 135.747L342.048 137.747ZM342.176 163.726L340.414 164.672L340.42 164.683L340.426 164.694L342.176 163.726ZM343.023 164.499L342.258 166.347L342.268 166.351L342.277 166.355L343.023 164.499ZM345.34 164.651L345.656 166.626L345.688 166.621L345.719 166.615L345.34 164.651ZM346.126 164.503L348.085 164.103L347.694 162.188L345.77 162.535L346.126 164.503ZM347.231 169.914L347.814 171.827L349.554 171.296L349.19 169.514L347.231 169.914ZM345.694 170.296L345.27 168.341L345.254 168.345L345.238 168.348L345.694 170.296ZM343.288 170.569L343.23 168.57L343.224 168.57L343.288 170.569ZM338.691 169.839L337.922 171.685L337.927 171.687L338.691 169.839ZM335.657 167.329L337.344 166.255L337.344 166.255L335.657 167.329ZM334.612 163.06L336.612 163.087L336.612 163.074L334.612 163.06ZM346.931 144.054L344.931 144.04L344.893 149.494L346.893 149.508L348.893 149.522L348.93 144.067L346.931 144.054ZM346.893 149.508L346.907 147.508L331.14 147.4L331.126 149.4L331.113 151.4L346.879 151.508L346.893 149.508ZM331.126 149.4L333.126 149.414L333.164 143.959L331.164 143.945L329.164 143.932L329.127 149.386L331.126 149.4ZM331.164 143.945L331.15 145.945L346.917 146.053L346.931 144.054L346.944 142.054L331.178 141.945L331.164 143.945ZM334.786 137.697L334.773 139.697L342.034 139.747L342.048 137.747L342.061 135.747L334.8 135.697L334.786 137.697ZM342.048 137.747L340.048 137.733L339.88 162.142L341.88 162.156L343.88 162.169L344.047 137.761L342.048 137.747ZM341.88 162.156L339.88 162.142C339.875 162.975 339.988 163.879 340.414 164.672L342.176 163.726L343.939 162.78C343.955 162.81 343.937 162.789 343.916 162.681C343.896 162.573 343.879 162.407 343.88 162.169L341.88 162.156ZM342.176 163.726L340.426 164.694C340.833 165.429 341.45 166.012 342.258 166.347L343.023 164.499L343.789 162.651C343.816 162.662 343.853 162.684 343.888 162.716C343.921 162.746 343.931 162.767 343.926 162.757L342.176 163.726ZM343.023 164.499L342.277 166.355C342.928 166.616 343.616 166.725 344.303 166.729L344.317 164.729L344.331 162.729C344.041 162.727 343.867 162.682 343.769 162.643L343.023 164.499ZM344.317 164.729L344.303 166.729C344.756 166.732 345.207 166.698 345.656 166.626L345.34 164.651L345.025 162.676C344.791 162.713 344.56 162.731 344.331 162.729L344.317 164.729ZM345.34 164.651L345.719 166.615C346.058 166.549 346.311 166.502 346.481 166.471L346.126 164.503L345.77 162.535C345.576 162.57 345.305 162.621 344.962 162.687L345.34 164.651ZM346.126 164.503L344.166 164.903L345.271 170.314L347.231 169.914L349.19 169.514L348.085 164.103L346.126 164.503ZM347.231 169.914L346.647 168.001C346.36 168.089 345.91 168.202 345.27 168.341L345.694 170.296L346.118 172.25C346.797 172.103 347.372 171.962 347.814 171.827L347.231 169.914ZM345.694 170.296L345.238 168.348C344.748 168.463 344.087 168.545 343.23 168.57L343.288 170.569L343.347 172.568C344.376 172.538 345.32 172.437 346.15 172.243L345.694 170.296ZM343.288 170.569L343.224 168.57C341.693 168.619 340.454 168.403 339.455 167.99L338.691 169.839L337.927 171.687C339.557 172.36 341.383 172.631 343.353 172.568L343.288 170.569ZM338.691 169.839L339.46 167.992C338.513 167.598 337.832 167.021 337.344 166.255L335.657 167.329L333.97 168.403C334.922 169.898 336.263 170.993 337.922 171.685L338.691 169.839ZM335.657 167.329L337.344 166.255C336.885 165.535 336.593 164.522 336.612 163.087L334.612 163.06L332.613 163.033C332.586 165.03 332.99 166.864 333.97 168.403L335.657 167.329ZM334.612 163.06L336.612 163.074L336.786 137.711L334.786 137.697L332.786 137.684L332.613 163.047L334.612 163.06ZM356.185 169.174L355.182 170.905L355.194 170.912L356.185 169.174ZM351.751 164.473L349.968 165.38L349.97 165.384L351.751 164.473ZM351.849 150.207L350.076 149.28L350.076 149.28L351.849 150.207ZM356.296 145.481L355.285 143.756L355.28 143.758L356.296 145.481ZM367.841 144.691L367.128 146.56L367.136 146.563L367.145 146.566L367.841 144.691ZM371.745 147.19L370.328 148.601L370.335 148.609L371.745 147.19ZM374.341 151.367L372.463 152.055L372.465 152.059L374.341 151.367ZM375.225 159.197L375.211 161.197L377.211 161.21L377.225 159.21L375.225 159.197ZM353.118 159.045L351.118 159.031L351.104 161.031L353.104 161.045L353.118 159.045ZM353.149 154.545L353.162 152.545L351.162 152.532L351.149 154.532L353.149 154.545ZM368.421 154.65L368.407 156.65L370.407 156.664L370.421 154.664L368.421 154.65ZM367.758 151.867L366.009 152.837L366.009 152.837L367.758 151.867ZM365.879 149.962L364.857 151.681L364.871 151.689L364.886 151.698L365.879 149.962ZM360.169 149.991L361.179 151.717L361.186 151.713L360.169 149.991ZM358.177 152.006L359.91 153.005L359.916 152.995L358.177 152.006ZM357.425 154.813L355.426 154.778L355.425 154.788L355.425 154.799L357.425 154.813ZM358.089 162.454L356.298 163.345L356.302 163.354L356.307 163.362L358.089 162.454ZM365.503 165.113L364.873 163.215L364.873 163.215L365.503 165.113ZM367.231 164.102L365.862 162.645L365.862 162.645L367.231 164.102ZM368.333 162.439L368.479 160.445L367.003 160.337L366.468 161.717L368.333 162.439ZM375.046 162.928L377 163.355L377.492 161.101L375.192 160.934L375.046 162.928ZM372.921 167.141L371.426 165.812L371.425 165.813L372.921 167.141ZM368.845 169.909L369.575 171.771L369.581 171.768L368.845 169.909ZM363.128 170.858L363.142 168.858C360.72 168.842 358.757 168.339 357.176 167.437L356.185 169.174L355.194 170.912C357.484 172.218 360.149 172.838 363.114 172.858L363.128 170.858ZM356.185 169.174L357.188 167.444C355.603 166.525 354.392 165.246 353.532 163.563L351.751 164.473L349.97 165.384C351.173 167.738 352.918 169.592 355.182 170.905L356.185 169.174ZM351.751 164.473L353.534 163.567C352.675 161.877 352.215 159.809 352.232 157.3L350.232 157.287L348.232 157.273C348.211 160.287 348.764 163.01 349.968 165.379L351.751 164.473ZM350.232 157.287L352.232 157.3C352.249 154.869 352.733 152.832 353.621 151.133L351.849 150.207L350.076 149.28C348.845 151.635 348.252 154.318 348.232 157.273L350.232 157.287ZM351.849 150.207L353.621 151.133C354.514 149.425 355.739 148.131 357.312 147.204L356.296 145.481L355.28 143.758C353.042 145.078 351.302 146.934 350.076 149.28L351.849 150.207ZM356.296 145.481L357.307 147.207C358.868 146.293 360.745 145.807 363.01 145.823L363.023 143.823L363.037 141.823C360.166 141.803 357.558 142.424 355.285 143.756L356.296 145.481ZM363.023 143.823L363.01 145.823C364.518 145.833 365.885 146.085 367.128 146.56L367.841 144.691L368.555 142.823C366.828 142.163 364.983 141.836 363.037 141.823L363.023 143.823ZM367.841 144.691L367.145 146.566C368.376 147.023 369.43 147.7 370.328 148.601L371.745 147.19L373.162 145.778C371.848 144.459 370.3 143.471 368.538 142.816L367.841 144.691ZM371.745 147.19L370.335 148.609C371.219 149.486 371.937 150.618 372.463 152.055L374.341 151.367L376.219 150.679C375.518 148.765 374.505 147.113 373.154 145.771L371.745 147.19ZM374.341 151.367L372.465 152.059C372.977 153.447 373.253 155.143 373.239 157.189L375.239 157.202L377.239 157.216C377.255 154.807 376.933 152.613 376.218 150.674L374.341 151.367ZM375.239 157.202L373.239 157.189L373.225 159.183L375.225 159.197L377.225 159.21L377.239 157.216L375.239 157.202ZM375.225 159.197L375.239 157.197L353.131 157.045L353.118 159.045L353.104 161.045L375.211 161.197L375.225 159.197ZM353.118 159.045L355.118 159.059L355.148 154.559L353.149 154.545L351.149 154.532L351.118 159.031L353.118 159.045ZM353.149 154.545L353.135 156.545L368.407 156.65L368.421 154.65L368.435 152.65L353.162 152.545L353.149 154.545ZM368.421 154.65L370.421 154.664C370.43 153.319 370.144 152.045 369.507 150.897L367.758 151.867L366.009 152.837C366.271 153.309 366.426 153.89 366.421 154.636L368.421 154.65ZM367.758 151.867L369.507 150.897C368.881 149.768 367.994 148.868 366.873 148.226L365.879 149.962L364.886 151.698C365.372 151.976 365.737 152.346 366.009 152.837L367.758 151.867ZM365.879 149.962L366.902 148.243C365.762 147.565 364.479 147.253 363.119 147.244L363.106 149.244L363.092 151.244C363.846 151.249 364.412 151.416 364.857 151.681L365.879 149.962ZM363.106 149.244L363.119 147.244C361.695 147.234 360.352 147.559 359.151 148.269L360.169 149.991L361.186 151.713C361.696 151.411 362.311 151.239 363.092 151.244L363.106 149.244ZM360.169 149.991L359.158 148.265C358.011 148.936 357.096 149.862 356.439 151.017L358.177 152.006L359.916 152.995C360.225 152.452 360.637 152.034 361.179 151.717L360.169 149.991ZM358.177 152.006L356.445 151.007C355.781 152.158 355.45 153.429 355.426 154.778L357.425 154.813L359.425 154.849C359.438 154.129 359.608 153.529 359.91 153.005L358.177 152.006ZM357.425 154.813L355.425 154.799L355.396 159.078L357.396 159.092L359.396 159.105L359.425 154.827L357.425 154.813ZM357.396 159.092L355.396 159.078C355.385 160.617 355.66 162.061 356.298 163.345L358.089 162.454L359.879 161.564C359.576 160.954 359.389 160.157 359.396 159.105L357.396 159.092ZM358.089 162.454L356.307 163.362C356.955 164.636 357.899 165.657 359.125 166.376L360.136 164.65L361.148 162.925C360.608 162.608 360.186 162.166 359.871 161.546L358.089 162.454ZM360.136 164.65L359.125 166.376C360.363 167.101 361.77 167.428 363.271 167.439L363.284 165.439L363.298 163.439C362.367 163.432 361.675 163.234 361.148 162.925L360.136 164.65ZM363.284 165.439L363.271 167.439C364.266 167.446 365.226 167.312 366.132 167.012L365.503 165.113L364.873 163.215C364.435 163.36 363.917 163.443 363.298 163.439L363.284 165.439ZM365.503 165.113L366.132 167.012C367.059 166.704 367.893 166.225 368.6 165.56L367.231 164.102L365.862 162.645C365.609 162.882 365.29 163.076 364.873 163.215L365.503 165.113ZM367.231 164.102L368.6 165.56C369.314 164.89 369.844 164.078 370.199 163.161L368.333 162.439L366.468 161.717C366.314 162.115 366.109 162.412 365.862 162.645L367.231 164.102ZM368.333 162.439L368.188 164.434L374.901 164.923L375.046 162.928L375.192 160.934L368.479 160.445L368.333 162.439ZM375.046 162.928L373.092 162.502C372.811 163.788 372.256 164.879 371.426 165.812L372.921 167.141L374.415 168.471C375.715 167.009 376.577 165.292 377 163.355L375.046 162.928ZM372.921 167.141L371.425 165.813C370.605 166.737 369.518 167.491 368.108 168.049L368.845 169.909L369.581 171.768C371.498 171.009 373.129 169.918 374.416 168.47L372.921 167.141ZM368.845 169.909L368.115 168.047C366.745 168.584 365.1 168.872 363.142 168.858L363.128 170.858L363.114 172.858C365.474 172.874 367.64 172.529 369.575 171.771L368.845 169.909ZM384.804 169.302L383.766 171.012L383.778 171.019L384.804 169.302ZM380.405 164.499L378.612 165.385L378.616 165.393L380.405 164.499ZM380.518 150.42L378.746 149.494L378.744 149.498L380.518 150.42ZM385 145.695L386.006 147.423L386.014 147.419L385 145.695ZM397.855 145.306L398.738 143.511L398.738 143.511L397.855 145.306ZM403.522 154.123L403.508 156.123L405.612 156.138L405.52 154.036L403.522 154.123ZM396.67 154.076L394.689 154.355L394.93 156.065L396.656 156.076L396.67 154.076ZM395.157 150.913L393.743 152.327L393.753 152.337L393.763 152.347L395.157 150.913ZM388.989 150.581L390.153 152.207L390.157 152.204L388.989 150.581ZM386.953 161.681L385.083 162.392L385.086 162.4L385.089 162.407L386.953 161.681ZM388.895 164.37L390.085 162.763L390.085 162.763L388.895 164.37ZM394.073 164.815L393.179 163.026L393.167 163.032L394.073 164.815ZM395.737 163.343L394.085 162.216L394.081 162.222L395.737 163.343ZM396.623 160.98L396.636 158.98L394.911 158.968L394.646 160.673L396.623 160.98ZM403.475 161.027L405.471 161.154L405.605 159.041L403.488 159.027L403.475 161.027ZM401.802 166.299L400.126 165.208L400.124 165.211L401.802 166.299ZM397.772 169.817L396.89 168.022L396.89 168.022L397.772 169.817ZM391.712 171.054L391.726 169.054C389.331 169.038 387.392 168.519 385.83 167.585L384.804 169.302L383.778 171.019C386.063 172.385 388.731 173.034 391.699 173.054L391.712 171.054ZM384.804 169.302L385.842 167.593C384.258 166.631 383.049 165.316 382.194 163.605L380.405 164.499L378.616 165.393C379.801 167.765 381.525 169.651 383.766 171.012L384.804 169.302ZM380.405 164.499L382.198 163.613C381.348 161.894 380.902 159.866 380.919 157.48L378.919 157.466L376.919 157.453C376.899 160.361 377.444 163.022 378.612 165.385L380.405 164.499ZM378.919 157.466L380.919 157.48C380.935 155.058 381.415 153.031 382.293 151.343L380.518 150.42L378.744 149.498C377.526 151.841 376.939 154.511 376.919 157.453L378.919 157.466ZM380.518 150.42L382.291 151.347C383.18 149.645 384.412 148.352 386.006 147.423L385 145.695L383.993 143.967C381.731 145.285 379.975 147.142 378.746 149.494L380.518 150.42ZM385 145.695L386.014 147.419C387.578 146.499 389.497 146.004 391.85 146.021L391.864 144.021L391.877 142.021C388.935 142 386.278 142.622 383.986 143.971L385 145.695ZM391.864 144.021L391.85 146.021C393.892 146.035 395.581 146.416 396.972 147.101L397.855 145.306L398.738 143.511C396.709 142.513 394.404 142.038 391.877 142.021L391.864 144.021ZM397.855 145.306L396.972 147.101C398.381 147.794 399.451 148.735 400.233 149.926L401.905 148.828L403.576 147.73C402.379 145.908 400.749 144.501 398.738 143.511L397.855 145.306ZM401.905 148.828L400.233 149.926C401.001 151.096 401.449 152.502 401.524 154.211L403.522 154.123L405.52 154.036C405.418 151.698 404.788 149.574 403.576 147.73L401.905 148.828ZM403.522 154.123L403.536 152.123L396.684 152.077L396.67 154.076L396.656 156.076L403.508 156.123L403.522 154.123ZM396.67 154.076L398.65 153.798C398.414 152.119 397.74 150.634 396.551 149.479L395.157 150.913L393.763 152.347C394.223 152.793 394.557 153.418 394.689 154.355L396.67 154.076ZM395.157 150.913L396.571 149.498C395.328 148.256 393.724 147.692 391.958 147.68L391.944 149.68L391.93 151.68C392.824 151.686 393.361 151.945 393.743 152.327L395.157 150.913ZM391.944 149.68L391.958 147.68C390.445 147.67 389.039 148.081 387.821 148.957L388.989 150.581L390.157 152.204C390.63 151.864 391.193 151.675 391.93 151.68L391.944 149.68ZM388.989 150.581L387.825 148.954C386.625 149.813 385.762 151.023 385.177 152.451L387.028 153.209L388.878 153.968C389.241 153.084 389.686 152.541 390.153 152.207L388.989 150.581ZM387.028 153.209L385.177 152.451C384.581 153.905 384.313 155.575 384.3 157.401L386.3 157.415L388.3 157.428C388.31 155.959 388.527 154.825 388.878 153.968L387.028 153.209ZM386.3 157.415L384.3 157.401C384.288 159.242 384.525 160.924 385.083 162.392L386.953 161.681L388.822 160.969C388.487 160.09 388.29 158.928 388.3 157.428L386.3 157.415ZM386.953 161.681L385.089 162.407C385.655 163.858 386.507 165.091 387.705 165.977L388.895 164.37L390.085 162.763C389.609 162.411 389.166 161.85 388.816 160.954L386.953 161.681ZM388.895 164.37L387.705 165.977C388.91 166.87 390.311 167.3 391.823 167.311L391.837 165.311L391.851 163.311C391.113 163.306 390.553 163.109 390.085 162.763L388.895 164.37ZM391.837 165.311L391.823 167.311C392.934 167.318 394.001 167.095 394.98 166.597L394.073 164.815L393.167 163.032C392.823 163.207 392.399 163.314 391.851 163.311L391.837 165.311ZM394.073 164.815L394.968 166.604C395.959 166.108 396.772 165.383 397.393 164.464L395.737 163.343L394.081 162.222C393.83 162.593 393.534 162.848 393.179 163.026L394.073 164.815ZM395.737 163.343L397.389 164.47C398.031 163.53 398.418 162.45 398.599 161.286L396.623 160.98L394.646 160.673C394.541 161.348 394.338 161.844 394.085 162.216L395.737 163.343ZM396.623 160.98L396.609 162.98L403.461 163.027L403.475 161.027L403.488 159.027L396.636 158.98L396.623 160.98ZM403.475 161.027L401.479 160.9C401.371 162.593 400.906 164.01 400.126 165.208L401.802 166.299L403.478 167.391C404.673 165.557 405.324 163.459 405.471 161.154L403.475 161.027ZM401.802 166.299L400.124 165.211C399.357 166.393 398.297 167.331 396.89 168.022L397.772 169.817L398.654 171.612C400.668 170.623 402.295 169.215 403.48 167.388L401.802 166.299ZM397.772 169.817L396.89 168.022C395.514 168.699 393.813 169.069 391.726 169.054L391.712 171.054L391.699 173.054C394.271 173.072 396.61 172.617 398.654 171.612L397.772 169.817ZM422.163 144.569L424.163 144.583L424.177 142.583L422.177 142.569L422.163 144.569ZM422.126 150.024L422.112 152.024L424.112 152.037L424.126 150.037L422.126 150.024ZM406.359 149.916L404.359 149.902L404.345 151.902L406.345 151.915L406.359 149.916ZM406.396 144.461L406.41 142.461L404.41 142.447L404.397 144.447L406.396 144.461ZM410.019 138.213L410.033 136.213L408.033 136.199L408.019 138.199L410.019 138.213ZM417.28 138.263L419.28 138.277L419.294 136.277L417.294 136.263L417.28 138.263ZM417.409 164.242L415.647 165.187L415.653 165.199L415.659 165.21L417.409 164.242ZM418.256 165.014L417.49 166.862L417.5 166.866L417.51 166.87L418.256 165.014ZM420.573 165.167L420.888 167.142L420.92 167.137L420.952 167.131L420.573 165.167ZM421.358 165.019L423.318 164.619L422.927 162.703L421.003 163.05L421.358 165.019ZM422.463 170.43L423.047 172.343L424.787 171.812L424.423 170.03L422.463 170.43ZM420.926 170.811L420.502 168.857L420.486 168.86L420.47 168.864L420.926 170.811ZM418.521 171.085L418.463 169.085L418.457 169.086L418.521 171.085ZM413.924 170.354L413.154 172.2L413.16 172.203L413.924 170.354ZM410.89 167.845L412.577 166.77L412.577 166.77L410.89 167.845ZM409.845 163.576L411.845 163.603L411.845 163.59L409.845 163.576ZM422.163 144.569L420.163 144.555L420.126 150.01L422.126 150.024L424.126 150.037L424.163 144.583L422.163 144.569ZM422.126 150.024L422.139 148.024L406.373 147.916L406.359 149.916L406.345 151.915L422.112 152.024L422.126 150.024ZM406.359 149.916L408.359 149.929L408.396 144.475L406.396 144.461L404.397 144.447L404.359 149.902L406.359 149.916ZM406.396 144.461L406.383 146.461L422.149 146.569L422.163 144.569L422.177 142.569L406.41 142.461L406.396 144.461ZM410.019 138.213L410.005 140.213L417.266 140.263L417.28 138.263L417.294 136.263L410.033 136.213L410.019 138.213ZM417.28 138.263L415.28 138.249L415.113 162.658L417.113 162.671L419.113 162.685L419.28 138.277L417.28 138.263ZM417.113 162.671L415.113 162.658C415.107 163.49 415.221 164.394 415.647 165.187L417.409 164.242L419.171 163.296C419.187 163.326 419.169 163.304 419.149 163.196C419.128 163.089 419.111 162.923 419.113 162.685L417.113 162.671ZM417.409 164.242L415.659 165.21C416.065 165.944 416.682 166.527 417.49 166.862L418.256 165.014L419.021 163.167C419.048 163.178 419.086 163.199 419.12 163.231C419.154 163.262 419.164 163.283 419.159 163.273L417.409 164.242ZM418.256 165.014L417.51 166.87C418.161 167.132 418.848 167.24 419.536 167.245L419.55 165.245L419.563 163.245C419.274 163.243 419.099 163.198 419.002 163.159L418.256 165.014ZM419.55 165.245L419.536 167.245C419.989 167.248 420.44 167.213 420.888 167.142L420.573 165.167L420.258 163.192C420.024 163.229 419.793 163.247 419.563 163.245L419.55 165.245ZM420.573 165.167L420.952 167.131C421.291 167.065 421.543 167.018 421.713 166.987L421.358 165.019L421.003 163.05C420.809 163.085 420.538 163.137 420.194 163.203L420.573 165.167ZM421.358 165.019L419.399 165.419L420.504 170.83L422.463 170.43L424.423 170.03L423.318 164.619L421.358 165.019ZM422.463 170.43L421.88 168.517C421.593 168.604 421.143 168.718 420.502 168.857L420.926 170.811L421.35 172.766C422.03 172.618 422.604 172.478 423.047 172.343L422.463 170.43ZM420.926 170.811L420.47 168.864C419.98 168.979 419.32 169.06 418.463 169.085L418.521 171.085L418.58 173.084C419.609 173.054 420.552 172.953 421.382 172.759L420.926 170.811ZM418.521 171.085L418.457 169.086C416.926 169.135 415.686 168.919 414.687 168.506L413.924 170.354L413.16 172.203C414.79 172.876 416.615 173.147 418.585 173.084L418.521 171.085ZM413.924 170.354L414.693 168.508C413.746 168.113 413.064 167.536 412.577 166.77L410.89 167.845L409.203 168.919C410.154 170.413 411.495 171.509 413.154 172.2L413.924 170.354ZM410.89 167.845L412.577 166.77C412.118 166.05 411.826 165.038 411.845 163.603L409.845 163.576L407.845 163.549C407.818 165.546 408.222 167.379 409.203 168.919L410.89 167.845ZM409.845 163.576L411.845 163.59L412.019 138.227L410.019 138.213L408.019 138.199L407.845 163.562L409.845 163.576Z" fill="black" mask="url(#path-4-outside-1_64_140)"/>
<defs>
<clipPath id="clip0_64_140">
<rect x="77" y="64.5503" width="131.779" height="131.779" transform="rotate(-3.28455 77 64.5503)" fill="white"/>
</clipPath>
</defs>
</svg>
