<svg width="607" height="450" viewBox="0 0 607 450" fill="none" xmlns="http://www.w3.org/2000/svg">
<path d="M548.221 137.549C549.236 121.121 536.05 108.626 520.509 111.288L18.3493 197.287C9.81623 198.748 5.04224 208.974 9.42522 216.403L70.4635 319.851C73.4252 324.87 78.6545 327.859 84.436 327.836L522.031 326.104C530.073 326.072 537.007 319.183 537.53 310.705L548.221 137.549Z" fill="#1E1E1E"/>
<path d="M97.8474 234.306L106.719 260.686L107.042 260.681L115.061 234.023L123.242 233.889L111.782 268.991L102.271 269.147L89.6496 234.44L97.8474 234.306ZM127.879 268.727L127.45 242.549L134.71 242.43L135.139 268.608L127.879 268.727ZM131.041 239.114C129.962 239.132 129.03 238.789 128.246 238.086C127.473 237.371 127.078 236.508 127.061 235.497C127.045 234.497 127.411 233.633 128.161 232.905C128.922 232.165 129.842 231.786 130.921 231.769C132 231.751 132.927 232.099 133.7 232.814C134.484 233.517 134.885 234.369 134.901 235.369C134.918 236.38 134.546 237.255 133.785 237.995C133.035 238.724 132.121 239.097 131.041 239.114ZM140.955 268.513L140.526 242.334L147.565 242.219L147.64 246.786L147.912 246.782C148.363 245.149 149.144 243.909 150.255 243.061C151.366 242.202 152.655 241.76 154.12 241.736C154.484 241.73 154.876 241.747 155.297 241.785C155.718 241.824 156.089 241.88 156.408 241.954L156.514 248.397C156.171 248.3 155.698 248.217 155.095 248.147C154.491 248.078 153.94 248.047 153.44 248.055C152.372 248.073 151.421 248.321 150.588 248.801C149.766 249.269 149.117 249.916 148.642 250.742C148.178 251.568 147.955 252.515 147.973 253.583L148.216 268.393L140.955 268.513ZM175.401 241.762L175.49 247.216L159.725 247.475L159.636 242.021L175.401 241.762ZM163.112 235.69L170.372 235.571L170.772 259.977C170.783 260.647 170.894 261.168 171.105 261.54C171.315 261.9 171.604 262.151 171.97 262.293C172.347 262.435 172.78 262.501 173.269 262.493C173.609 262.488 173.95 262.454 174.29 262.391C174.629 262.318 174.89 262.262 175.071 262.225L176.302 267.609C175.94 267.729 175.431 267.868 174.774 268.026C174.118 268.196 173.318 268.306 172.376 268.355C170.627 268.452 169.09 268.244 167.763 267.732C166.447 267.219 165.417 266.407 164.671 265.294C163.926 264.181 163.544 262.766 163.528 261.051L163.112 235.69ZM197.164 256.442L196.918 241.41L204.178 241.29L204.607 267.469L197.637 267.583L197.559 262.828L197.286 262.832C196.72 264.376 195.758 265.625 194.398 266.579C193.05 267.533 191.393 268.026 189.427 268.059C187.678 268.087 186.131 267.715 184.789 266.941C183.447 266.168 182.388 265.054 181.615 263.601C180.852 262.147 180.448 260.398 180.403 258.353L180.13 241.685L187.39 241.566L187.642 256.939C187.679 258.484 188.114 259.698 188.947 260.583C189.779 261.467 190.883 261.898 192.258 261.875C193.133 261.861 193.948 261.648 194.703 261.238C195.457 260.817 196.061 260.204 196.514 259.402C196.978 258.598 197.195 257.612 197.164 256.442ZM217.888 267.745C216.217 267.773 214.724 267.507 213.408 266.949C212.092 266.38 211.044 265.528 210.263 264.393C209.495 263.246 209.096 261.809 209.068 260.082C209.044 258.628 209.291 257.402 209.809 256.405C210.326 255.407 211.04 254.6 211.951 253.983C212.861 253.366 213.899 252.894 215.065 252.568C216.241 252.242 217.476 252.006 218.769 251.859C220.289 251.675 221.514 251.508 222.443 251.356C223.373 251.193 224.045 250.966 224.461 250.675C224.877 250.384 225.08 249.96 225.071 249.404L225.069 249.301C225.051 248.222 224.697 247.392 224.005 246.813C223.325 246.233 222.366 245.953 221.128 245.973C219.821 245.995 218.786 246.302 218.023 246.894C217.26 247.475 216.76 248.199 216.524 249.066L209.8 248.631C210.115 247.035 210.763 245.649 211.744 244.474C212.725 243.287 213.999 242.368 215.569 241.717C217.149 241.055 218.984 240.707 221.075 240.672C222.529 240.649 223.924 240.796 225.259 241.115C226.605 241.434 227.801 241.943 228.847 242.642C229.904 243.341 230.743 244.247 231.363 245.362C231.984 246.466 232.307 247.796 232.332 249.353L232.622 267.009L225.736 267.122L225.677 263.492L225.472 263.495C225.065 264.32 224.515 265.051 223.821 265.688C223.126 266.313 222.288 266.809 221.305 267.178C220.322 267.535 219.183 267.724 217.888 267.745ZM219.885 262.701C220.953 262.683 221.892 262.457 222.704 262.024C223.515 261.578 224.147 260.988 224.601 260.254C225.055 259.519 225.274 258.691 225.259 257.771L225.214 254.993C224.989 255.144 224.679 255.286 224.283 255.417C223.898 255.537 223.463 255.652 222.976 255.763C222.489 255.862 222.002 255.955 221.514 256.042C221.027 256.118 220.585 256.188 220.188 256.252C219.338 256.391 218.597 256.602 217.965 256.885C217.333 257.168 216.845 257.545 216.501 258.017C216.156 258.477 215.989 259.048 216 259.73C216.016 260.718 216.387 261.468 217.111 261.979C217.847 262.478 218.771 262.719 219.885 262.701ZM244.943 231.894L245.515 266.798L238.255 266.917L237.682 232.013L244.943 231.894ZM262.575 266.518L262.003 231.614L275.774 231.388C278.421 231.345 280.685 231.813 282.565 232.794C284.445 233.763 285.888 235.132 286.894 236.9C287.912 238.656 288.439 240.693 288.477 243.011C288.515 245.329 288.049 247.382 287.078 249.171C286.107 250.96 284.681 252.364 282.8 253.384C280.93 254.403 278.655 254.935 275.973 254.979L267.196 255.123L267.099 249.209L274.683 249.084C276.103 249.061 277.27 248.798 278.182 248.294C279.105 247.779 279.787 247.08 280.227 246.198C280.679 245.304 280.895 244.283 280.876 243.135C280.857 241.977 280.608 240.969 280.128 240.113C279.659 239.246 278.955 238.581 278.015 238.119C277.075 237.646 275.89 237.421 274.458 237.444L269.481 237.526L269.955 266.397L262.575 266.518ZM305.03 266.333C302.337 266.378 300.01 265.87 298.049 264.811C296.1 263.741 294.586 262.209 293.507 260.215C292.429 258.209 291.867 255.826 291.822 253.065C291.777 250.372 292.261 248.001 293.273 245.95C294.285 243.899 295.731 242.29 297.61 241.122C299.5 239.955 301.729 239.35 304.297 239.308C306.024 239.279 307.636 239.531 309.134 240.064C310.642 240.585 311.962 241.387 313.094 242.471C314.237 243.554 315.135 244.926 315.787 246.586C316.439 248.235 316.783 250.173 316.82 252.4L316.852 254.394L294.747 254.756L294.674 250.257L309.944 250.006C309.927 248.961 309.685 248.039 309.217 247.24C308.749 246.44 308.108 245.82 307.294 245.379C306.491 244.926 305.561 244.708 304.505 244.726C303.403 244.744 302.43 245.015 301.586 245.541C300.753 246.054 300.105 246.741 299.642 247.601C299.179 248.45 298.95 249.391 298.955 250.425L299.026 254.703C299.047 255.998 299.304 257.114 299.796 258.049C300.301 258.984 301 259.7 301.894 260.197C302.789 260.693 303.844 260.932 305.06 260.912C305.867 260.899 306.603 260.773 307.27 260.535C307.937 260.296 308.505 259.946 308.975 259.484C309.444 259.021 309.799 258.459 310.038 257.796L316.76 258.129C316.446 259.748 315.77 261.168 314.733 262.39C313.708 263.6 312.371 264.554 310.723 265.251C309.086 265.937 307.188 266.298 305.03 266.333ZM335.27 239.141L335.359 244.595L319.594 244.853L319.505 239.399L335.27 239.141ZM322.981 233.069L330.241 232.95L330.642 257.356C330.653 258.026 330.763 258.547 330.974 258.918C331.184 259.279 331.473 259.53 331.839 259.671C332.216 259.813 332.649 259.88 333.138 259.872C333.479 259.866 333.819 259.832 334.159 259.77C334.499 259.696 334.759 259.641 334.94 259.604L336.171 264.987C335.809 265.107 335.3 265.246 334.643 265.405C333.987 265.575 333.188 265.684 332.245 265.734C330.496 265.831 328.959 265.623 327.632 265.11C326.316 264.598 325.286 263.785 324.54 262.672C323.795 261.559 323.414 260.145 323.397 258.429L322.981 233.069Z" fill="white"/>
<path d="M451.389 209.667C446.701 209.667 426.576 210.12 413.621 229.364V209.667C413.621 197.535 403.619 187.667 391.322 187.667C387.217 187.667 383.889 190.951 383.889 195C383.889 199.049 387.217 202.333 391.322 202.333C395.419 202.333 398.755 205.624 398.755 209.667V268.333C398.755 276.423 405.422 283 413.621 283H454.504C456.557 283 458.221 281.359 458.221 279.333V275.667C458.221 271.617 454.892 268.333 450.787 268.333H443.354L473.087 246.333V279.333C473.087 281.359 474.75 283 476.804 283H484.237C486.29 283 487.953 281.359 487.953 279.333V232.093C485.563 232.705 483.101 233.133 480.52 233.133C466.162 233.133 454.151 223.039 451.389 209.667V209.667ZM487.953 187.667H473.087L458.221 173V203.8C458.221 215.95 468.204 225.8 480.52 225.8C492.836 225.8 502.82 215.95 502.82 203.8V173L487.953 187.667ZM471.229 206C469.175 206 467.512 204.359 467.512 202.333C467.512 200.308 469.175 198.667 471.229 198.667C473.282 198.667 474.945 200.308 474.945 202.333C474.945 204.359 473.282 206 471.229 206ZM489.812 206C487.758 206 486.095 204.359 486.095 202.333C486.095 200.308 487.758 198.667 489.812 198.667C491.865 198.667 493.528 200.308 493.528 202.333C493.528 204.359 491.865 206 489.812 206Z" fill="white"/>
</svg>
