<svg width="359" height="148" viewBox="0 0 359 148" fill="none" xmlns="http://www.w3.org/2000/svg">
<path d="M355.854 0.503533C356.649 0.463561 357.427 0.741037 358.016 1.27571C358.605 1.81034 358.958 2.55836 358.996 3.35445C359.035 4.15053 358.757 4.92922 358.222 5.51844C357.687 6.10771 356.94 6.45923 356.146 6.49647C356.146 6.49647 356.146 6.49647 356.146 6.49647C338.064 7.35727 319.598 8.30384 301.222 9.28151C243.317 12.3887 185.471 15.7927 127.787 20.1484C98.7803 22.3978 70.1916 24.691 41.2679 28.2843C37.652 28.7475 34.4056 29.1846 30.5525 29.7639C28.7399 30.0373 27.0247 30.3102 25.4133 30.5822C23.713 30.8681 21.5909 31.2528 19.9426 31.5847C18.2401 31.9297 16.781 32.2362 14.7839 32.7547C12.9871 33.2469 11.7346 33.5734 10.185 34.3472C9.91676 34.4914 9.76251 34.6128 9.74562 34.6301C9.70873 34.6532 9.8317 34.6027 9.97044 34.2168C10.1206 33.8437 10.0216 33.1961 9.85416 32.9555C9.68075 32.6842 9.69353 32.7552 9.70304 32.7509C9.71786 32.7638 9.7674 32.8017 9.85002 32.852C10.0153 32.9539 10.3109 33.1028 10.7162 33.2624C10.9189 33.3425 11.1492 33.4263 11.4058 33.512C11.526 33.5524 11.6961 33.6067 11.7858 33.6345C11.8589 33.6573 11.9336 33.6803 12.0101 33.7033C12.316 33.7953 12.6496 33.8888 13.0101 33.9831C13.7313 34.1717 14.56 34.3633 15.4947 34.5554C30.0683 37.1947 43.0918 37.9153 58.6909 39.0122C110.68 42.3804 162.928 45.7787 214.769 49.896C240.917 52.0119 266.776 54.2061 292.768 57.3632C305.677 59.0781 318.733 60.4512 331.588 64.3603C331.974 64.4923 332.343 64.6253 332.697 64.7596C333.169 64.9391 333.617 65.1225 334.034 65.3092C334.888 65.7059 335.504 65.9788 336.52 66.7248C336.739 66.8926 336.945 67.0692 337.137 67.26C337.233 67.3553 337.326 67.4543 337.415 67.5576C337.461 67.6115 337.497 67.6547 337.551 67.7226C337.615 67.8041 337.676 67.8882 337.735 67.9754C338.212 68.6442 338.477 69.6789 338.275 70.5299C338.101 71.346 337.652 71.9887 337.132 72.5072C336.724 72.9058 336.396 73.1474 335.965 73.4339C332.665 75.4109 329.532 76.1254 326.222 77.0214C319.53 78.6794 313.654 79.6714 306.778 80.763C206.188 96.3153 99.2552 84.4016 4.10674 110.11C1.99584 113.541 4.28828 117.515 7.44316 120.3C10.6278 123.175 14.4193 125.387 18.3254 127.406C34.6457 135.477 52.5619 140.575 70.2479 144.903C70.5383 144.969 70.7907 145.148 70.9497 145.4C71.1087 145.652 71.1612 145.957 71.0955 146.247C71.0299 146.538 70.8515 146.791 70.5996 146.95C70.3477 147.109 70.0428 147.162 69.7521 147.097C69.7521 147.097 69.7521 147.097 69.7521 147.097C51.8748 142.781 33.9553 137.774 17.2174 129.577C13.1965 127.51 9.27304 125.267 5.77044 122.135C2.41586 119.317 -1.05948 113.737 1.89271 108.889C101.182 80.1014 205.651 93.494 306.222 77.237C313.031 76.1351 318.863 75.1225 325.322 73.4985C326.676 73.1544 328.605 72.6056 329.858 72.1751C330.032 72.1158 330.158 72.0727 330.37 71.9979C330.582 71.9229 330.787 71.8483 330.984 71.7742C331.378 71.6261 331.743 71.4798 332.077 71.3362C332.411 71.1927 332.715 71.0519 332.987 70.9152C333.301 70.7589 333.699 70.5357 333.95 70.3677C334.219 70.1889 334.395 70.0483 334.54 69.9044C334.728 69.7172 334.703 69.6589 334.675 69.7779C334.632 69.9012 334.726 70.1264 334.683 70.0339C334.625 69.9516 334.51 69.8279 334.282 69.6534C333.732 69.2489 333.219 68.9942 332.531 68.6835C332.187 68.5313 331.805 68.3753 331.389 68.2188C331.078 68.1019 330.747 67.9841 330.396 67.8657C318.352 64.2339 305.089 62.8091 292.305 61.1703C266.42 58.115 240.574 56.0094 214.449 53.9844C162.642 50.0474 110.393 46.8263 58.4008 43.6355C42.678 42.571 29.8229 41.9496 14.54 39.239C13.5374 39.0361 12.6293 38.8303 11.808 38.6189C11.3974 38.5132 11.0085 38.4061 10.6399 38.297C10.5478 38.2697 10.4569 38.2423 10.3673 38.2148C10.2575 38.1811 10.0459 38.1141 9.89205 38.0629C9.56426 37.9543 9.25428 37.8431 8.96002 37.7278C8.37133 37.4965 7.84663 37.2524 7.36041 36.9594C7.11727 36.8123 6.88325 36.6522 6.65612 36.4667C6.54264 36.3739 6.43086 36.2745 6.32135 36.1661C6.16071 36.0116 5.86218 35.6708 5.6732 35.3287C5.25072 34.6387 5.10223 33.5397 5.40169 32.713C5.5383 32.2982 5.74077 31.9534 5.95722 31.6681C6.06604 31.5248 6.17916 31.3956 6.29491 31.2763C6.37724 31.1921 6.41124 31.16 6.47016 31.1047C6.90571 30.7016 7.36703 30.401 7.87219 30.122C10.3976 28.8643 11.5308 28.6605 13.5477 28.0802C15.7043 27.5139 17.2153 27.1918 18.9805 26.8274C20.6867 26.4774 22.8601 26.0773 24.5933 25.7796C26.2361 25.496 27.9783 25.2126 29.815 24.9293C33.7186 24.3299 36.9927 23.8767 40.6358 23.3976C69.7441 19.6827 98.3368 17.2934 127.382 14.9418C185.12 10.3846 242.979 6.78308 300.902 3.47777C319.287 2.43709 337.75 1.42805 355.854 0.503533Z" fill="black"/>
</svg>
