<svg id="Layer_1" data-name="Layer 1" xmlns="http://www.w3.org/2000/svg" viewBox="0 0 982.7 453.85"><defs><style>.cls-1{fill:#fff;}.cls-1,.cls-45{stroke:#231f20;stroke-miterlimit:10;}.cls-2{font-size:12px;}.cls-2,.cls-46,.cls-47{fill:#231f20;}.cls-2,.cls-47{font-family:MyriadPro-Regular, Myriad Pro;}.cls-3{letter-spacing:-0.01em;}.cls-4{letter-spacing:-0.01em;}.cls-5{letter-spacing:-0.01em;}.cls-6{letter-spacing:0.01em;}.cls-7{letter-spacing:0.01em;}.cls-8{letter-spacing:-0.07em;}.cls-9{letter-spacing:0em;}.cls-10{letter-spacing:-0.01em;}.cls-11{letter-spacing:-0.01em;}.cls-12{letter-spacing:0em;}.cls-13{letter-spacing:0em;}.cls-14{letter-spacing:-0.02em;}.cls-15{letter-spacing:0em;}.cls-16{letter-spacing:0.01em;}.cls-17{letter-spacing:0.01em;}.cls-18{letter-spacing:-0.01em;}.cls-19{letter-spacing:0em;}.cls-20{letter-spacing:-0.01em;}.cls-21{letter-spacing:-0.03em;}.cls-22{letter-spacing:-0.01em;}.cls-23{letter-spacing:0em;}.cls-24{letter-spacing:0em;}.cls-25{letter-spacing:-0.04em;}.cls-26{letter-spacing:-0.04em;}.cls-27{letter-spacing:-0.07em;}.cls-28{letter-spacing:-0.01em;}.cls-29{letter-spacing:0.01em;}.cls-30{letter-spacing:0.01em;}.cls-31{letter-spacing:0em;}.cls-32{letter-spacing:0.01em;}.cls-33{letter-spacing:0.01em;}.cls-34{letter-spacing:0.02em;}.cls-35{letter-spacing:0.02em;}.cls-36{letter-spacing:-0.07em;}.cls-37{letter-spacing:0em;}.cls-38{letter-spacing:0em;}.cls-39{letter-spacing:-0.07em;}.cls-40{letter-spacing:-0.01em;}.cls-41{letter-spacing:0.01em;}.cls-42{letter-spacing:-0.02em;}.cls-43{letter-spacing:-0.01em;}.cls-44{letter-spacing:-0.01em;}.cls-45{fill:none;}.cls-47{font-size:24px;}.cls-48{letter-spacing:-0.04em;}</style></defs><rect class="cls-1" x="278.3" y="0.5" width="166.05" height="44.74"/><text class="cls-2" transform="translate(288.87 18.11)"><tspan class="cls-3">L</tspan><tspan x="5.5" y="0">o</tspan><tspan class="cls-4" x="12.08" y="0">g</tspan><tspan x="18.72" y="0">in </tspan><tspan class="cls-5" x="30.73" y="0">A</tspan><tspan class="cls-6" x="37.93" y="0">c</tspan><tspan x="43.46" y="0">tivi</tspan><tspan class="cls-7" x="58.82" y="0">t</tspan><tspan x="62.9" y="0">y</tspan></text><rect class="cls-1" x="82.71" y="201.5" width="86.21" height="60.9"/><rect class="cls-1" x="98.39" y="283.64" width="86.21" height="169.3"/><rect class="cls-1" x="71.74" y="0.5" width="142.67" height="168.97"/><rect class="cls-1" x="0.5" y="283.97" width="86.21" height="168.97"/><rect class="cls-1" x="196.82" y="283.56" width="86.21" height="169.78"/><text class="cls-2" transform="translate(101.68 224.35)">Home <tspan class="cls-5" x="0" y="14.4">A</tspan><tspan class="cls-6" x="7.2" y="14.4">c</tspan><tspan x="12.73" y="14.4">tivi</tspan><tspan class="cls-7" x="28.09" y="14.4">t</tspan><tspan x="32.17" y="14.4">y</tspan></text><text class="cls-2" transform="translate(113.04 303.73)"><tspan class="cls-8">T</tspan><tspan x="5.11" y="0">o - </tspan><tspan class="cls-9" x="20.47" y="0">D</tspan><tspan x="28.51" y="0">o List </tspan><tspan class="cls-5" x="0" y="14.4">A</tspan><tspan class="cls-6" x="7.2" y="14.4">c</tspan><tspan x="12.73" y="14.4">tivi</tspan><tspan class="cls-7" x="28.09" y="14.4">t</tspan><tspan x="32.17" y="14.4">y </tspan></text><text class="cls-2" transform="translate(111.32 343.39)"><tspan class="cls-10">C</tspan><tspan x="6.88" y="0">alls </tspan><tspan x="0" y="14.4">a</tspan><tspan class="cls-6" x="5.78" y="14.4">c</tspan><tspan x="11.32" y="14.4">tion </tspan><tspan x="0" y="28.8">f</tspan><tspan class="cls-11" x="3.5" y="28.8">r</tspan><tspan x="7.31" y="28.8">om </tspan><tspan class="cls-10" x="0" y="43.2">C</tspan><tspan x="6.88" y="43.2">alendar </tspan><tspan class="cls-12"><tspan x="0" y="57.6">A</tspan><tspan class="cls-13" x="7.31" y="57.6">pp</tspan></tspan></text><text class="cls-2" transform="translate(5.88 306.6)"><tspan class="cls-14">V</tspan><tspan x="6.5" y="0">ideo Ch</tspan><tspan class="cls-15" x="44.84" y="0">a</tspan><tspan x="50.58" y="0">t </tspan><tspan class="cls-5" x="0" y="14.4">A</tspan><tspan class="cls-6" x="7.2" y="14.4">c</tspan><tspan x="12.73" y="14.4">tivi</tspan><tspan class="cls-7" x="28.09" y="14.4">t</tspan><tspan x="32.17" y="14.4">y</tspan></text><text class="cls-2" transform="translate(5.88 350.15)"><tspan class="cls-10">C</tspan><tspan x="6.88" y="0">alls a</tspan><tspan class="cls-16" x="31.4" y="0">c</tspan><tspan x="36.94" y="0">tion </tspan><tspan x="0" y="14.4">f</tspan><tspan class="cls-11" x="3.5" y="14.4">r</tspan><tspan x="7.31" y="14.4">om an </tspan><tspan class="cls-12" x="0" y="28.8">e</tspan><tspan x="5.98" y="28.8">xisting app </tspan><tspan x="0" y="43.2">th</tspan><tspan class="cls-15" x="10.63" y="43.2">a</tspan><tspan x="16.37" y="43.2">t has li</tspan><tspan class="cls-11" x="48.26" y="43.2">v</tspan><tspan x="53.92" y="43.2">e </tspan><tspan x="0" y="57.6">video ch</tspan><tspan class="cls-15" x="42.53" y="57.6">a</tspan><tspan x="48.26" y="57.6">t </tspan><tspan x="0" y="72">capablities</tspan></text><text class="cls-2" transform="translate(203.39 305.43)"><tspan class="cls-17">S</tspan><tspan x="5.99" y="0">ettings </tspan><tspan class="cls-5" x="0" y="14.4">A</tspan><tspan class="cls-6" x="7.2" y="14.4">c</tspan><tspan x="12.73" y="14.4">tivi</tspan><tspan class="cls-7" x="28.09" y="14.4">t</tspan><tspan x="32.17" y="14.4">y</tspan></text><text x="-21.79" y="-62.56"/><text class="cls-2" transform="translate(204.58 336.9)"><tspan class="cls-5">A</tspan><tspan class="cls-4" x="7.2" y="0">cc</tspan><tspan x="17.81" y="0">ess </tspan><tspan class="cls-18" x="0" y="14.4">P</tspan><tspan x="6.32" y="14.4">hone </tspan><tspan class="cls-19" x="34.79" y="14.4">A</tspan><tspan x="42.1" y="14.4">pp </tspan><tspan class="cls-20" x="0" y="28.8">C</tspan><tspan x="6.83" y="28.8">o</tspan><tspan class="cls-15" x="13.42" y="28.8">n</tspan><tspan x="20.03" y="28.8">ta</tspan><tspan class="cls-6" x="29.78" y="28.8">c</tspan><tspan x="35.32" y="28.8">ts</tspan></text><text class="cls-2" transform="translate(80.68 22.94)"><tspan class="cls-9">R</tspan><tspan x="6.5" y="0">e</tspan><tspan class="cls-4" x="12.52" y="0">g</tspan><tspan x="19.15" y="0">is</tspan><tspan class="cls-4" x="26.71" y="0">t</tspan><tspan x="30.61" y="0">er</tspan><tspan class="cls-5" x="40.55" y="0">A</tspan><tspan class="cls-6" x="47.75" y="0">c</tspan><tspan x="53.28" y="0">tivi</tspan><tspan class="cls-7" x="68.64" y="0">t</tspan><tspan x="72.72" y="0">y</tspan></text><text class="cls-2" transform="translate(288.87 34.31)"><tspan class="cls-21">V</tspan><tspan x="6.3" y="0">alid</tspan><tspan class="cls-15" x="24.49" y="0">a</tspan><tspan class="cls-4" x="30.23" y="0">t</tspan><tspan x="34.13" y="0">es if a</tspan><tspan class="cls-22" x="62.08" y="0">cc</tspan><tspan x="72.68" y="0">ou</tspan><tspan class="cls-15" x="85.88" y="0">n</tspan><tspan x="92.49" y="0">t </tspan><tspan class="cls-12" x="99.01" y="0">e</tspan><tspan x="104.99" y="0">xists</tspan></text><text class="cls-2" transform="translate(80.68 56.3)"><tspan class="cls-19">C</tspan><tspan class="cls-11" x="6.92" y="0">r</tspan><tspan x="10.73" y="0">e</tspan><tspan class="cls-15" x="16.74" y="0">a</tspan><tspan class="cls-22" x="22.48" y="0">t</tspan><tspan x="26.38" y="0">es new a</tspan><tspan class="cls-4" x="69.51" y="0">c</tspan><tspan x="74.82" y="0">oou</tspan><tspan class="cls-15" x="94.61" y="0">n</tspan><tspan x="101.22" y="0">t</tspan><tspan x="0" y="28.8">Links depende</tspan><tspan class="cls-15" x="73.11" y="28.8">n</tspan><tspan x="79.73" y="28.8">t a</tspan><tspan class="cls-22" x="92.03" y="28.8">cc</tspan><tspan x="102.63" y="28.8">ou</tspan><tspan class="cls-15" x="115.83" y="28.8">n</tspan><tspan x="122.45" y="28.8">t </tspan><tspan x="0" y="43.2">with ca</tspan><tspan class="cls-11" x="35.98" y="43.2">r</tspan><tspan x="39.78" y="43.2">etaker a</tspan><tspan class="cls-4" x="79.44" y="43.2">cc</tspan><tspan x="90.05" y="43.2">ou</tspan><tspan class="cls-23" x="103.25" y="43.2">n</tspan><tspan x="109.86" y="43.2">t</tspan><tspan class="cls-5" x="0" y="72">A</tspan><tspan class="cls-4" x="7.2" y="72">cc</tspan><tspan x="17.81" y="72">ess </tspan><tspan class="cls-24" x="35.87" y="72">P</tspan><tspan x="42.19" y="72">hone </tspan><tspan class="cls-12" x="70.66" y="72">A</tspan><tspan x="77.96" y="72">pp </tspan><tspan class="cls-20" x="94.16" y="72">C</tspan><tspan x="100.99" y="72">on</tspan><tspan x="114.24" y="72">-</tspan><tspan x="0" y="86.4">ta</tspan><tspan class="cls-6" x="9.76" y="86.4">c</tspan><tspan x="15.29" y="86.4">ts and </tspan><tspan class="cls-19" x="48.31" y="86.4">e</tspan><tspan x="54.29" y="86.4">xisting</tspan><tspan class="cls-25" x="87.55" y="86.4"> </tspan><tspan class="cls-14" x="89.66" y="86.4">V</tspan><tspan x="96.17" y="86.4">ideo </tspan><tspan x="0" y="100.8">Ch</tspan><tspan class="cls-15" x="13.62" y="100.8">a</tspan><tspan x="19.36" y="100.8">t </tspan><tspan class="cls-12" x="25.87" y="100.8">A</tspan><tspan x="33.18" y="100.8">pps</tspan></text><rect class="cls-1" x="566.08" y="197.76" width="86.21" height="60.9"/><text class="cls-2" transform="translate(585.05 220.61)">Home <tspan class="cls-5" x="0" y="14.4">A</tspan><tspan class="cls-6" x="7.2" y="14.4">c</tspan><tspan x="12.73" y="14.4">tivi</tspan><tspan class="cls-7" x="28.09" y="14.4">t</tspan><tspan x="32.17" y="14.4">y</tspan></text><rect class="cls-1" x="412.47" y="282.3" width="86.21" height="168.06"/><rect class="cls-1" x="317.66" y="282.3" width="86.21" height="168.97"/><text class="cls-2" transform="translate(420.36 302.4)"><tspan class="cls-15">E</tspan><tspan x="5.86" y="0">dit</tspan><tspan class="cls-26" x="19.4" y="0"> </tspan><tspan class="cls-27" x="21.46" y="0">T</tspan><tspan x="26.57" y="0">o - </tspan><tspan class="cls-9" x="41.93" y="0">D</tspan><tspan x="49.97" y="0">o </tspan><tspan x="0" y="14.4">List </tspan><tspan class="cls-5" x="19.74" y="14.4">A</tspan><tspan class="cls-6" x="26.94" y="14.4">c</tspan><tspan x="32.47" y="14.4">tivi</tspan><tspan class="cls-7" x="47.83" y="14.4">t</tspan><tspan x="51.91" y="14.4">y</tspan></text><text class="cls-2" transform="translate(425.4 345.02)"><tspan class="cls-10">C</tspan><tspan x="6.88" y="0">alls </tspan><tspan x="0" y="14.4">a</tspan><tspan class="cls-6" x="5.78" y="14.4">c</tspan><tspan x="11.32" y="14.4">tion </tspan><tspan x="0" y="28.8">f</tspan><tspan class="cls-11" x="3.5" y="28.8">r</tspan><tspan x="7.31" y="28.8">om </tspan><tspan class="cls-10" x="0" y="43.2">C</tspan><tspan x="6.88" y="43.2">alendar </tspan><tspan class="cls-12"><tspan x="0" y="57.6">A</tspan><tspan class="cls-13" x="7.31" y="57.6">pp</tspan></tspan></text><text class="cls-2" transform="translate(323.04 304.93)"><tspan class="cls-14">V</tspan><tspan x="6.5" y="0">ideo Ch</tspan><tspan class="cls-15" x="44.84" y="0">a</tspan><tspan x="50.58" y="0">t </tspan><tspan class="cls-5" x="0" y="14.4">A</tspan><tspan class="cls-6" x="7.2" y="14.4">c</tspan><tspan x="12.73" y="14.4">tivi</tspan><tspan class="cls-7" x="28.09" y="14.4">t</tspan><tspan x="32.17" y="14.4">y</tspan></text><text class="cls-2" transform="translate(323.04 348.48)"><tspan class="cls-10">C</tspan><tspan x="6.88" y="0">alls a</tspan><tspan class="cls-16" x="31.4" y="0">c</tspan><tspan x="36.94" y="0">tion </tspan><tspan x="0" y="14.4">f</tspan><tspan class="cls-11" x="3.5" y="14.4">r</tspan><tspan x="7.31" y="14.4">om an </tspan><tspan class="cls-12" x="0" y="28.8">e</tspan><tspan x="5.98" y="28.8">xisting app </tspan><tspan x="0" y="43.2">th</tspan><tspan class="cls-15" x="10.63" y="43.2">a</tspan><tspan x="16.37" y="43.2">t has li</tspan><tspan class="cls-11" x="48.26" y="43.2">v</tspan><tspan x="53.92" y="43.2">e </tspan><tspan x="0" y="57.6">video ch</tspan><tspan class="cls-15" x="42.53" y="57.6">a</tspan><tspan x="48.26" y="57.6">t </tspan><tspan x="0" y="72">capablities</tspan></text><text x="-21.79" y="-62.56"/><rect class="cls-1" x="514.27" y="281.62" width="105.5" height="169.65"/><text class="cls-2" transform="translate(201.05 201.91)"><tspan class="cls-9">D</tspan><tspan x="8.04" y="0">epende</tspan><tspan class="cls-15" x="46.33" y="0">n</tspan><tspan x="52.94" y="0">t </tspan><tspan class="cls-5" x="59.46" y="0">A</tspan><tspan class="cls-4" x="66.66" y="0">cc</tspan><tspan x="77.27" y="0">ou</tspan><tspan class="cls-23" x="90.47" y="0">n</tspan><tspan x="97.08" y="0">t</tspan></text><text class="cls-2" transform="translate(532.03 306.4)"><tspan class="cls-3">L</tspan><tspan x="5.5" y="0">oc</tspan><tspan class="cls-15" x="17.46" y="0">a</tspan><tspan class="cls-22" x="23.2" y="0">t</tspan><tspan x="27.1" y="0">e </tspan><tspan class="cls-28" x="0" y="14.4">A</tspan><tspan class="cls-29" x="7.2" y="14.4">c</tspan><tspan x="12.73" y="14.4">tivi</tspan><tspan class="cls-30" x="28.09" y="14.4">t</tspan><tspan x="32.17" y="14.4">y</tspan></text><text class="cls-2" transform="translate(523.77 346.38)"><tspan class="cls-10">C</tspan><tspan x="6.88" y="0">alls a</tspan><tspan class="cls-16" x="31.4" y="0">c</tspan><tspan x="36.94" y="0">tion f</tspan><tspan class="cls-11" x="63.01" y="0">r</tspan><tspan x="66.82" y="0">om </tspan><tspan x="0" y="14.4">SnapCh</tspan><tspan class="cls-15" x="38.81" y="14.4">a</tspan><tspan x="44.54" y="14.4">t </tspan><tspan class="cls-22" x="51.06" y="14.4">t</tspan><tspan x="54.96" y="14.4">o </tspan><tspan x="0" y="28.8">a</tspan><tspan class="cls-22" x="5.78" y="28.8">cc</tspan><tspan x="16.39" y="28.8">ess SnapCh</tspan><tspan class="cls-15" x="73.26" y="28.8">a</tspan><tspan class="cls-31" x="79" y="28.8">t </tspan><tspan class="cls-32" x="0" y="43.2">M</tspan><tspan x="9.72" y="43.2">ap </tspan></text><rect class="cls-1" x="635.36" y="283.29" width="105.5" height="169.65"/><text class="cls-2" transform="translate(654.8 302.42)"><tspan class="cls-33">H</tspan><tspan x="7.94" y="0">is</tspan><tspan class="cls-22" x="15.5" y="0">t</tspan><tspan x="19.4" y="0">o</tspan><tspan class="cls-34" x="25.99" y="0">r</tspan><tspan x="30.21" y="0">y </tspan><tspan class="cls-28" x="0" y="14.4">A</tspan><tspan class="cls-29" x="7.2" y="14.4">c</tspan><tspan x="12.73" y="14.4">tivi</tspan><tspan class="cls-30" x="28.09" y="14.4">t</tspan><tspan x="32.17" y="14.4">y</tspan></text><text class="cls-2" transform="translate(644.89 346.03)"><tspan class="cls-9">R</tspan><tspan x="6.5" y="0">et</tspan><tspan class="cls-9" x="16.49" y="0">r</tspan><tspan x="20.46" y="0">ie</tspan><tspan class="cls-11" x="29.28" y="0">v</tspan><tspan x="34.93" y="0">es all logs </tspan><tspan x="0" y="14.4">and notific</tspan><tspan class="cls-15" x="53.44" y="14.4">a</tspan><tspan x="59.17" y="14.4">tions </tspan><tspan x="0" y="28.8">f</tspan><tspan class="cls-11" x="3.5" y="28.8">r</tspan><tspan x="7.31" y="28.8">om depende</tspan><tspan class="cls-15" x="71.51" y="28.8">n</tspan><tspan class="cls-35" x="78.12" y="28.8">t</tspan><tspan class="cls-36" x="82.34" y="28.8">’</tspan><tspan x="83.96" y="28.8">s </tspan><tspan x="0" y="43.2">a</tspan><tspan class="cls-22" x="5.78" y="43.2">cc</tspan><tspan x="16.39" y="43.2">ou</tspan><tspan class="cls-37" x="29.59" y="43.2">n</tspan><tspan class="cls-38" x="36.2" y="43.2">t</tspan></text><text x="-21.79" y="-62.56"/><rect class="cls-1" x="761.94" y="283.29" width="112.97" height="169.65"/><text class="cls-2" transform="translate(771.46 311.87)"><tspan class="cls-28">A</tspan><tspan class="cls-22" x="7.2" y="0">cc</tspan><tspan x="17.81" y="0">ess </tspan><tspan class="cls-9" x="35.87" y="0">D</tspan><tspan x="43.91" y="0">epende</tspan><tspan class="cls-15" x="82.2" y="0">n</tspan><tspan class="cls-35" x="88.81" y="0">t</tspan><tspan class="cls-39" x="93.03" y="0">’</tspan><tspan x="94.65" y="0">s </tspan><tspan class="cls-24" x="0" y="14.4">P</tspan><tspan x="6.32" y="14.4">hone </tspan><tspan class="cls-40" x="34.79" y="14.4">A</tspan><tspan class="cls-16" x="41.99" y="14.4">c</tspan><tspan x="47.52" y="14.4">tivi</tspan><tspan class="cls-41" x="62.88" y="14.4">t</tspan><tspan x="66.96" y="14.4">y</tspan></text><text class="cls-2" transform="translate(771.46 346.03)">Opens<tspan class="cls-26" x="32.52" y="0"> </tspan><tspan class="cls-27" x="34.57" y="0">T</tspan><tspan x="39.68" y="0">eam </tspan><tspan class="cls-42" x="0" y="14.4">V</tspan><tspan class="cls-31" x="6.5" y="14.4">ie</tspan><tspan class="cls-43" x="15.32" y="14.4">w</tspan><tspan x="24.04" y="14.4">er </tspan><tspan class="cls-22" x="36.52" y="14.4">t</tspan><tspan x="40.42" y="14.4">o a</tspan><tspan class="cls-22" x="55.33" y="14.4">cc</tspan><tspan x="65.94" y="14.4">ess </tspan><tspan x="0" y="28.8">linked phone</tspan></text><rect class="cls-1" x="895.99" y="283.56" width="86.21" height="169.78"/><text class="cls-2" transform="translate(902.56 305.43)"><tspan class="cls-17">S</tspan><tspan x="5.99" y="0">ettings </tspan><tspan class="cls-5" x="0" y="14.4">A</tspan><tspan class="cls-6" x="7.2" y="14.4">c</tspan><tspan x="12.73" y="14.4">tivi</tspan><tspan class="cls-7" x="28.09" y="14.4">t</tspan><tspan x="32.17" y="14.4">y</tspan></text><text class="cls-2" transform="translate(903.75 336.9)"><tspan class="cls-5">A</tspan><tspan class="cls-4" x="7.2" y="0">cc</tspan><tspan x="17.81" y="0">ess </tspan><tspan class="cls-18" x="0" y="14.4">P</tspan><tspan x="6.32" y="14.4">hone </tspan><tspan class="cls-19" x="34.79" y="14.4">A</tspan><tspan x="42.1" y="14.4">pp </tspan><tspan class="cls-20" x="0" y="28.8">C</tspan><tspan x="6.83" y="28.8">o</tspan><tspan class="cls-15" x="13.42" y="28.8">n</tspan><tspan x="20.03" y="28.8">ta</tspan><tspan class="cls-6" x="29.78" y="28.8">c</tspan><tspan x="35.32" y="28.8">ts</tspan></text><text class="cls-2" transform="translate(429.17 201.91)"><tspan class="cls-10">C</tspan><tspan x="6.88" y="0">a</tspan><tspan class="cls-44" x="12.66" y="0">r</tspan><tspan x="16.46" y="0">etaker </tspan><tspan class="cls-5" x="50.34" y="0">A</tspan><tspan class="cls-22" x="57.54" y="0">cc</tspan><tspan x="68.15" y="0">ou</tspan><tspan class="cls-15" x="81.35" y="0">n</tspan><tspan x="87.96" y="0">t</tspan></text><line class="cls-45" x1="262.52" y1="35.51" x2="219.69" y2="35.51"/><polygon class="cls-46" points="261.06 30.53 269.69 35.51 261.06 40.5 261.06 30.53"/><line class="cls-45" x1="226.87" y1="22.87" x2="269.69" y2="22.87"/><polygon class="cls-46" points="228.33 27.86 219.69 22.87 228.33 17.88 228.33 27.86"/><line class="cls-45" x1="43.6" y1="272.65" x2="244.13" y2="272.65"/><line class="cls-45" x1="43.6" y1="272.65" x2="43.6" y2="276.8"/><polygon class="cls-46" points="38.62 275.34 43.6 283.97 48.59 275.34 38.62 275.34"/><line class="cls-45" x1="142.7" y1="272.65" x2="142.7" y2="276.8"/><polygon class="cls-46" points="137.72 275.34 142.7 283.97 147.69 275.34 137.72 275.34"/><line class="cls-45" x1="244.13" y1="272.65" x2="244.13" y2="276.8"/><polygon class="cls-46" points="239.15 275.34 244.13 283.97 249.12 275.34 239.15 275.34"/><line class="cls-45" x1="125.81" y1="262.4" x2="125.81" y2="272.65"/><line class="cls-45" x1="609.19" y1="258.66" x2="609.19" y2="267.52"/><line class="cls-45" x1="360.77" y1="272.65" x2="939.09" y2="272.65"/><line class="cls-45" x1="360.77" y1="272.65" x2="360.77" y2="278.72"/><polygon class="cls-46" points="366.84 277.9 354.69 277.9 360.77 283.97 366.84 277.9"/><line class="cls-45" x1="455.57" y1="272.65" x2="455.57" y2="278.72"/><polygon class="cls-46" points="461.65 277.9 449.5 277.9 455.57 283.97 461.65 277.9"/><line class="cls-45" x1="360.77" y1="283.97" x2="360.77" y2="283.97"/><line class="cls-45" x1="566.08" y1="277.04" x2="566.08" y2="272.65"/><polygon class="cls-46" points="560.01 276.23 572.16 276.23 566.09 282.3 560.01 276.23"/><line class="cls-45" x1="689.29" y1="278.72" x2="689.29" y2="272.65"/><polygon class="cls-46" points="683.21 277.9 695.36 277.9 689.29 283.97 683.21 277.9"/><line class="cls-45" x1="818.42" y1="278.72" x2="818.42" y2="272.65"/><polygon class="cls-46" points="812.35 277.9 824.5 277.9 818.42 283.97 812.35 277.9"/><line class="cls-45" x1="939.09" y1="278.72" x2="939.09" y2="272.65"/><polygon class="cls-46" points="933.02 277.9 945.17 277.9 939.09 283.97 933.02 277.9"/><line class="cls-45" x1="609.19" y1="267.52" x2="609.19" y2="272.65"/><line class="cls-45" x1="177.12" y1="219.2" x2="558.91" y2="219.2"/><polygon class="cls-46" points="178.57 224.18 169.94 219.2 178.57 214.21 178.57 224.18"/><polygon class="cls-46" points="557.45 224.18 566.09 219.2 557.45 214.21 557.45 224.18"/><line class="cls-45" x1="360.77" y1="48.17" x2="360.77" y2="219.2"/><text class="cls-47" transform="translate(649.93 23.83)"><tspan class="cls-17">S</tspan><tspan x="11.98" y="0">enior</tspan><tspan class="cls-48" x="63.96" y="0"> </tspan><tspan class="cls-14" x="68.18" y="0">V</tspan><tspan x="81.19" y="0">iew Si</tspan><tspan class="cls-22" x="139.03" y="0">t</tspan><tspan x="146.83" y="0">e </tspan><tspan class="cls-32" x="163.94" y="0">M</tspan><tspan x="183.38" y="0">ap</tspan></text></svg>